<ttFont>
    <TTGlyph name="A" xMin="1" yMin="-5" xMax="668" yMax="716">
      <contour>
        <pt x="668" y="65" on="1"/>
        <pt x="663" y="-5" on="1"/>
        <pt x="614" y="0" on="0"/>
        <pt x="579" y="0" on="1"/>
        <pt x="375" y="-5" on="1"/>
        <pt x="370" y="68" on="1"/>
        <pt x="429" y="77" on="1"/>
        <pt x="424" y="129" on="1"/>
        <pt x="410" y="179" on="1"/>
        <pt x="221" y="179" on="1"/>
        <pt x="204" y="115" on="1"/>
        <pt x="198" y="77" on="1"/>
        <pt x="256" y="65" on="1"/>
        <pt x="251" y="-5" on="1"/>
        <pt x="192" y="0" on="0"/>
        <pt x="145" y="0" on="1"/>
        <pt x="6" y="-5" on="1"/>
        <pt x="1" y="68" on="1"/>
        <pt x="46" y="75" on="1"/>
        <pt x="88" y="161" on="1"/>
        <pt x="277" y="705" on="1"/>
        <pt x="389" y="716" on="1"/>
        <pt x="589" y="128" on="1"/>
        <pt x="612" y="74" on="1"/>
      </contour>
      <contour>
        <pt x="320" y="498" on="1"/>
        <pt x="248" y="261" on="1"/>
        <pt x="384" y="263" on="1"/>
      </contour>
    </TTGlyph>
    <TTGlyph name="AE" xMin="1" yMin="-5" xMax="909" yMax="715">
      <contour>
        <pt x="717" y="618" on="1"/>
        <pt x="550" y="618" on="1"/>
        <pt x="553" y="568" on="0"/>
        <pt x="556" y="542" on="1"/>
        <pt x="578" y="400" on="1"/>
        <pt x="586" y="398" on="0"/>
        <pt x="604" y="398" on="1"/>
        <pt x="685" y="398" on="1"/>
        <pt x="706" y="398" on="0"/>
        <pt x="729" y="407" on="1"/>
        <pt x="738" y="471" on="1"/>
        <pt x="800" y="466" on="1"/>
        <pt x="799" y="406" on="0"/>
        <pt x="799" y="386" on="1"/>
        <pt x="802" y="259" on="1"/>
        <pt x="738" y="253" on="1"/>
        <pt x="729" y="313" on="1"/>
        <pt x="685" y="319" on="0"/>
        <pt x="665" y="319" on="1"/>
        <pt x="609" y="319" on="1"/>
        <pt x="597" y="319" on="0"/>
        <pt x="591" y="317" on="1"/>
        <pt x="610" y="193" on="1"/>
        <pt x="630" y="87" on="1"/>
        <pt x="731" y="87" on="1"/>
        <pt x="768" y="87" on="0"/>
        <pt x="808" y="95" on="1"/>
        <pt x="826" y="134" on="0"/>
        <pt x="836" y="172" on="0"/>
        <pt x="839" y="195" on="1"/>
        <pt x="909" y="190" on="1"/>
        <pt x="894" y="14" on="1"/>
        <pt x="875" y="-4" on="1"/>
        <pt x="781" y="0" on="0"/>
        <pt x="761" y="0" on="1"/>
        <pt x="490" y="0" on="1"/>
        <pt x="409" y="-5" on="1"/>
        <pt x="404" y="65" on="1"/>
        <pt x="471" y="77" on="1"/>
        <pt x="471" y="120" on="0"/>
        <pt x="469" y="132" on="1"/>
        <pt x="461" y="184" on="1"/>
        <pt x="244" y="184" on="1"/>
        <pt x="205" y="115" on="1"/>
        <pt x="204" y="114" on="0"/>
        <pt x="202" y="108" on="1"/>
        <pt x="199" y="101" on="0"/>
        <pt x="189" y="77" on="1"/>
        <pt x="258" y="71" on="1"/>
        <pt x="253" y="-5" on="1"/>
        <pt x="189" y="0" on="0"/>
        <pt x="106" y="0" on="1"/>
        <pt x="6" y="-5" on="1"/>
        <pt x="1" y="65" on="1"/>
        <pt x="52" y="74" on="1"/>
        <pt x="100" y="140" on="0"/>
        <pt x="112" y="161" on="1"/>
        <pt x="375" y="623" on="1"/>
        <pt x="311" y="635" on="1"/>
        <pt x="316" y="710" on="1"/>
        <pt x="369" y="705" on="0"/>
        <pt x="416" y="705" on="1"/>
        <pt x="747" y="705" on="1"/>
        <pt x="861" y="715" on="1"/>
        <pt x="880" y="697" on="1"/>
        <pt x="887" y="536" on="1"/>
        <pt x="815" y="531" on="1"/>
        <pt x="809" y="579" on="0"/>
        <pt x="806" y="591" on="0"/>
        <pt x="797" y="613" on="1"/>
        <pt x="747" y="618" on="0"/>
      </contour>
      <contour>
        <pt x="290" y="266" on="1"/>
        <pt x="448" y="268" on="1"/>
        <pt x="415" y="479" on="1"/>
        <pt x="413" y="487" on="1"/>
      </contour>
    </TTGlyph>
    <TTGlyph name="AEacute" xMin="1" yMin="-5" xMax="909" yMax="898">
      <contour>
        <pt x="717" y="618" on="1"/>
        <pt x="550" y="618" on="1"/>
        <pt x="553" y="568" on="0"/>
        <pt x="556" y="542" on="1"/>
        <pt x="578" y="400" on="1"/>
        <pt x="586" y="398" on="0"/>
        <pt x="604" y="398" on="1"/>
        <pt x="685" y="398" on="1"/>
        <pt x="706" y="398" on="0"/>
        <pt x="729" y="407" on="1"/>
        <pt x="738" y="471" on="1"/>
        <pt x="800" y="466" on="1"/>
        <pt x="799" y="406" on="0"/>
        <pt x="799" y="386" on="1"/>
        <pt x="802" y="259" on="1"/>
        <pt x="738" y="253" on="1"/>
        <pt x="729" y="313" on="1"/>
        <pt x="685" y="319" on="0"/>
        <pt x="665" y="319" on="1"/>
        <pt x="609" y="319" on="1"/>
        <pt x="597" y="319" on="0"/>
        <pt x="591" y="317" on="1"/>
        <pt x="610" y="193" on="1"/>
        <pt x="630" y="87" on="1"/>
        <pt x="731" y="87" on="1"/>
        <pt x="768" y="87" on="0"/>
        <pt x="808" y="95" on="1"/>
        <pt x="826" y="134" on="0"/>
        <pt x="836" y="172" on="0"/>
        <pt x="839" y="195" on="1"/>
        <pt x="909" y="190" on="1"/>
        <pt x="894" y="14" on="1"/>
        <pt x="875" y="-4" on="1"/>
        <pt x="781" y="0" on="0"/>
        <pt x="761" y="0" on="1"/>
        <pt x="490" y="0" on="1"/>
        <pt x="409" y="-5" on="1"/>
        <pt x="404" y="65" on="1"/>
        <pt x="471" y="77" on="1"/>
        <pt x="471" y="120" on="0"/>
        <pt x="469" y="132" on="1"/>
        <pt x="461" y="184" on="1"/>
        <pt x="244" y="184" on="1"/>
        <pt x="205" y="115" on="1"/>
        <pt x="204" y="114" on="0"/>
        <pt x="202" y="108" on="1"/>
        <pt x="199" y="101" on="0"/>
        <pt x="189" y="77" on="1"/>
        <pt x="258" y="71" on="1"/>
        <pt x="253" y="-5" on="1"/>
        <pt x="189" y="0" on="0"/>
        <pt x="106" y="0" on="1"/>
        <pt x="6" y="-5" on="1"/>
        <pt x="1" y="65" on="1"/>
        <pt x="52" y="74" on="1"/>
        <pt x="100" y="140" on="0"/>
        <pt x="112" y="161" on="1"/>
        <pt x="375" y="623" on="1"/>
        <pt x="311" y="635" on="1"/>
        <pt x="316" y="710" on="1"/>
        <pt x="369" y="705" on="0"/>
        <pt x="416" y="705" on="1"/>
        <pt x="747" y="705" on="1"/>
        <pt x="861" y="715" on="1"/>
        <pt x="880" y="697" on="1"/>
        <pt x="887" y="536" on="1"/>
        <pt x="815" y="531" on="1"/>
        <pt x="809" y="579" on="0"/>
        <pt x="806" y="591" on="0"/>
        <pt x="797" y="613" on="1"/>
        <pt x="747" y="618" on="0"/>
      </contour>
      <contour>
        <pt x="290" y="266" on="1"/>
        <pt x="448" y="268" on="1"/>
        <pt x="415" y="479" on="1"/>
        <pt x="413" y="487" on="1"/>
      </contour>
      <contour>
        <pt x="656" y="898" on="1"/>
        <pt x="692" y="814" on="1"/>
        <pt x="549" y="774" on="0"/>
        <pt x="530" y="768" on="1"/>
        <pt x="456" y="730" on="1"/>
        <pt x="419" y="794" on="1"/>
      </contour>
    </TTGlyph>
    <TTGlyph name="Aacute" xMin="1" yMin="-5" xMax="668" yMax="898">
      <contour>
        <pt x="668" y="65" on="1"/>
        <pt x="663" y="-5" on="1"/>
        <pt x="614" y="0" on="0"/>
        <pt x="579" y="0" on="1"/>
        <pt x="375" y="-5" on="1"/>
        <pt x="370" y="68" on="1"/>
        <pt x="429" y="77" on="1"/>
        <pt x="424" y="129" on="1"/>
        <pt x="410" y="179" on="1"/>
        <pt x="221" y="179" on="1"/>
        <pt x="204" y="115" on="1"/>
        <pt x="198" y="77" on="1"/>
        <pt x="256" y="65" on="1"/>
        <pt x="251" y="-5" on="1"/>
        <pt x="192" y="0" on="0"/>
        <pt x="145" y="0" on="1"/>
        <pt x="6" y="-5" on="1"/>
        <pt x="1" y="68" on="1"/>
        <pt x="46" y="75" on="1"/>
        <pt x="88" y="161" on="1"/>
        <pt x="277" y="705" on="1"/>
        <pt x="389" y="716" on="1"/>
        <pt x="589" y="128" on="1"/>
        <pt x="612" y="74" on="1"/>
      </contour>
      <contour>
        <pt x="320" y="498" on="1"/>
        <pt x="248" y="261" on="1"/>
        <pt x="384" y="263" on="1"/>
      </contour>
      <contour>
        <pt x="454" y="898" on="1"/>
        <pt x="490" y="814" on="1"/>
        <pt x="347" y="774" on="0"/>
        <pt x="328" y="768" on="1"/>
        <pt x="254" y="730" on="1"/>
        <pt x="217" y="794" on="1"/>
      </contour>
    </TTGlyph>
    <TTGlyph name="Abreve" xMin="1" yMin="-5" xMax="668" yMax="898">
      <contour>
        <pt x="668" y="65" on="1"/>
        <pt x="663" y="-5" on="1"/>
        <pt x="614" y="0" on="0"/>
        <pt x="579" y="0" on="1"/>
        <pt x="375" y="-5" on="1"/>
        <pt x="370" y="68" on="1"/>
        <pt x="429" y="77" on="1"/>
        <pt x="424" y="129" on="1"/>
        <pt x="410" y="179" on="1"/>
        <pt x="221" y="179" on="1"/>
        <pt x="204" y="115" on="1"/>
        <pt x="198" y="77" on="1"/>
        <pt x="256" y="65" on="1"/>
        <pt x="251" y="-5" on="1"/>
        <pt x="192" y="0" on="0"/>
        <pt x="145" y="0" on="1"/>
        <pt x="6" y="-5" on="1"/>
        <pt x="1" y="68" on="1"/>
        <pt x="46" y="75" on="1"/>
        <pt x="88" y="161" on="1"/>
        <pt x="277" y="705" on="1"/>
        <pt x="389" y="716" on="1"/>
        <pt x="589" y="128" on="1"/>
        <pt x="612" y="74" on="1"/>
      </contour>
      <contour>
        <pt x="320" y="498" on="1"/>
        <pt x="248" y="261" on="1"/>
        <pt x="384" y="263" on="1"/>
      </contour>
      <contour>
        <pt x="422" y="898" on="1"/>
        <pt x="488" y="898" on="1"/>
        <pt x="488" y="824" on="0"/>
        <pt x="405" y="743" on="0"/>
        <pt x="263" y="743" on="0"/>
        <pt x="180" y="824" on="0"/>
        <pt x="180" y="898" on="1"/>
        <pt x="246" y="898" on="1"/>
        <pt x="246" y="861" on="0"/>
        <pt x="295" y="819" on="0"/>
        <pt x="373" y="819" on="0"/>
        <pt x="422" y="861" on="0"/>
      </contour>
    </TTGlyph>
    <TTGlyph name="Acircumflex" xMin="1" yMin="-5" xMax="668" yMax="908">
      <contour>
        <pt x="668" y="65" on="1"/>
        <pt x="663" y="-5" on="1"/>
        <pt x="614" y="0" on="0"/>
        <pt x="579" y="0" on="1"/>
        <pt x="375" y="-5" on="1"/>
        <pt x="370" y="68" on="1"/>
        <pt x="429" y="77" on="1"/>
        <pt x="424" y="129" on="1"/>
        <pt x="410" y="179" on="1"/>
        <pt x="221" y="179" on="1"/>
        <pt x="204" y="115" on="1"/>
        <pt x="198" y="77" on="1"/>
        <pt x="256" y="65" on="1"/>
        <pt x="251" y="-5" on="1"/>
        <pt x="192" y="0" on="0"/>
        <pt x="145" y="0" on="1"/>
        <pt x="6" y="-5" on="1"/>
        <pt x="1" y="68" on="1"/>
        <pt x="46" y="75" on="1"/>
        <pt x="88" y="161" on="1"/>
        <pt x="277" y="705" on="1"/>
        <pt x="389" y="716" on="1"/>
        <pt x="589" y="128" on="1"/>
        <pt x="612" y="74" on="1"/>
      </contour>
      <contour>
        <pt x="320" y="498" on="1"/>
        <pt x="248" y="261" on="1"/>
        <pt x="384" y="263" on="1"/>
      </contour>
      <contour>
        <pt x="334" y="908" on="1"/>
        <pt x="532" y="775" on="1"/>
        <pt x="485" y="717" on="1"/>
        <pt x="418" y="766" on="1"/>
        <pt x="334" y="807" on="1"/>
        <pt x="250" y="766" on="1"/>
        <pt x="183" y="717" on="1"/>
        <pt x="136" y="775" on="1"/>
      </contour>
    </TTGlyph>
    <TTGlyph name="Adieresis" xMin="1" yMin="-5" xMax="668" yMax="896">
      <contour>
        <pt x="668" y="65" on="1"/>
        <pt x="663" y="-5" on="1"/>
        <pt x="614" y="0" on="0"/>
        <pt x="579" y="0" on="1"/>
        <pt x="375" y="-5" on="1"/>
        <pt x="370" y="68" on="1"/>
        <pt x="429" y="77" on="1"/>
        <pt x="424" y="129" on="1"/>
        <pt x="410" y="179" on="1"/>
        <pt x="221" y="179" on="1"/>
        <pt x="204" y="115" on="1"/>
        <pt x="198" y="77" on="1"/>
        <pt x="256" y="65" on="1"/>
        <pt x="251" y="-5" on="1"/>
        <pt x="192" y="0" on="0"/>
        <pt x="145" y="0" on="1"/>
        <pt x="6" y="-5" on="1"/>
        <pt x="1" y="68" on="1"/>
        <pt x="46" y="75" on="1"/>
        <pt x="88" y="161" on="1"/>
        <pt x="277" y="705" on="1"/>
        <pt x="389" y="716" on="1"/>
        <pt x="589" y="128" on="1"/>
        <pt x="612" y="74" on="1"/>
      </contour>
      <contour>
        <pt x="320" y="498" on="1"/>
        <pt x="248" y="261" on="1"/>
        <pt x="384" y="263" on="1"/>
      </contour>
      <contour>
        <pt x="184" y="896" on="0"/>
        <pt x="248" y="896" on="0"/>
        <pt x="283" y="859" on="0"/>
        <pt x="283" y="794" on="0"/>
        <pt x="248" y="757" on="0"/>
        <pt x="184" y="757" on="0"/>
        <pt x="148" y="795" on="0"/>
        <pt x="148" y="858" on="0"/>
      </contour>
      <contour>
        <pt x="421" y="896" on="0"/>
        <pt x="485" y="896" on="0"/>
        <pt x="520" y="859" on="0"/>
        <pt x="520" y="794" on="0"/>
        <pt x="485" y="757" on="0"/>
        <pt x="421" y="757" on="0"/>
        <pt x="386" y="794" on="0"/>
        <pt x="386" y="858" on="0"/>
      </contour>
    </TTGlyph>
    <TTGlyph name="Agrave" xMin="1" yMin="-5" xMax="668" yMax="908">
      <contour>
        <pt x="668" y="65" on="1"/>
        <pt x="663" y="-5" on="1"/>
        <pt x="614" y="0" on="0"/>
        <pt x="579" y="0" on="1"/>
        <pt x="375" y="-5" on="1"/>
        <pt x="370" y="68" on="1"/>
        <pt x="429" y="77" on="1"/>
        <pt x="424" y="129" on="1"/>
        <pt x="410" y="179" on="1"/>
        <pt x="221" y="179" on="1"/>
        <pt x="204" y="115" on="1"/>
        <pt x="198" y="77" on="1"/>
        <pt x="256" y="65" on="1"/>
        <pt x="251" y="-5" on="1"/>
        <pt x="192" y="0" on="0"/>
        <pt x="145" y="0" on="1"/>
        <pt x="6" y="-5" on="1"/>
        <pt x="1" y="68" on="1"/>
        <pt x="46" y="75" on="1"/>
        <pt x="88" y="161" on="1"/>
        <pt x="277" y="705" on="1"/>
        <pt x="389" y="716" on="1"/>
        <pt x="589" y="128" on="1"/>
        <pt x="612" y="74" on="1"/>
      </contour>
      <contour>
        <pt x="320" y="498" on="1"/>
        <pt x="248" y="261" on="1"/>
        <pt x="384" y="263" on="1"/>
      </contour>
      <contour>
        <pt x="450" y="804" on="1"/>
        <pt x="413" y="740" on="1"/>
        <pt x="339" y="778" on="1"/>
        <pt x="177" y="824" on="1"/>
        <pt x="213" y="908" on="1"/>
      </contour>
    </TTGlyph>
    <TTGlyph name="Amacron" xMin="1" yMin="-5" xMax="668" yMax="844">
      <contour>
        <pt x="668" y="65" on="1"/>
        <pt x="663" y="-5" on="1"/>
        <pt x="614" y="0" on="0"/>
        <pt x="579" y="0" on="1"/>
        <pt x="375" y="-5" on="1"/>
        <pt x="370" y="68" on="1"/>
        <pt x="429" y="77" on="1"/>
        <pt x="424" y="129" on="1"/>
        <pt x="410" y="179" on="1"/>
        <pt x="221" y="179" on="1"/>
        <pt x="204" y="115" on="1"/>
        <pt x="198" y="77" on="1"/>
        <pt x="256" y="65" on="1"/>
        <pt x="251" y="-5" on="1"/>
        <pt x="192" y="0" on="0"/>
        <pt x="145" y="0" on="1"/>
        <pt x="6" y="-5" on="1"/>
        <pt x="1" y="68" on="1"/>
        <pt x="46" y="75" on="1"/>
        <pt x="88" y="161" on="1"/>
        <pt x="277" y="705" on="1"/>
        <pt x="389" y="716" on="1"/>
        <pt x="589" y="128" on="1"/>
        <pt x="612" y="74" on="1"/>
      </contour>
      <contour>
        <pt x="320" y="498" on="1"/>
        <pt x="248" y="261" on="1"/>
        <pt x="384" y="263" on="1"/>
      </contour>
      <contour>
        <pt x="173" y="771" on="1"/>
        <pt x="173" y="844" on="1"/>
        <pt x="495" y="844" on="1"/>
        <pt x="488" y="771" on="1"/>
      </contour>
    </TTGlyph>
    <TTGlyph name="Aogonek" xMin="1" yMin="-197" xMax="668" yMax="716">
      <contour>
        <pt x="579" y="0" on="1"/>
        <pt x="493" y="0" on="1"/>
        <pt x="458" y="-6" on="0"/>
        <pt x="418" y="-56" on="0"/>
        <pt x="418" y="-81" on="1"/>
        <pt x="418" y="-133" on="0"/>
        <pt x="463" y="-133" on="1"/>
        <pt x="479" y="-133" on="0"/>
        <pt x="497" y="-126" on="1"/>
        <pt x="515" y="-174" on="1"/>
        <pt x="469" y="-197" on="0"/>
        <pt x="370" y="-197" on="0"/>
        <pt x="311" y="-152" on="0"/>
        <pt x="311" y="-108" on="1"/>
        <pt x="311" y="-61" on="0"/>
        <pt x="352" y="-26" on="1"/>
        <pt x="369" y="-12" on="0"/>
        <pt x="386" y="3" on="1"/>
        <pt x="427" y="39" on="0"/>
        <pt x="427" y="91" on="1"/>
        <pt x="427" y="111" on="0"/>
        <pt x="424" y="129" on="1"/>
        <pt x="410" y="179" on="1"/>
        <pt x="221" y="179" on="1"/>
        <pt x="204" y="115" on="1"/>
        <pt x="198" y="77" on="1"/>
        <pt x="256" y="65" on="1"/>
        <pt x="251" y="-5" on="1"/>
        <pt x="192" y="0" on="0"/>
        <pt x="145" y="0" on="1"/>
        <pt x="6" y="-5" on="1"/>
        <pt x="1" y="68" on="1"/>
        <pt x="46" y="75" on="1"/>
        <pt x="88" y="161" on="1"/>
        <pt x="277" y="705" on="1"/>
        <pt x="389" y="716" on="1"/>
        <pt x="589" y="128" on="1"/>
        <pt x="612" y="74" on="1"/>
        <pt x="668" y="65" on="1"/>
        <pt x="663" y="-5" on="1"/>
        <pt x="614" y="0" on="0"/>
      </contour>
      <contour>
        <pt x="320" y="498" on="1"/>
        <pt x="248" y="261" on="1"/>
        <pt x="384" y="263" on="1"/>
      </contour>
    </TTGlyph>
    <TTGlyph name="Aring" xMin="1" yMin="-5" xMax="668" yMax="926">
      <contour>
        <pt x="668" y="65" on="1"/>
        <pt x="663" y="-5" on="1"/>
        <pt x="614" y="0" on="0"/>
        <pt x="579" y="0" on="1"/>
        <pt x="375" y="-5" on="1"/>
        <pt x="370" y="68" on="1"/>
        <pt x="429" y="77" on="1"/>
        <pt x="424" y="129" on="1"/>
        <pt x="410" y="179" on="1"/>
        <pt x="221" y="179" on="1"/>
        <pt x="204" y="115" on="1"/>
        <pt x="198" y="77" on="1"/>
        <pt x="256" y="65" on="1"/>
        <pt x="251" y="-5" on="1"/>
        <pt x="192" y="0" on="0"/>
        <pt x="145" y="0" on="1"/>
        <pt x="6" y="-5" on="1"/>
        <pt x="1" y="68" on="1"/>
        <pt x="46" y="75" on="1"/>
        <pt x="88" y="161" on="1"/>
        <pt x="277" y="705" on="1"/>
        <pt x="389" y="716" on="1"/>
        <pt x="589" y="128" on="1"/>
        <pt x="612" y="74" on="1"/>
      </contour>
      <contour>
        <pt x="320" y="498" on="1"/>
        <pt x="248" y="261" on="1"/>
        <pt x="384" y="263" on="1"/>
      </contour>
      <contour>
        <pt x="286" y="926" on="0"/>
        <pt x="382" y="926" on="0"/>
        <pt x="433" y="875" on="0"/>
        <pt x="433" y="786" on="0"/>
        <pt x="382" y="735" on="0"/>
        <pt x="286" y="735" on="0"/>
        <pt x="234" y="786" on="0"/>
        <pt x="234" y="874" on="0"/>
      </contour>
      <contour>
        <pt x="366" y="868" on="0"/>
        <pt x="303" y="868" on="0"/>
        <pt x="303" y="793" on="0"/>
        <pt x="366" y="793" on="0"/>
      </contour>
    </TTGlyph>
    <TTGlyph name="Aringacute" xMin="1" yMin="-5" xMax="668" yMax="1039">
      <contour>
        <pt x="668" y="65" on="1"/>
        <pt x="663" y="-5" on="1"/>
        <pt x="614" y="0" on="0"/>
        <pt x="579" y="0" on="1"/>
        <pt x="375" y="-5" on="1"/>
        <pt x="370" y="68" on="1"/>
        <pt x="429" y="77" on="1"/>
        <pt x="424" y="129" on="1"/>
        <pt x="410" y="179" on="1"/>
        <pt x="221" y="179" on="1"/>
        <pt x="204" y="115" on="1"/>
        <pt x="198" y="77" on="1"/>
        <pt x="256" y="65" on="1"/>
        <pt x="251" y="-5" on="1"/>
        <pt x="192" y="0" on="0"/>
        <pt x="145" y="0" on="1"/>
        <pt x="6" y="-5" on="1"/>
        <pt x="1" y="68" on="1"/>
        <pt x="46" y="75" on="1"/>
        <pt x="88" y="161" on="1"/>
        <pt x="277" y="705" on="1"/>
        <pt x="389" y="716" on="1"/>
        <pt x="589" y="128" on="1"/>
        <pt x="612" y="74" on="1"/>
      </contour>
      <contour>
        <pt x="320" y="498" on="1"/>
        <pt x="248" y="261" on="1"/>
        <pt x="384" y="263" on="1"/>
      </contour>
      <contour>
        <pt x="286" y="902" on="0"/>
        <pt x="368" y="902" on="0"/>
        <pt x="411" y="858" on="0"/>
        <pt x="411" y="783" on="0"/>
        <pt x="368" y="739" on="0"/>
        <pt x="286" y="739" on="0"/>
        <pt x="242" y="783" on="0"/>
        <pt x="242" y="858" on="0"/>
      </contour>
      <contour>
        <pt x="354" y="853" on="0"/>
        <pt x="301" y="853" on="0"/>
        <pt x="301" y="789" on="0"/>
        <pt x="354" y="789" on="0"/>
      </contour>
      <contour>
        <pt x="406" y="1039" on="1"/>
        <pt x="438" y="964" on="1"/>
        <pt x="310" y="928" on="0"/>
        <pt x="293" y="922" on="1"/>
        <pt x="226" y="888" on="1"/>
        <pt x="193" y="946" on="1"/>
      </contour>
    </TTGlyph>
    <TTGlyph name="Atilde" xMin="1" yMin="-5" xMax="668" yMax="883">
      <contour>
        <pt x="668" y="65" on="1"/>
        <pt x="663" y="-5" on="1"/>
        <pt x="614" y="0" on="0"/>
        <pt x="579" y="0" on="1"/>
        <pt x="375" y="-5" on="1"/>
        <pt x="370" y="68" on="1"/>
        <pt x="429" y="77" on="1"/>
        <pt x="424" y="129" on="1"/>
        <pt x="410" y="179" on="1"/>
        <pt x="221" y="179" on="1"/>
        <pt x="204" y="115" on="1"/>
        <pt x="198" y="77" on="1"/>
        <pt x="256" y="65" on="1"/>
        <pt x="251" y="-5" on="1"/>
        <pt x="192" y="0" on="0"/>
        <pt x="145" y="0" on="1"/>
        <pt x="6" y="-5" on="1"/>
        <pt x="1" y="68" on="1"/>
        <pt x="46" y="75" on="1"/>
        <pt x="88" y="161" on="1"/>
        <pt x="277" y="705" on="1"/>
        <pt x="389" y="716" on="1"/>
        <pt x="589" y="128" on="1"/>
        <pt x="612" y="74" on="1"/>
      </contour>
      <contour>
        <pt x="320" y="498" on="1"/>
        <pt x="248" y="261" on="1"/>
        <pt x="384" y="263" on="1"/>
      </contour>
      <contour>
        <pt x="504" y="810" on="0"/>
        <pt x="457" y="754" on="0"/>
        <pt x="416" y="754" on="0"/>
        <pt x="274" y="792" on="0"/>
        <pt x="258" y="792" on="1"/>
        <pt x="232" y="792" on="0"/>
        <pt x="211" y="760" on="1"/>
        <pt x="204" y="750" on="1"/>
        <pt x="157" y="778" on="1"/>
        <pt x="173" y="816" on="0"/>
        <pt x="227" y="883" on="0"/>
        <pt x="267" y="883" on="0"/>
        <pt x="410" y="845" on="0"/>
        <pt x="426" y="845" on="1"/>
        <pt x="453" y="845" on="0"/>
        <pt x="471" y="874" on="1"/>
        <pt x="477" y="883" on="1"/>
        <pt x="526" y="855" on="1"/>
        <pt x="521" y="844" on="0"/>
      </contour>
    </TTGlyph>
    <TTGlyph name="B" xMin="51" yMin="-5" xMax="608" yMax="715">
      <contour>
        <pt x="149" y="705" on="1"/>
        <pt x="352" y="715" on="1"/>
        <pt x="446" y="715" on="0"/>
        <pt x="577" y="622" on="0"/>
        <pt x="577" y="543" on="1"/>
        <pt x="577" y="478" on="0"/>
        <pt x="500" y="386" on="0"/>
        <pt x="438" y="371" on="1"/>
        <pt x="438" y="364" on="1"/>
        <pt x="515" y="352" on="0"/>
        <pt x="608" y="264" on="0"/>
        <pt x="608" y="189" on="1"/>
        <pt x="608" y="94" on="0"/>
        <pt x="472" y="-5" on="0"/>
        <pt x="369" y="-5" on="1"/>
        <pt x="148" y="0" on="1"/>
        <pt x="56" y="-5" on="1"/>
        <pt x="51" y="65" on="1"/>
        <pt x="111" y="77" on="1"/>
        <pt x="120" y="119" on="0"/>
        <pt x="120" y="163" on="1"/>
        <pt x="120" y="512" on="1"/>
        <pt x="120" y="582" on="0"/>
        <pt x="111" y="623" on="1"/>
        <pt x="52" y="635" on="1"/>
        <pt x="57" y="710" on="1"/>
        <pt x="102" y="705" on="0"/>
      </contour>
      <contour>
        <pt x="275" y="542" on="1"/>
        <pt x="275" y="193" on="1"/>
        <pt x="275" y="122" on="0"/>
        <pt x="278" y="80" on="1"/>
        <pt x="305" y="77" on="0"/>
        <pt x="334" y="77" on="1"/>
        <pt x="389" y="77" on="0"/>
        <pt x="455" y="144" on="0"/>
        <pt x="455" y="203" on="1"/>
        <pt x="455" y="320" on="0"/>
        <pt x="323" y="320" on="1"/>
        <pt x="313" y="320" on="1"/>
        <pt x="320" y="407" on="1"/>
        <pt x="326" y="407" on="1"/>
        <pt x="376" y="407" on="0"/>
        <pt x="432" y="470" on="0"/>
        <pt x="432" y="574" on="0"/>
        <pt x="373" y="633" on="0"/>
        <pt x="327" y="633" on="1"/>
        <pt x="310" y="633" on="0"/>
        <pt x="278" y="629" on="1"/>
        <pt x="275" y="605" on="0"/>
      </contour>
    </TTGlyph>
    <TTGlyph name="C" xMin="27" yMin="-15" xMax="602" yMax="720">
      <contour>
        <pt x="377" y="-15" on="1"/>
        <pt x="207" y="-15" on="0"/>
        <pt x="27" y="184" on="0"/>
        <pt x="27" y="520" on="0"/>
        <pt x="207" y="720" on="0"/>
        <pt x="377" y="720" on="1"/>
        <pt x="455" y="720" on="0"/>
        <pt x="593" y="686" on="1"/>
        <pt x="581" y="507" on="1"/>
        <pt x="504" y="511" on="1"/>
        <pt x="501" y="572" on="1"/>
        <pt x="501" y="582" on="0"/>
        <pt x="489" y="613" on="1"/>
        <pt x="425" y="627" on="0"/>
        <pt x="377" y="627" on="1"/>
        <pt x="290" y="627" on="0"/>
        <pt x="207" y="477" on="0"/>
        <pt x="207" y="229" on="0"/>
        <pt x="289" y="78" on="0"/>
        <pt x="376" y="78" on="1"/>
        <pt x="432" y="78" on="0"/>
        <pt x="500" y="93" on="1"/>
        <pt x="501" y="95" on="0"/>
        <pt x="509" y="118" on="0"/>
        <pt x="516" y="138" on="0"/>
        <pt x="516" y="142" on="1"/>
        <pt x="519" y="189" on="1"/>
        <pt x="594" y="191" on="1"/>
        <pt x="602" y="19" on="1"/>
        <pt x="464" y="-15" on="0"/>
      </contour>
    </TTGlyph>
    <TTGlyph name="Cacute" xMin="27" yMin="-15" xMax="602" yMax="898">
      <contour>
        <pt x="377" y="-15" on="1"/>
        <pt x="207" y="-15" on="0"/>
        <pt x="27" y="184" on="0"/>
        <pt x="27" y="520" on="0"/>
        <pt x="207" y="720" on="0"/>
        <pt x="377" y="720" on="1"/>
        <pt x="455" y="720" on="0"/>
        <pt x="593" y="686" on="1"/>
        <pt x="581" y="507" on="1"/>
        <pt x="504" y="511" on="1"/>
        <pt x="501" y="572" on="1"/>
        <pt x="501" y="582" on="0"/>
        <pt x="489" y="613" on="1"/>
        <pt x="425" y="627" on="0"/>
        <pt x="377" y="627" on="1"/>
        <pt x="290" y="627" on="0"/>
        <pt x="207" y="477" on="0"/>
        <pt x="207" y="229" on="0"/>
        <pt x="289" y="78" on="0"/>
        <pt x="376" y="78" on="1"/>
        <pt x="432" y="78" on="0"/>
        <pt x="500" y="93" on="1"/>
        <pt x="501" y="95" on="0"/>
        <pt x="509" y="118" on="0"/>
        <pt x="516" y="138" on="0"/>
        <pt x="516" y="142" on="1"/>
        <pt x="519" y="189" on="1"/>
        <pt x="594" y="191" on="1"/>
        <pt x="602" y="19" on="1"/>
        <pt x="464" y="-15" on="0"/>
      </contour>
      <contour>
        <pt x="478" y="898" on="1"/>
        <pt x="514" y="814" on="1"/>
        <pt x="371" y="774" on="0"/>
        <pt x="352" y="768" on="1"/>
        <pt x="278" y="730" on="1"/>
        <pt x="241" y="794" on="1"/>
      </contour>
    </TTGlyph>
    <TTGlyph name="Ccaron" xMin="27" yMin="-15" xMax="602" yMax="939">
      <contour>
        <pt x="377" y="-15" on="1"/>
        <pt x="207" y="-15" on="0"/>
        <pt x="27" y="184" on="0"/>
        <pt x="27" y="520" on="0"/>
        <pt x="207" y="720" on="0"/>
        <pt x="377" y="720" on="1"/>
        <pt x="455" y="720" on="0"/>
        <pt x="593" y="686" on="1"/>
        <pt x="581" y="507" on="1"/>
        <pt x="504" y="511" on="1"/>
        <pt x="501" y="572" on="1"/>
        <pt x="501" y="582" on="0"/>
        <pt x="489" y="613" on="1"/>
        <pt x="425" y="627" on="0"/>
        <pt x="377" y="627" on="1"/>
        <pt x="290" y="627" on="0"/>
        <pt x="207" y="477" on="0"/>
        <pt x="207" y="229" on="0"/>
        <pt x="289" y="78" on="0"/>
        <pt x="376" y="78" on="1"/>
        <pt x="432" y="78" on="0"/>
        <pt x="500" y="93" on="1"/>
        <pt x="501" y="95" on="0"/>
        <pt x="509" y="118" on="0"/>
        <pt x="516" y="138" on="0"/>
        <pt x="516" y="142" on="1"/>
        <pt x="519" y="189" on="1"/>
        <pt x="594" y="191" on="1"/>
        <pt x="602" y="19" on="1"/>
        <pt x="464" y="-15" on="0"/>
      </contour>
      <contour>
        <pt x="529" y="939" on="1"/>
        <pt x="576" y="881" on="1"/>
        <pt x="378" y="748" on="1"/>
        <pt x="180" y="881" on="1"/>
        <pt x="227" y="939" on="1"/>
        <pt x="294" y="890" on="1"/>
        <pt x="378" y="849" on="1"/>
        <pt x="462" y="890" on="1"/>
      </contour>
    </TTGlyph>
    <TTGlyph name="Ccedilla" xMin="27" yMin="-235" xMax="602" yMax="720">
      <contour>
        <pt x="442" y="-60" on="0"/>
        <pt x="498" y="-106" on="0"/>
        <pt x="498" y="-191" on="0"/>
        <pt x="435" y="-235" on="0"/>
        <pt x="326" y="-235" on="0"/>
        <pt x="288" y="-217" on="1"/>
        <pt x="306" y="-168" on="1"/>
        <pt x="341" y="-179" on="0"/>
        <pt x="361" y="-179" on="1"/>
        <pt x="408" y="-179" on="0"/>
        <pt x="408" y="-146" on="1"/>
        <pt x="408" y="-115" on="0"/>
        <pt x="366" y="-115" on="1"/>
        <pt x="345" y="-116" on="1"/>
        <pt x="334" y="-102" on="1"/>
        <pt x="342" y="-14" on="1"/>
        <pt x="189" y="-4" on="0"/>
        <pt x="27" y="193" on="0"/>
        <pt x="27" y="520" on="0"/>
        <pt x="207" y="720" on="0"/>
        <pt x="377" y="720" on="1"/>
        <pt x="455" y="720" on="0"/>
        <pt x="593" y="686" on="1"/>
        <pt x="581" y="507" on="1"/>
        <pt x="504" y="511" on="1"/>
        <pt x="501" y="572" on="1"/>
        <pt x="501" y="582" on="0"/>
        <pt x="489" y="613" on="1"/>
        <pt x="425" y="627" on="0"/>
        <pt x="377" y="627" on="1"/>
        <pt x="290" y="627" on="0"/>
        <pt x="207" y="477" on="0"/>
        <pt x="207" y="229" on="0"/>
        <pt x="289" y="78" on="0"/>
        <pt x="376" y="78" on="1"/>
        <pt x="432" y="78" on="0"/>
        <pt x="500" y="93" on="1"/>
        <pt x="501" y="95" on="0"/>
        <pt x="509" y="118" on="0"/>
        <pt x="516" y="138" on="0"/>
        <pt x="516" y="142" on="1"/>
        <pt x="519" y="189" on="1"/>
        <pt x="594" y="191" on="1"/>
        <pt x="602" y="19" on="1"/>
        <pt x="477" y="-11" on="0"/>
        <pt x="406" y="-14" on="1"/>
        <pt x="397" y="-59" on="1"/>
      </contour>
    </TTGlyph>
    <TTGlyph name="Ccircumflex" xMin="27" yMin="-15" xMax="602" yMax="948">
      <contour>
        <pt x="377" y="-15" on="1"/>
        <pt x="207" y="-15" on="0"/>
        <pt x="27" y="184" on="0"/>
        <pt x="27" y="520" on="0"/>
        <pt x="207" y="720" on="0"/>
        <pt x="377" y="720" on="1"/>
        <pt x="455" y="720" on="0"/>
        <pt x="593" y="686" on="1"/>
        <pt x="581" y="507" on="1"/>
        <pt x="504" y="511" on="1"/>
        <pt x="501" y="572" on="1"/>
        <pt x="501" y="582" on="0"/>
        <pt x="489" y="613" on="1"/>
        <pt x="425" y="627" on="0"/>
        <pt x="377" y="627" on="1"/>
        <pt x="290" y="627" on="0"/>
        <pt x="207" y="477" on="0"/>
        <pt x="207" y="229" on="0"/>
        <pt x="289" y="78" on="0"/>
        <pt x="376" y="78" on="1"/>
        <pt x="432" y="78" on="0"/>
        <pt x="500" y="93" on="1"/>
        <pt x="501" y="95" on="0"/>
        <pt x="509" y="118" on="0"/>
        <pt x="516" y="138" on="0"/>
        <pt x="516" y="142" on="1"/>
        <pt x="519" y="189" on="1"/>
        <pt x="594" y="191" on="1"/>
        <pt x="602" y="19" on="1"/>
        <pt x="464" y="-15" on="0"/>
      </contour>
      <contour>
        <pt x="378" y="948" on="1"/>
        <pt x="576" y="815" on="1"/>
        <pt x="529" y="757" on="1"/>
        <pt x="462" y="806" on="1"/>
        <pt x="378" y="847" on="1"/>
        <pt x="294" y="806" on="1"/>
        <pt x="227" y="757" on="1"/>
        <pt x="180" y="815" on="1"/>
      </contour>
    </TTGlyph>
    <TTGlyph name="Cdotaccent" xMin="27" yMin="-15" xMax="602" yMax="905">
      <contour>
        <pt x="377" y="-15" on="1"/>
        <pt x="207" y="-15" on="0"/>
        <pt x="27" y="184" on="0"/>
        <pt x="27" y="520" on="0"/>
        <pt x="207" y="720" on="0"/>
        <pt x="377" y="720" on="1"/>
        <pt x="455" y="720" on="0"/>
        <pt x="593" y="686" on="1"/>
        <pt x="581" y="507" on="1"/>
        <pt x="504" y="511" on="1"/>
        <pt x="501" y="572" on="1"/>
        <pt x="501" y="582" on="0"/>
        <pt x="489" y="613" on="1"/>
        <pt x="425" y="627" on="0"/>
        <pt x="377" y="627" on="1"/>
        <pt x="290" y="627" on="0"/>
        <pt x="207" y="477" on="0"/>
        <pt x="207" y="229" on="0"/>
        <pt x="289" y="78" on="0"/>
        <pt x="376" y="78" on="1"/>
        <pt x="432" y="78" on="0"/>
        <pt x="500" y="93" on="1"/>
        <pt x="501" y="95" on="0"/>
        <pt x="509" y="118" on="0"/>
        <pt x="516" y="138" on="0"/>
        <pt x="516" y="142" on="1"/>
        <pt x="519" y="189" on="1"/>
        <pt x="594" y="191" on="1"/>
        <pt x="602" y="19" on="1"/>
        <pt x="464" y="-15" on="0"/>
      </contour>
      <contour>
        <pt x="341" y="905" on="0"/>
        <pt x="415" y="905" on="0"/>
        <pt x="457" y="862" on="0"/>
        <pt x="457" y="789" on="0"/>
        <pt x="416" y="746" on="0"/>
        <pt x="340" y="746" on="0"/>
        <pt x="299" y="789" on="0"/>
        <pt x="299" y="861" on="0"/>
      </contour>
    </TTGlyph>
    <TTGlyph name="D" xMin="45" yMin="-6" xMax="712" yMax="715">
      <contour>
        <pt x="151" y="705" on="1"/>
        <pt x="360" y="715" on="1"/>
        <pt x="530" y="715" on="0"/>
        <pt x="712" y="518" on="0"/>
        <pt x="712" y="189" on="0"/>
        <pt x="530" y="-6" on="0"/>
        <pt x="360" y="-6" on="1"/>
        <pt x="360" y="-6" on="0"/>
        <pt x="150" y="0" on="1"/>
        <pt x="50" y="-5" on="1"/>
        <pt x="45" y="65" on="1"/>
        <pt x="111" y="77" on="1"/>
        <pt x="120" y="143" on="0"/>
        <pt x="120" y="163" on="1"/>
        <pt x="120" y="512" on="1"/>
        <pt x="120" y="564" on="0"/>
        <pt x="114" y="606" on="1"/>
        <pt x="111" y="623" on="1"/>
        <pt x="46" y="635" on="1"/>
        <pt x="51" y="710" on="1"/>
        <pt x="104" y="705" on="0"/>
      </contour>
      <contour>
        <pt x="346" y="632" on="1"/>
        <pt x="325" y="632" on="0"/>
        <pt x="279" y="624" on="1"/>
        <pt x="275" y="556" on="0"/>
        <pt x="275" y="542" on="1"/>
        <pt x="275" y="193" on="1"/>
        <pt x="275" y="128" on="0"/>
        <pt x="279" y="80" on="1"/>
        <pt x="312" y="77" on="0"/>
        <pt x="344" y="77" on="1"/>
        <pt x="450" y="77" on="0"/>
        <pt x="545" y="227" on="0"/>
        <pt x="545" y="354" on="1"/>
        <pt x="545" y="475" on="0"/>
        <pt x="501" y="550" on="1"/>
        <pt x="453" y="632" on="0"/>
      </contour>
    </TTGlyph>
    <TTGlyph name="Dcaron" xMin="45" yMin="-6" xMax="712" yMax="939">
      <contour>
        <pt x="151" y="705" on="1"/>
        <pt x="360" y="715" on="1"/>
        <pt x="530" y="715" on="0"/>
        <pt x="712" y="518" on="0"/>
        <pt x="712" y="189" on="0"/>
        <pt x="530" y="-6" on="0"/>
        <pt x="360" y="-6" on="1"/>
        <pt x="360" y="-6" on="0"/>
        <pt x="150" y="0" on="1"/>
        <pt x="50" y="-5" on="1"/>
        <pt x="45" y="65" on="1"/>
        <pt x="111" y="77" on="1"/>
        <pt x="120" y="143" on="0"/>
        <pt x="120" y="163" on="1"/>
        <pt x="120" y="512" on="1"/>
        <pt x="120" y="564" on="0"/>
        <pt x="114" y="606" on="1"/>
        <pt x="111" y="623" on="1"/>
        <pt x="46" y="635" on="1"/>
        <pt x="51" y="710" on="1"/>
        <pt x="104" y="705" on="0"/>
      </contour>
      <contour>
        <pt x="346" y="632" on="1"/>
        <pt x="325" y="632" on="0"/>
        <pt x="279" y="624" on="1"/>
        <pt x="275" y="556" on="0"/>
        <pt x="275" y="542" on="1"/>
        <pt x="275" y="193" on="1"/>
        <pt x="275" y="128" on="0"/>
        <pt x="279" y="80" on="1"/>
        <pt x="312" y="77" on="0"/>
        <pt x="344" y="77" on="1"/>
        <pt x="450" y="77" on="0"/>
        <pt x="545" y="227" on="0"/>
        <pt x="545" y="354" on="1"/>
        <pt x="545" y="475" on="0"/>
        <pt x="501" y="550" on="1"/>
        <pt x="453" y="632" on="0"/>
      </contour>
      <contour>
        <pt x="501" y="939" on="1"/>
        <pt x="548" y="881" on="1"/>
        <pt x="350" y="748" on="1"/>
        <pt x="152" y="881" on="1"/>
        <pt x="199" y="939" on="1"/>
        <pt x="266" y="890" on="1"/>
        <pt x="350" y="849" on="1"/>
        <pt x="434" y="890" on="1"/>
      </contour>
    </TTGlyph>
    <TTGlyph name="Dcroat" xMin="36" yMin="-6" xMax="703" yMax="715">
      <contour>
        <pt x="351" y="-6" on="1"/>
        <pt x="141" y="0" on="1"/>
        <pt x="41" y="-5" on="1"/>
        <pt x="36" y="65" on="1"/>
        <pt x="102" y="77" on="1"/>
        <pt x="111" y="143" on="0"/>
        <pt x="111" y="163" on="1"/>
        <pt x="111" y="322" on="1"/>
        <pt x="42" y="322" on="1"/>
        <pt x="42" y="395" on="1"/>
        <pt x="111" y="395" on="1"/>
        <pt x="111" y="512" on="1"/>
        <pt x="111" y="549" on="0"/>
        <pt x="104" y="606" on="1"/>
        <pt x="102" y="623" on="1"/>
        <pt x="37" y="635" on="1"/>
        <pt x="42" y="710" on="1"/>
        <pt x="95" y="705" on="0"/>
        <pt x="142" y="705" on="1"/>
        <pt x="351" y="715" on="1"/>
        <pt x="521" y="715" on="0"/>
        <pt x="703" y="518" on="0"/>
        <pt x="703" y="189" on="0"/>
        <pt x="521" y="-6" on="0"/>
      </contour>
      <contour>
        <pt x="266" y="322" on="1"/>
        <pt x="266" y="193" on="1"/>
        <pt x="266" y="128" on="0"/>
        <pt x="270" y="80" on="1"/>
        <pt x="303" y="77" on="0"/>
        <pt x="335" y="77" on="1"/>
        <pt x="441" y="77" on="0"/>
        <pt x="536" y="227" on="0"/>
        <pt x="536" y="354" on="1"/>
        <pt x="536" y="475" on="0"/>
        <pt x="492" y="550" on="1"/>
        <pt x="444" y="632" on="0"/>
        <pt x="337" y="632" on="1"/>
        <pt x="316" y="632" on="0"/>
        <pt x="270" y="624" on="1"/>
        <pt x="266" y="556" on="0"/>
        <pt x="266" y="542" on="1"/>
        <pt x="266" y="395" on="1"/>
        <pt x="364" y="395" on="1"/>
        <pt x="359" y="322" on="1"/>
      </contour>
    </TTGlyph>
    <TTGlyph name="Delta" xMin="22" yMin="0" xMax="658" yMax="716">
      <contour>
        <pt x="636" y="0" on="1"/>
        <pt x="49" y="0" on="1"/>
        <pt x="22" y="66" on="1"/>
        <pt x="91" y="205" on="1"/>
        <pt x="286" y="705" on="1"/>
        <pt x="390" y="716" on="1"/>
        <pt x="600" y="196" on="0"/>
        <pt x="608" y="174" on="1"/>
        <pt x="658" y="69" on="1"/>
      </contour>
      <contour>
        <pt x="179" y="81" on="1"/>
        <pt x="208" y="80" on="0"/>
        <pt x="273" y="80" on="0"/>
        <pt x="465" y="84" on="1"/>
        <pt x="451" y="156" on="0"/>
        <pt x="444" y="175" on="1"/>
        <pt x="318" y="491" on="1"/>
        <pt x="196" y="159" on="1"/>
        <pt x="189" y="131" on="0"/>
      </contour>
    </TTGlyph>
    <TTGlyph name="E" xMin="45" yMin="-5" xMax="581" yMax="715">
      <contour>
        <pt x="151" y="705" on="1"/>
        <pt x="419" y="705" on="1"/>
        <pt x="533" y="715" on="1"/>
        <pt x="552" y="697" on="1"/>
        <pt x="559" y="541" on="1"/>
        <pt x="487" y="536" on="1"/>
        <pt x="481" y="584" on="0"/>
        <pt x="475" y="608" on="0"/>
        <pt x="468" y="619" on="1"/>
        <pt x="428" y="623" on="0"/>
        <pt x="389" y="623" on="1"/>
        <pt x="279" y="623" on="1"/>
        <pt x="275" y="551" on="0"/>
        <pt x="275" y="542" on="1"/>
        <pt x="275" y="399" on="1"/>
        <pt x="285" y="398" on="0"/>
        <pt x="301" y="398" on="1"/>
        <pt x="357" y="398" on="1"/>
        <pt x="378" y="398" on="0"/>
        <pt x="401" y="407" on="1"/>
        <pt x="410" y="471" on="1"/>
        <pt x="472" y="466" on="1"/>
        <pt x="471" y="403" on="0"/>
        <pt x="471" y="383" on="1"/>
        <pt x="474" y="256" on="1"/>
        <pt x="410" y="250" on="1"/>
        <pt x="401" y="310" on="1"/>
        <pt x="357" y="316" on="0"/>
        <pt x="337" y="316" on="1"/>
        <pt x="306" y="316" on="1"/>
        <pt x="282" y="316" on="0"/>
        <pt x="275" y="315" on="1"/>
        <pt x="275" y="193" on="1"/>
        <pt x="275" y="147" on="0"/>
        <pt x="278" y="87" on="1"/>
        <pt x="403" y="87" on="1"/>
        <pt x="440" y="87" on="0"/>
        <pt x="480" y="95" on="1"/>
        <pt x="504" y="139" on="0"/>
        <pt x="511" y="195" on="1"/>
        <pt x="581" y="190" on="1"/>
        <pt x="566" y="14" on="1"/>
        <pt x="547" y="-4" on="1"/>
        <pt x="453" y="0" on="0"/>
        <pt x="433" y="0" on="1"/>
        <pt x="151" y="0" on="1"/>
        <pt x="50" y="-5" on="1"/>
        <pt x="45" y="65" on="1"/>
        <pt x="111" y="77" on="1"/>
        <pt x="120" y="107" on="0"/>
        <pt x="120" y="163" on="1"/>
        <pt x="120" y="512" on="1"/>
        <pt x="120" y="585" on="0"/>
        <pt x="111" y="623" on="1"/>
        <pt x="46" y="635" on="1"/>
        <pt x="51" y="710" on="1"/>
        <pt x="115" y="705" on="0"/>
      </contour>
    </TTGlyph>
    <TTGlyph name="Eacute" xMin="45" yMin="-5" xMax="581" yMax="898">
      <contour>
        <pt x="151" y="705" on="1"/>
        <pt x="419" y="705" on="1"/>
        <pt x="533" y="715" on="1"/>
        <pt x="552" y="697" on="1"/>
        <pt x="559" y="541" on="1"/>
        <pt x="487" y="536" on="1"/>
        <pt x="481" y="584" on="0"/>
        <pt x="475" y="608" on="0"/>
        <pt x="468" y="619" on="1"/>
        <pt x="428" y="623" on="0"/>
        <pt x="389" y="623" on="1"/>
        <pt x="279" y="623" on="1"/>
        <pt x="275" y="551" on="0"/>
        <pt x="275" y="542" on="1"/>
        <pt x="275" y="399" on="1"/>
        <pt x="285" y="398" on="0"/>
        <pt x="301" y="398" on="1"/>
        <pt x="357" y="398" on="1"/>
        <pt x="378" y="398" on="0"/>
        <pt x="401" y="407" on="1"/>
        <pt x="410" y="471" on="1"/>
        <pt x="472" y="466" on="1"/>
        <pt x="471" y="403" on="0"/>
        <pt x="471" y="383" on="1"/>
        <pt x="474" y="256" on="1"/>
        <pt x="410" y="250" on="1"/>
        <pt x="401" y="310" on="1"/>
        <pt x="357" y="316" on="0"/>
        <pt x="337" y="316" on="1"/>
        <pt x="306" y="316" on="1"/>
        <pt x="282" y="316" on="0"/>
        <pt x="275" y="315" on="1"/>
        <pt x="275" y="193" on="1"/>
        <pt x="275" y="147" on="0"/>
        <pt x="278" y="87" on="1"/>
        <pt x="403" y="87" on="1"/>
        <pt x="440" y="87" on="0"/>
        <pt x="480" y="95" on="1"/>
        <pt x="504" y="139" on="0"/>
        <pt x="511" y="195" on="1"/>
        <pt x="581" y="190" on="1"/>
        <pt x="566" y="14" on="1"/>
        <pt x="547" y="-4" on="1"/>
        <pt x="453" y="0" on="0"/>
        <pt x="433" y="0" on="1"/>
        <pt x="151" y="0" on="1"/>
        <pt x="50" y="-5" on="1"/>
        <pt x="45" y="65" on="1"/>
        <pt x="111" y="77" on="1"/>
        <pt x="120" y="107" on="0"/>
        <pt x="120" y="163" on="1"/>
        <pt x="120" y="512" on="1"/>
        <pt x="120" y="585" on="0"/>
        <pt x="111" y="623" on="1"/>
        <pt x="46" y="635" on="1"/>
        <pt x="51" y="710" on="1"/>
        <pt x="115" y="705" on="0"/>
      </contour>
      <contour>
        <pt x="425" y="898" on="1"/>
        <pt x="461" y="814" on="1"/>
        <pt x="318" y="774" on="0"/>
        <pt x="299" y="768" on="1"/>
        <pt x="225" y="730" on="1"/>
        <pt x="188" y="794" on="1"/>
      </contour>
    </TTGlyph>
    <TTGlyph name="Ebreve" xMin="45" yMin="-5" xMax="581" yMax="898">
      <contour>
        <pt x="151" y="705" on="1"/>
        <pt x="419" y="705" on="1"/>
        <pt x="533" y="715" on="1"/>
        <pt x="552" y="697" on="1"/>
        <pt x="559" y="541" on="1"/>
        <pt x="487" y="536" on="1"/>
        <pt x="481" y="584" on="0"/>
        <pt x="475" y="608" on="0"/>
        <pt x="468" y="619" on="1"/>
        <pt x="428" y="623" on="0"/>
        <pt x="389" y="623" on="1"/>
        <pt x="279" y="623" on="1"/>
        <pt x="275" y="551" on="0"/>
        <pt x="275" y="542" on="1"/>
        <pt x="275" y="399" on="1"/>
        <pt x="285" y="398" on="0"/>
        <pt x="301" y="398" on="1"/>
        <pt x="357" y="398" on="1"/>
        <pt x="378" y="398" on="0"/>
        <pt x="401" y="407" on="1"/>
        <pt x="410" y="471" on="1"/>
        <pt x="472" y="466" on="1"/>
        <pt x="471" y="403" on="0"/>
        <pt x="471" y="383" on="1"/>
        <pt x="474" y="256" on="1"/>
        <pt x="410" y="250" on="1"/>
        <pt x="401" y="310" on="1"/>
        <pt x="357" y="316" on="0"/>
        <pt x="337" y="316" on="1"/>
        <pt x="306" y="316" on="1"/>
        <pt x="282" y="316" on="0"/>
        <pt x="275" y="315" on="1"/>
        <pt x="275" y="193" on="1"/>
        <pt x="275" y="147" on="0"/>
        <pt x="278" y="87" on="1"/>
        <pt x="403" y="87" on="1"/>
        <pt x="440" y="87" on="0"/>
        <pt x="480" y="95" on="1"/>
        <pt x="504" y="139" on="0"/>
        <pt x="511" y="195" on="1"/>
        <pt x="581" y="190" on="1"/>
        <pt x="566" y="14" on="1"/>
        <pt x="547" y="-4" on="1"/>
        <pt x="453" y="0" on="0"/>
        <pt x="433" y="0" on="1"/>
        <pt x="151" y="0" on="1"/>
        <pt x="50" y="-5" on="1"/>
        <pt x="45" y="65" on="1"/>
        <pt x="111" y="77" on="1"/>
        <pt x="120" y="107" on="0"/>
        <pt x="120" y="163" on="1"/>
        <pt x="120" y="512" on="1"/>
        <pt x="120" y="585" on="0"/>
        <pt x="111" y="623" on="1"/>
        <pt x="46" y="635" on="1"/>
        <pt x="51" y="710" on="1"/>
        <pt x="115" y="705" on="0"/>
      </contour>
      <contour>
        <pt x="393" y="898" on="1"/>
        <pt x="459" y="898" on="1"/>
        <pt x="459" y="824" on="0"/>
        <pt x="376" y="743" on="0"/>
        <pt x="234" y="743" on="0"/>
        <pt x="151" y="824" on="0"/>
        <pt x="151" y="898" on="1"/>
        <pt x="217" y="898" on="1"/>
        <pt x="217" y="861" on="0"/>
        <pt x="266" y="819" on="0"/>
        <pt x="344" y="819" on="0"/>
        <pt x="393" y="861" on="0"/>
      </contour>
    </TTGlyph>
    <TTGlyph name="Ecaron" xMin="45" yMin="-5" xMax="581" yMax="929">
      <contour>
        <pt x="151" y="705" on="1"/>
        <pt x="419" y="705" on="1"/>
        <pt x="533" y="715" on="1"/>
        <pt x="552" y="697" on="1"/>
        <pt x="559" y="541" on="1"/>
        <pt x="487" y="536" on="1"/>
        <pt x="481" y="584" on="0"/>
        <pt x="475" y="608" on="0"/>
        <pt x="468" y="619" on="1"/>
        <pt x="428" y="623" on="0"/>
        <pt x="389" y="623" on="1"/>
        <pt x="279" y="623" on="1"/>
        <pt x="275" y="551" on="0"/>
        <pt x="275" y="542" on="1"/>
        <pt x="275" y="399" on="1"/>
        <pt x="285" y="398" on="0"/>
        <pt x="301" y="398" on="1"/>
        <pt x="357" y="398" on="1"/>
        <pt x="378" y="398" on="0"/>
        <pt x="401" y="407" on="1"/>
        <pt x="410" y="471" on="1"/>
        <pt x="472" y="466" on="1"/>
        <pt x="471" y="403" on="0"/>
        <pt x="471" y="383" on="1"/>
        <pt x="474" y="256" on="1"/>
        <pt x="410" y="250" on="1"/>
        <pt x="401" y="310" on="1"/>
        <pt x="357" y="316" on="0"/>
        <pt x="337" y="316" on="1"/>
        <pt x="306" y="316" on="1"/>
        <pt x="282" y="316" on="0"/>
        <pt x="275" y="315" on="1"/>
        <pt x="275" y="193" on="1"/>
        <pt x="275" y="147" on="0"/>
        <pt x="278" y="87" on="1"/>
        <pt x="403" y="87" on="1"/>
        <pt x="440" y="87" on="0"/>
        <pt x="480" y="95" on="1"/>
        <pt x="504" y="139" on="0"/>
        <pt x="511" y="195" on="1"/>
        <pt x="581" y="190" on="1"/>
        <pt x="566" y="14" on="1"/>
        <pt x="547" y="-4" on="1"/>
        <pt x="453" y="0" on="0"/>
        <pt x="433" y="0" on="1"/>
        <pt x="151" y="0" on="1"/>
        <pt x="50" y="-5" on="1"/>
        <pt x="45" y="65" on="1"/>
        <pt x="111" y="77" on="1"/>
        <pt x="120" y="107" on="0"/>
        <pt x="120" y="163" on="1"/>
        <pt x="120" y="512" on="1"/>
        <pt x="120" y="585" on="0"/>
        <pt x="111" y="623" on="1"/>
        <pt x="46" y="635" on="1"/>
        <pt x="51" y="710" on="1"/>
        <pt x="115" y="705" on="0"/>
      </contour>
      <contour>
        <pt x="459" y="929" on="1"/>
        <pt x="506" y="871" on="1"/>
        <pt x="308" y="738" on="1"/>
        <pt x="110" y="871" on="1"/>
        <pt x="157" y="929" on="1"/>
        <pt x="224" y="880" on="1"/>
        <pt x="308" y="839" on="1"/>
        <pt x="392" y="880" on="1"/>
      </contour>
    </TTGlyph>
    <TTGlyph name="Ecircumflex" xMin="45" yMin="-5" xMax="581" yMax="948">
      <contour>
        <pt x="151" y="705" on="1"/>
        <pt x="419" y="705" on="1"/>
        <pt x="533" y="715" on="1"/>
        <pt x="552" y="697" on="1"/>
        <pt x="559" y="541" on="1"/>
        <pt x="487" y="536" on="1"/>
        <pt x="481" y="584" on="0"/>
        <pt x="475" y="608" on="0"/>
        <pt x="468" y="619" on="1"/>
        <pt x="428" y="623" on="0"/>
        <pt x="389" y="623" on="1"/>
        <pt x="279" y="623" on="1"/>
        <pt x="275" y="551" on="0"/>
        <pt x="275" y="542" on="1"/>
        <pt x="275" y="399" on="1"/>
        <pt x="285" y="398" on="0"/>
        <pt x="301" y="398" on="1"/>
        <pt x="357" y="398" on="1"/>
        <pt x="378" y="398" on="0"/>
        <pt x="401" y="407" on="1"/>
        <pt x="410" y="471" on="1"/>
        <pt x="472" y="466" on="1"/>
        <pt x="471" y="403" on="0"/>
        <pt x="471" y="383" on="1"/>
        <pt x="474" y="256" on="1"/>
        <pt x="410" y="250" on="1"/>
        <pt x="401" y="310" on="1"/>
        <pt x="357" y="316" on="0"/>
        <pt x="337" y="316" on="1"/>
        <pt x="306" y="316" on="1"/>
        <pt x="282" y="316" on="0"/>
        <pt x="275" y="315" on="1"/>
        <pt x="275" y="193" on="1"/>
        <pt x="275" y="147" on="0"/>
        <pt x="278" y="87" on="1"/>
        <pt x="403" y="87" on="1"/>
        <pt x="440" y="87" on="0"/>
        <pt x="480" y="95" on="1"/>
        <pt x="504" y="139" on="0"/>
        <pt x="511" y="195" on="1"/>
        <pt x="581" y="190" on="1"/>
        <pt x="566" y="14" on="1"/>
        <pt x="547" y="-4" on="1"/>
        <pt x="453" y="0" on="0"/>
        <pt x="433" y="0" on="1"/>
        <pt x="151" y="0" on="1"/>
        <pt x="50" y="-5" on="1"/>
        <pt x="45" y="65" on="1"/>
        <pt x="111" y="77" on="1"/>
        <pt x="120" y="107" on="0"/>
        <pt x="120" y="163" on="1"/>
        <pt x="120" y="512" on="1"/>
        <pt x="120" y="585" on="0"/>
        <pt x="111" y="623" on="1"/>
        <pt x="46" y="635" on="1"/>
        <pt x="51" y="710" on="1"/>
        <pt x="115" y="705" on="0"/>
      </contour>
      <contour>
        <pt x="305" y="948" on="1"/>
        <pt x="503" y="815" on="1"/>
        <pt x="456" y="757" on="1"/>
        <pt x="389" y="806" on="1"/>
        <pt x="305" y="847" on="1"/>
        <pt x="221" y="806" on="1"/>
        <pt x="154" y="757" on="1"/>
        <pt x="107" y="815" on="1"/>
      </contour>
    </TTGlyph>
    <TTGlyph name="Edieresis" xMin="45" yMin="-5" xMax="581" yMax="896">
      <contour>
        <pt x="151" y="705" on="1"/>
        <pt x="419" y="705" on="1"/>
        <pt x="533" y="715" on="1"/>
        <pt x="552" y="697" on="1"/>
        <pt x="559" y="541" on="1"/>
        <pt x="487" y="536" on="1"/>
        <pt x="481" y="584" on="0"/>
        <pt x="475" y="608" on="0"/>
        <pt x="468" y="619" on="1"/>
        <pt x="428" y="623" on="0"/>
        <pt x="389" y="623" on="1"/>
        <pt x="279" y="623" on="1"/>
        <pt x="275" y="551" on="0"/>
        <pt x="275" y="542" on="1"/>
        <pt x="275" y="399" on="1"/>
        <pt x="285" y="398" on="0"/>
        <pt x="301" y="398" on="1"/>
        <pt x="357" y="398" on="1"/>
        <pt x="378" y="398" on="0"/>
        <pt x="401" y="407" on="1"/>
        <pt x="410" y="471" on="1"/>
        <pt x="472" y="466" on="1"/>
        <pt x="471" y="403" on="0"/>
        <pt x="471" y="383" on="1"/>
        <pt x="474" y="256" on="1"/>
        <pt x="410" y="250" on="1"/>
        <pt x="401" y="310" on="1"/>
        <pt x="357" y="316" on="0"/>
        <pt x="337" y="316" on="1"/>
        <pt x="306" y="316" on="1"/>
        <pt x="282" y="316" on="0"/>
        <pt x="275" y="315" on="1"/>
        <pt x="275" y="193" on="1"/>
        <pt x="275" y="147" on="0"/>
        <pt x="278" y="87" on="1"/>
        <pt x="403" y="87" on="1"/>
        <pt x="440" y="87" on="0"/>
        <pt x="480" y="95" on="1"/>
        <pt x="504" y="139" on="0"/>
        <pt x="511" y="195" on="1"/>
        <pt x="581" y="190" on="1"/>
        <pt x="566" y="14" on="1"/>
        <pt x="547" y="-4" on="1"/>
        <pt x="453" y="0" on="0"/>
        <pt x="433" y="0" on="1"/>
        <pt x="151" y="0" on="1"/>
        <pt x="50" y="-5" on="1"/>
        <pt x="45" y="65" on="1"/>
        <pt x="111" y="77" on="1"/>
        <pt x="120" y="107" on="0"/>
        <pt x="120" y="163" on="1"/>
        <pt x="120" y="512" on="1"/>
        <pt x="120" y="585" on="0"/>
        <pt x="111" y="623" on="1"/>
        <pt x="46" y="635" on="1"/>
        <pt x="51" y="710" on="1"/>
        <pt x="115" y="705" on="0"/>
      </contour>
      <contour>
        <pt x="155" y="896" on="0"/>
        <pt x="219" y="896" on="0"/>
        <pt x="254" y="859" on="0"/>
        <pt x="254" y="794" on="0"/>
        <pt x="219" y="757" on="0"/>
        <pt x="155" y="757" on="0"/>
        <pt x="119" y="795" on="0"/>
        <pt x="119" y="858" on="0"/>
      </contour>
      <contour>
        <pt x="392" y="896" on="0"/>
        <pt x="456" y="896" on="0"/>
        <pt x="491" y="859" on="0"/>
        <pt x="491" y="794" on="0"/>
        <pt x="456" y="757" on="0"/>
        <pt x="392" y="757" on="0"/>
        <pt x="357" y="794" on="0"/>
        <pt x="357" y="858" on="0"/>
      </contour>
    </TTGlyph>
    <TTGlyph name="Edotaccent" xMin="45" yMin="-5" xMax="581" yMax="905">
      <contour>
        <pt x="151" y="705" on="1"/>
        <pt x="419" y="705" on="1"/>
        <pt x="533" y="715" on="1"/>
        <pt x="552" y="697" on="1"/>
        <pt x="559" y="541" on="1"/>
        <pt x="487" y="536" on="1"/>
        <pt x="481" y="584" on="0"/>
        <pt x="475" y="608" on="0"/>
        <pt x="468" y="619" on="1"/>
        <pt x="428" y="623" on="0"/>
        <pt x="389" y="623" on="1"/>
        <pt x="279" y="623" on="1"/>
        <pt x="275" y="551" on="0"/>
        <pt x="275" y="542" on="1"/>
        <pt x="275" y="399" on="1"/>
        <pt x="285" y="398" on="0"/>
        <pt x="301" y="398" on="1"/>
        <pt x="357" y="398" on="1"/>
        <pt x="378" y="398" on="0"/>
        <pt x="401" y="407" on="1"/>
        <pt x="410" y="471" on="1"/>
        <pt x="472" y="466" on="1"/>
        <pt x="471" y="403" on="0"/>
        <pt x="471" y="383" on="1"/>
        <pt x="474" y="256" on="1"/>
        <pt x="410" y="250" on="1"/>
        <pt x="401" y="310" on="1"/>
        <pt x="357" y="316" on="0"/>
        <pt x="337" y="316" on="1"/>
        <pt x="306" y="316" on="1"/>
        <pt x="282" y="316" on="0"/>
        <pt x="275" y="315" on="1"/>
        <pt x="275" y="193" on="1"/>
        <pt x="275" y="147" on="0"/>
        <pt x="278" y="87" on="1"/>
        <pt x="403" y="87" on="1"/>
        <pt x="440" y="87" on="0"/>
        <pt x="480" y="95" on="1"/>
        <pt x="504" y="139" on="0"/>
        <pt x="511" y="195" on="1"/>
        <pt x="581" y="190" on="1"/>
        <pt x="566" y="14" on="1"/>
        <pt x="547" y="-4" on="1"/>
        <pt x="453" y="0" on="0"/>
        <pt x="433" y="0" on="1"/>
        <pt x="151" y="0" on="1"/>
        <pt x="50" y="-5" on="1"/>
        <pt x="45" y="65" on="1"/>
        <pt x="111" y="77" on="1"/>
        <pt x="120" y="107" on="0"/>
        <pt x="120" y="163" on="1"/>
        <pt x="120" y="512" on="1"/>
        <pt x="120" y="585" on="0"/>
        <pt x="111" y="623" on="1"/>
        <pt x="46" y="635" on="1"/>
        <pt x="51" y="710" on="1"/>
        <pt x="115" y="705" on="0"/>
      </contour>
      <contour>
        <pt x="271" y="905" on="0"/>
        <pt x="345" y="905" on="0"/>
        <pt x="387" y="862" on="0"/>
        <pt x="387" y="789" on="0"/>
        <pt x="346" y="746" on="0"/>
        <pt x="270" y="746" on="0"/>
        <pt x="229" y="789" on="0"/>
        <pt x="229" y="861" on="0"/>
      </contour>
    </TTGlyph>
    <TTGlyph name="Egrave" xMin="45" yMin="-5" xMax="581" yMax="908">
      <contour>
        <pt x="151" y="705" on="1"/>
        <pt x="419" y="705" on="1"/>
        <pt x="533" y="715" on="1"/>
        <pt x="552" y="697" on="1"/>
        <pt x="559" y="541" on="1"/>
        <pt x="487" y="536" on="1"/>
        <pt x="481" y="584" on="0"/>
        <pt x="475" y="608" on="0"/>
        <pt x="468" y="619" on="1"/>
        <pt x="428" y="623" on="0"/>
        <pt x="389" y="623" on="1"/>
        <pt x="279" y="623" on="1"/>
        <pt x="275" y="551" on="0"/>
        <pt x="275" y="542" on="1"/>
        <pt x="275" y="399" on="1"/>
        <pt x="285" y="398" on="0"/>
        <pt x="301" y="398" on="1"/>
        <pt x="357" y="398" on="1"/>
        <pt x="378" y="398" on="0"/>
        <pt x="401" y="407" on="1"/>
        <pt x="410" y="471" on="1"/>
        <pt x="472" y="466" on="1"/>
        <pt x="471" y="403" on="0"/>
        <pt x="471" y="383" on="1"/>
        <pt x="474" y="256" on="1"/>
        <pt x="410" y="250" on="1"/>
        <pt x="401" y="310" on="1"/>
        <pt x="357" y="316" on="0"/>
        <pt x="337" y="316" on="1"/>
        <pt x="306" y="316" on="1"/>
        <pt x="282" y="316" on="0"/>
        <pt x="275" y="315" on="1"/>
        <pt x="275" y="193" on="1"/>
        <pt x="275" y="147" on="0"/>
        <pt x="278" y="87" on="1"/>
        <pt x="403" y="87" on="1"/>
        <pt x="440" y="87" on="0"/>
        <pt x="480" y="95" on="1"/>
        <pt x="504" y="139" on="0"/>
        <pt x="511" y="195" on="1"/>
        <pt x="581" y="190" on="1"/>
        <pt x="566" y="14" on="1"/>
        <pt x="547" y="-4" on="1"/>
        <pt x="453" y="0" on="0"/>
        <pt x="433" y="0" on="1"/>
        <pt x="151" y="0" on="1"/>
        <pt x="50" y="-5" on="1"/>
        <pt x="45" y="65" on="1"/>
        <pt x="111" y="77" on="1"/>
        <pt x="120" y="107" on="0"/>
        <pt x="120" y="163" on="1"/>
        <pt x="120" y="512" on="1"/>
        <pt x="120" y="585" on="0"/>
        <pt x="111" y="623" on="1"/>
        <pt x="46" y="635" on="1"/>
        <pt x="51" y="710" on="1"/>
        <pt x="115" y="705" on="0"/>
      </contour>
      <contour>
        <pt x="421" y="804" on="1"/>
        <pt x="384" y="740" on="1"/>
        <pt x="310" y="778" on="1"/>
        <pt x="148" y="824" on="1"/>
        <pt x="184" y="908" on="1"/>
      </contour>
    </TTGlyph>
    <TTGlyph name="Emacron" xMin="45" yMin="-5" xMax="581" yMax="844">
      <contour>
        <pt x="151" y="705" on="1"/>
        <pt x="419" y="705" on="1"/>
        <pt x="533" y="715" on="1"/>
        <pt x="552" y="697" on="1"/>
        <pt x="559" y="541" on="1"/>
        <pt x="487" y="536" on="1"/>
        <pt x="481" y="584" on="0"/>
        <pt x="475" y="608" on="0"/>
        <pt x="468" y="619" on="1"/>
        <pt x="428" y="623" on="0"/>
        <pt x="389" y="623" on="1"/>
        <pt x="279" y="623" on="1"/>
        <pt x="275" y="551" on="0"/>
        <pt x="275" y="542" on="1"/>
        <pt x="275" y="399" on="1"/>
        <pt x="285" y="398" on="0"/>
        <pt x="301" y="398" on="1"/>
        <pt x="357" y="398" on="1"/>
        <pt x="378" y="398" on="0"/>
        <pt x="401" y="407" on="1"/>
        <pt x="410" y="471" on="1"/>
        <pt x="472" y="466" on="1"/>
        <pt x="471" y="403" on="0"/>
        <pt x="471" y="383" on="1"/>
        <pt x="474" y="256" on="1"/>
        <pt x="410" y="250" on="1"/>
        <pt x="401" y="310" on="1"/>
        <pt x="357" y="316" on="0"/>
        <pt x="337" y="316" on="1"/>
        <pt x="306" y="316" on="1"/>
        <pt x="282" y="316" on="0"/>
        <pt x="275" y="315" on="1"/>
        <pt x="275" y="193" on="1"/>
        <pt x="275" y="147" on="0"/>
        <pt x="278" y="87" on="1"/>
        <pt x="403" y="87" on="1"/>
        <pt x="440" y="87" on="0"/>
        <pt x="480" y="95" on="1"/>
        <pt x="504" y="139" on="0"/>
        <pt x="511" y="195" on="1"/>
        <pt x="581" y="190" on="1"/>
        <pt x="566" y="14" on="1"/>
        <pt x="547" y="-4" on="1"/>
        <pt x="453" y="0" on="0"/>
        <pt x="433" y="0" on="1"/>
        <pt x="151" y="0" on="1"/>
        <pt x="50" y="-5" on="1"/>
        <pt x="45" y="65" on="1"/>
        <pt x="111" y="77" on="1"/>
        <pt x="120" y="107" on="0"/>
        <pt x="120" y="163" on="1"/>
        <pt x="120" y="512" on="1"/>
        <pt x="120" y="585" on="0"/>
        <pt x="111" y="623" on="1"/>
        <pt x="46" y="635" on="1"/>
        <pt x="51" y="710" on="1"/>
        <pt x="115" y="705" on="0"/>
      </contour>
      <contour>
        <pt x="147" y="771" on="1"/>
        <pt x="147" y="844" on="1"/>
        <pt x="469" y="844" on="1"/>
        <pt x="462" y="771" on="1"/>
      </contour>
    </TTGlyph>
    <TTGlyph name="Eng" xMin="45" yMin="-200" xMax="782" yMax="710">
      <contour>
        <pt x="707" y="542" on="1"/>
        <pt x="707" y="0" on="1"/>
        <pt x="712" y="-38" on="0"/>
        <pt x="550" y="-200" on="1"/>
        <pt x="496" y="-169" on="1"/>
        <pt x="568" y="-19" on="0"/>
        <pt x="572" y="0" on="1"/>
        <pt x="247" y="450" on="1"/>
        <pt x="247" y="193" on="1"/>
        <pt x="247" y="167" on="0"/>
        <pt x="256" y="77" on="1"/>
        <pt x="321" y="71" on="1"/>
        <pt x="316" y="-5" on="1"/>
        <pt x="263" y="0" on="0"/>
        <pt x="150" y="0" on="1"/>
        <pt x="50" y="-5" on="1"/>
        <pt x="45" y="65" on="1"/>
        <pt x="111" y="77" on="1"/>
        <pt x="120" y="126" on="0"/>
        <pt x="120" y="163" on="1"/>
        <pt x="120" y="512" on="1"/>
        <pt x="120" y="574" on="0"/>
        <pt x="111" y="623" on="1"/>
        <pt x="46" y="635" on="1"/>
        <pt x="51" y="710" on="1"/>
        <pt x="104" y="705" on="0"/>
        <pt x="151" y="705" on="1"/>
        <pt x="253" y="705" on="1"/>
        <pt x="272" y="685" on="1"/>
        <pt x="345" y="559" on="0"/>
        <pt x="360" y="537" on="1"/>
        <pt x="580" y="230" on="1"/>
        <pt x="580" y="512" on="1"/>
        <pt x="580" y="551" on="0"/>
        <pt x="571" y="623" on="1"/>
        <pt x="506" y="635" on="1"/>
        <pt x="511" y="710" on="1"/>
        <pt x="611" y="705" on="1"/>
        <pt x="777" y="710" on="1"/>
        <pt x="782" y="629" on="1"/>
        <pt x="716" y="623" on="1"/>
        <pt x="707" y="569" on="0"/>
      </contour>
    </TTGlyph>
    <TTGlyph name="Eogonek" xMin="45" yMin="-197" xMax="581" yMax="715">
      <contour>
        <pt x="151" y="705" on="1"/>
        <pt x="419" y="705" on="1"/>
        <pt x="533" y="715" on="1"/>
        <pt x="552" y="697" on="1"/>
        <pt x="559" y="541" on="1"/>
        <pt x="487" y="536" on="1"/>
        <pt x="481" y="584" on="0"/>
        <pt x="475" y="608" on="0"/>
        <pt x="468" y="619" on="1"/>
        <pt x="428" y="623" on="0"/>
        <pt x="389" y="623" on="1"/>
        <pt x="279" y="623" on="1"/>
        <pt x="275" y="551" on="0"/>
        <pt x="275" y="542" on="1"/>
        <pt x="275" y="399" on="1"/>
        <pt x="285" y="398" on="0"/>
        <pt x="301" y="398" on="1"/>
        <pt x="357" y="398" on="1"/>
        <pt x="378" y="398" on="0"/>
        <pt x="401" y="407" on="1"/>
        <pt x="410" y="471" on="1"/>
        <pt x="472" y="466" on="1"/>
        <pt x="471" y="403" on="0"/>
        <pt x="471" y="383" on="1"/>
        <pt x="474" y="256" on="1"/>
        <pt x="410" y="250" on="1"/>
        <pt x="401" y="310" on="1"/>
        <pt x="357" y="316" on="0"/>
        <pt x="337" y="316" on="1"/>
        <pt x="306" y="316" on="1"/>
        <pt x="282" y="316" on="0"/>
        <pt x="275" y="315" on="1"/>
        <pt x="275" y="193" on="1"/>
        <pt x="275" y="147" on="0"/>
        <pt x="278" y="87" on="1"/>
        <pt x="403" y="87" on="1"/>
        <pt x="440" y="87" on="0"/>
        <pt x="480" y="95" on="1"/>
        <pt x="504" y="139" on="0"/>
        <pt x="511" y="195" on="1"/>
        <pt x="581" y="190" on="1"/>
        <pt x="566" y="14" on="1"/>
        <pt x="547" y="-4" on="1"/>
        <pt x="535" y="-3" on="0"/>
        <pt x="491" y="-3" on="0"/>
        <pt x="422" y="-42" on="0"/>
        <pt x="422" y="-85" on="1"/>
        <pt x="422" y="-106" on="0"/>
        <pt x="445" y="-133" on="0"/>
        <pt x="483" y="-133" on="0"/>
        <pt x="501" y="-126" on="1"/>
        <pt x="519" y="-174" on="1"/>
        <pt x="473" y="-197" on="0"/>
        <pt x="374" y="-197" on="0"/>
        <pt x="315" y="-152" on="0"/>
        <pt x="315" y="-108" on="1"/>
        <pt x="315" y="-76" on="0"/>
        <pt x="341" y="-42" on="0"/>
        <pt x="351" y="-30" on="0"/>
        <pt x="382" y="-3" on="0"/>
        <pt x="385" y="0" on="1"/>
        <pt x="151" y="0" on="1"/>
        <pt x="50" y="-5" on="1"/>
        <pt x="45" y="65" on="1"/>
        <pt x="111" y="77" on="1"/>
        <pt x="120" y="107" on="0"/>
        <pt x="120" y="163" on="1"/>
        <pt x="120" y="512" on="1"/>
        <pt x="120" y="585" on="0"/>
        <pt x="111" y="623" on="1"/>
        <pt x="46" y="635" on="1"/>
        <pt x="51" y="710" on="1"/>
        <pt x="115" y="705" on="0"/>
      </contour>
    </TTGlyph>
    <TTGlyph name="Eth" xMin="36" yMin="-6" xMax="703" yMax="715">
      <contour>
        <pt x="351" y="-6" on="1"/>
        <pt x="141" y="0" on="1"/>
        <pt x="41" y="-5" on="1"/>
        <pt x="36" y="65" on="1"/>
        <pt x="102" y="77" on="1"/>
        <pt x="111" y="143" on="0"/>
        <pt x="111" y="163" on="1"/>
        <pt x="111" y="322" on="1"/>
        <pt x="42" y="322" on="1"/>
        <pt x="42" y="395" on="1"/>
        <pt x="111" y="395" on="1"/>
        <pt x="111" y="512" on="1"/>
        <pt x="111" y="549" on="0"/>
        <pt x="104" y="606" on="1"/>
        <pt x="102" y="623" on="1"/>
        <pt x="37" y="635" on="1"/>
        <pt x="42" y="710" on="1"/>
        <pt x="95" y="705" on="0"/>
        <pt x="142" y="705" on="1"/>
        <pt x="351" y="715" on="1"/>
        <pt x="521" y="715" on="0"/>
        <pt x="703" y="518" on="0"/>
        <pt x="703" y="189" on="0"/>
        <pt x="521" y="-6" on="0"/>
      </contour>
      <contour>
        <pt x="266" y="322" on="1"/>
        <pt x="266" y="193" on="1"/>
        <pt x="266" y="128" on="0"/>
        <pt x="270" y="80" on="1"/>
        <pt x="303" y="77" on="0"/>
        <pt x="335" y="77" on="1"/>
        <pt x="441" y="77" on="0"/>
        <pt x="536" y="227" on="0"/>
        <pt x="536" y="354" on="1"/>
        <pt x="536" y="475" on="0"/>
        <pt x="492" y="550" on="1"/>
        <pt x="444" y="632" on="0"/>
        <pt x="337" y="632" on="1"/>
        <pt x="316" y="632" on="0"/>
        <pt x="270" y="624" on="1"/>
        <pt x="266" y="556" on="0"/>
        <pt x="266" y="542" on="1"/>
        <pt x="266" y="395" on="1"/>
        <pt x="364" y="395" on="1"/>
        <pt x="359" y="322" on="1"/>
      </contour>
    </TTGlyph>
    <TTGlyph name="Etilde" xMin="45" yMin="-5" xMax="581" yMax="883">
      <contour>
        <pt x="151" y="705" on="1"/>
        <pt x="419" y="705" on="1"/>
        <pt x="533" y="715" on="1"/>
        <pt x="552" y="697" on="1"/>
        <pt x="559" y="541" on="1"/>
        <pt x="487" y="536" on="1"/>
        <pt x="481" y="584" on="0"/>
        <pt x="475" y="608" on="0"/>
        <pt x="468" y="619" on="1"/>
        <pt x="428" y="623" on="0"/>
        <pt x="389" y="623" on="1"/>
        <pt x="279" y="623" on="1"/>
        <pt x="275" y="551" on="0"/>
        <pt x="275" y="542" on="1"/>
        <pt x="275" y="399" on="1"/>
        <pt x="285" y="398" on="0"/>
        <pt x="301" y="398" on="1"/>
        <pt x="357" y="398" on="1"/>
        <pt x="378" y="398" on="0"/>
        <pt x="401" y="407" on="1"/>
        <pt x="410" y="471" on="1"/>
        <pt x="472" y="466" on="1"/>
        <pt x="471" y="403" on="0"/>
        <pt x="471" y="383" on="1"/>
        <pt x="474" y="256" on="1"/>
        <pt x="410" y="250" on="1"/>
        <pt x="401" y="310" on="1"/>
        <pt x="357" y="316" on="0"/>
        <pt x="337" y="316" on="1"/>
        <pt x="306" y="316" on="1"/>
        <pt x="282" y="316" on="0"/>
        <pt x="275" y="315" on="1"/>
        <pt x="275" y="193" on="1"/>
        <pt x="275" y="147" on="0"/>
        <pt x="278" y="87" on="1"/>
        <pt x="403" y="87" on="1"/>
        <pt x="440" y="87" on="0"/>
        <pt x="480" y="95" on="1"/>
        <pt x="504" y="139" on="0"/>
        <pt x="511" y="195" on="1"/>
        <pt x="581" y="190" on="1"/>
        <pt x="566" y="14" on="1"/>
        <pt x="547" y="-4" on="1"/>
        <pt x="453" y="0" on="0"/>
        <pt x="433" y="0" on="1"/>
        <pt x="151" y="0" on="1"/>
        <pt x="50" y="-5" on="1"/>
        <pt x="45" y="65" on="1"/>
        <pt x="111" y="77" on="1"/>
        <pt x="120" y="107" on="0"/>
        <pt x="120" y="163" on="1"/>
        <pt x="120" y="512" on="1"/>
        <pt x="120" y="585" on="0"/>
        <pt x="111" y="623" on="1"/>
        <pt x="46" y="635" on="1"/>
        <pt x="51" y="710" on="1"/>
        <pt x="115" y="705" on="0"/>
      </contour>
      <contour>
        <pt x="486" y="810" on="0"/>
        <pt x="439" y="754" on="0"/>
        <pt x="398" y="754" on="0"/>
        <pt x="256" y="792" on="0"/>
        <pt x="240" y="792" on="1"/>
        <pt x="214" y="792" on="0"/>
        <pt x="193" y="760" on="1"/>
        <pt x="186" y="750" on="1"/>
        <pt x="139" y="778" on="1"/>
        <pt x="155" y="816" on="0"/>
        <pt x="209" y="883" on="0"/>
        <pt x="249" y="883" on="0"/>
        <pt x="392" y="845" on="0"/>
        <pt x="408" y="845" on="1"/>
        <pt x="435" y="845" on="0"/>
        <pt x="453" y="874" on="1"/>
        <pt x="459" y="883" on="1"/>
        <pt x="508" y="855" on="1"/>
        <pt x="503" y="844" on="0"/>
      </contour>
    </TTGlyph>
    <TTGlyph name="Euro" xMin="35" yMin="-15" xMax="664" yMax="667">
      <contour>
        <pt x="128" y="291" on="1"/>
        <pt x="127" y="325" on="1"/>
        <pt x="127" y="332" on="1"/>
        <pt x="37" y="328" on="1"/>
        <pt x="35" y="393" on="1"/>
        <pt x="132" y="397" on="1"/>
        <pt x="151" y="522" on="0"/>
        <pt x="313" y="667" on="0"/>
        <pt x="449" y="667" on="1"/>
        <pt x="527" y="667" on="0"/>
        <pt x="655" y="634" on="1"/>
        <pt x="643" y="481" on="1"/>
        <pt x="571" y="484" on="1"/>
        <pt x="568" y="529" on="1"/>
        <pt x="568" y="535" on="0"/>
        <pt x="557" y="568" on="1"/>
        <pt x="499" y="578" on="0"/>
        <pt x="454" y="578" on="1"/>
        <pt x="389" y="578" on="0"/>
        <pt x="314" y="485" on="0"/>
        <pt x="302" y="405" on="1"/>
        <pt x="445" y="411" on="1"/>
        <pt x="447" y="347" on="1"/>
        <pt x="297" y="340" on="1"/>
        <pt x="297" y="326" on="1"/>
        <pt x="297" y="307" on="0"/>
        <pt x="298" y="298" on="1"/>
        <pt x="450" y="305" on="1"/>
        <pt x="452" y="241" on="1"/>
        <pt x="304" y="234" on="1"/>
        <pt x="333" y="74" on="0"/>
        <pt x="453" y="74" on="1"/>
        <pt x="507" y="74" on="0"/>
        <pt x="567" y="85" on="1"/>
        <pt x="583" y="122" on="0"/>
        <pt x="583" y="132" on="1"/>
        <pt x="586" y="176" on="1"/>
        <pt x="656" y="177" on="1"/>
        <pt x="664" y="18" on="1"/>
        <pt x="534" y="-15" on="0"/>
        <pt x="449" y="-15" on="1"/>
        <pt x="320" y="-15" on="0"/>
        <pt x="161" y="113" on="0"/>
        <pt x="137" y="226" on="1"/>
        <pt x="42" y="222" on="1"/>
        <pt x="40" y="287" on="1"/>
      </contour>
    </TTGlyph>
    <TTGlyph name="F" xMin="45" yMin="-5" xMax="559" yMax="715">
      <contour>
        <pt x="389" y="623" on="1"/>
        <pt x="279" y="623" on="1"/>
        <pt x="275" y="551" on="0"/>
        <pt x="275" y="542" on="1"/>
        <pt x="275" y="388" on="1"/>
        <pt x="286" y="387" on="0"/>
        <pt x="299" y="387" on="1"/>
        <pt x="357" y="387" on="1"/>
        <pt x="372" y="387" on="0"/>
        <pt x="401" y="396" on="1"/>
        <pt x="410" y="460" on="1"/>
        <pt x="472" y="455" on="1"/>
        <pt x="471" y="392" on="0"/>
        <pt x="471" y="372" on="1"/>
        <pt x="474" y="245" on="1"/>
        <pt x="410" y="239" on="1"/>
        <pt x="401" y="299" on="1"/>
        <pt x="357" y="305" on="0"/>
        <pt x="337" y="305" on="1"/>
        <pt x="300" y="305" on="1"/>
        <pt x="283" y="305" on="0"/>
        <pt x="275" y="304" on="1"/>
        <pt x="275" y="190" on="1"/>
        <pt x="275" y="115" on="0"/>
        <pt x="284" y="77" on="1"/>
        <pt x="379" y="71" on="1"/>
        <pt x="374" y="-5" on="1"/>
        <pt x="263" y="0" on="0"/>
        <pt x="150" y="0" on="1"/>
        <pt x="50" y="-5" on="1"/>
        <pt x="45" y="65" on="1"/>
        <pt x="111" y="77" on="1"/>
        <pt x="120" y="107" on="0"/>
        <pt x="120" y="163" on="1"/>
        <pt x="120" y="512" on="1"/>
        <pt x="120" y="592" on="0"/>
        <pt x="111" y="623" on="1"/>
        <pt x="46" y="635" on="1"/>
        <pt x="51" y="710" on="1"/>
        <pt x="104" y="705" on="0"/>
        <pt x="151" y="705" on="1"/>
        <pt x="419" y="705" on="1"/>
        <pt x="533" y="715" on="1"/>
        <pt x="552" y="697" on="1"/>
        <pt x="559" y="541" on="1"/>
        <pt x="487" y="536" on="1"/>
        <pt x="481" y="584" on="0"/>
        <pt x="478" y="596" on="0"/>
        <pt x="469" y="618" on="1"/>
        <pt x="419" y="623" on="0"/>
      </contour>
    </TTGlyph>
    <TTGlyph name="G" xMin="27" yMin="-15" xMax="641" yMax="720">
      <contour>
        <pt x="394" y="720" on="1"/>
        <pt x="476" y="720" on="0"/>
        <pt x="623" y="686" on="1"/>
        <pt x="610" y="521" on="1"/>
        <pt x="531" y="525" on="1"/>
        <pt x="528" y="572" on="1"/>
        <pt x="528" y="582" on="0"/>
        <pt x="516" y="613" on="1"/>
        <pt x="448" y="627" on="0"/>
        <pt x="394" y="627" on="1"/>
        <pt x="299" y="627" on="0"/>
        <pt x="207" y="476" on="0"/>
        <pt x="207" y="229" on="0"/>
        <pt x="298" y="78" on="0"/>
        <pt x="393" y="78" on="1"/>
        <pt x="438" y="78" on="0"/>
        <pt x="491" y="86" on="1"/>
        <pt x="498" y="117" on="0"/>
        <pt x="498" y="128" on="1"/>
        <pt x="498" y="196" on="1"/>
        <pt x="488" y="257" on="1"/>
        <pt x="382" y="265" on="1"/>
        <pt x="387" y="363" on="1"/>
        <pt x="498" y="363" on="1"/>
        <pt x="613" y="366" on="1"/>
        <pt x="641" y="341" on="1"/>
        <pt x="632" y="246" on="0"/>
        <pt x="632" y="196" on="1"/>
        <pt x="632" y="19" on="1"/>
        <pt x="485" y="-15" on="0"/>
        <pt x="394" y="-15" on="1"/>
        <pt x="216" y="-15" on="0"/>
        <pt x="27" y="184" on="0"/>
        <pt x="27" y="520" on="0"/>
        <pt x="216" y="720" on="0"/>
      </contour>
    </TTGlyph>
    <TTGlyph name="Gbreve" xMin="27" yMin="-15" xMax="641" yMax="898">
      <contour>
        <pt x="394" y="720" on="1"/>
        <pt x="476" y="720" on="0"/>
        <pt x="623" y="686" on="1"/>
        <pt x="610" y="521" on="1"/>
        <pt x="531" y="525" on="1"/>
        <pt x="528" y="572" on="1"/>
        <pt x="528" y="582" on="0"/>
        <pt x="516" y="613" on="1"/>
        <pt x="448" y="627" on="0"/>
        <pt x="394" y="627" on="1"/>
        <pt x="299" y="627" on="0"/>
        <pt x="207" y="476" on="0"/>
        <pt x="207" y="229" on="0"/>
        <pt x="298" y="78" on="0"/>
        <pt x="393" y="78" on="1"/>
        <pt x="438" y="78" on="0"/>
        <pt x="491" y="86" on="1"/>
        <pt x="498" y="117" on="0"/>
        <pt x="498" y="128" on="1"/>
        <pt x="498" y="196" on="1"/>
        <pt x="488" y="257" on="1"/>
        <pt x="382" y="265" on="1"/>
        <pt x="387" y="363" on="1"/>
        <pt x="498" y="363" on="1"/>
        <pt x="613" y="366" on="1"/>
        <pt x="641" y="341" on="1"/>
        <pt x="632" y="246" on="0"/>
        <pt x="632" y="196" on="1"/>
        <pt x="632" y="19" on="1"/>
        <pt x="485" y="-15" on="0"/>
        <pt x="394" y="-15" on="1"/>
        <pt x="216" y="-15" on="0"/>
        <pt x="27" y="184" on="0"/>
        <pt x="27" y="520" on="0"/>
        <pt x="216" y="720" on="0"/>
      </contour>
      <contour>
        <pt x="481" y="898" on="1"/>
        <pt x="547" y="898" on="1"/>
        <pt x="547" y="824" on="0"/>
        <pt x="464" y="743" on="0"/>
        <pt x="322" y="743" on="0"/>
        <pt x="239" y="824" on="0"/>
        <pt x="239" y="898" on="1"/>
        <pt x="305" y="898" on="1"/>
        <pt x="305" y="861" on="0"/>
        <pt x="354" y="819" on="0"/>
        <pt x="432" y="819" on="0"/>
        <pt x="481" y="861" on="0"/>
      </contour>
    </TTGlyph>
    <TTGlyph name="Gcircumflex" xMin="27" yMin="-15" xMax="641" yMax="938">
      <contour>
        <pt x="394" y="720" on="1"/>
        <pt x="476" y="720" on="0"/>
        <pt x="623" y="686" on="1"/>
        <pt x="610" y="521" on="1"/>
        <pt x="531" y="525" on="1"/>
        <pt x="528" y="572" on="1"/>
        <pt x="528" y="582" on="0"/>
        <pt x="516" y="613" on="1"/>
        <pt x="448" y="627" on="0"/>
        <pt x="394" y="627" on="1"/>
        <pt x="299" y="627" on="0"/>
        <pt x="207" y="476" on="0"/>
        <pt x="207" y="229" on="0"/>
        <pt x="298" y="78" on="0"/>
        <pt x="393" y="78" on="1"/>
        <pt x="438" y="78" on="0"/>
        <pt x="491" y="86" on="1"/>
        <pt x="498" y="117" on="0"/>
        <pt x="498" y="128" on="1"/>
        <pt x="498" y="196" on="1"/>
        <pt x="488" y="257" on="1"/>
        <pt x="382" y="265" on="1"/>
        <pt x="387" y="363" on="1"/>
        <pt x="498" y="363" on="1"/>
        <pt x="613" y="366" on="1"/>
        <pt x="641" y="341" on="1"/>
        <pt x="632" y="246" on="0"/>
        <pt x="632" y="196" on="1"/>
        <pt x="632" y="19" on="1"/>
        <pt x="485" y="-15" on="0"/>
        <pt x="394" y="-15" on="1"/>
        <pt x="216" y="-15" on="0"/>
        <pt x="27" y="184" on="0"/>
        <pt x="27" y="520" on="0"/>
        <pt x="216" y="720" on="0"/>
      </contour>
      <contour>
        <pt x="393" y="938" on="1"/>
        <pt x="591" y="805" on="1"/>
        <pt x="544" y="747" on="1"/>
        <pt x="477" y="796" on="1"/>
        <pt x="393" y="837" on="1"/>
        <pt x="309" y="796" on="1"/>
        <pt x="242" y="747" on="1"/>
        <pt x="195" y="805" on="1"/>
      </contour>
    </TTGlyph>
    <TTGlyph name="Gcommaaccent" xMin="27" yMin="-274" xMax="641" yMax="720">
      <contour>
        <pt x="394" y="720" on="1"/>
        <pt x="476" y="720" on="0"/>
        <pt x="623" y="686" on="1"/>
        <pt x="610" y="521" on="1"/>
        <pt x="531" y="525" on="1"/>
        <pt x="528" y="572" on="1"/>
        <pt x="528" y="582" on="0"/>
        <pt x="516" y="613" on="1"/>
        <pt x="448" y="627" on="0"/>
        <pt x="394" y="627" on="1"/>
        <pt x="299" y="627" on="0"/>
        <pt x="207" y="476" on="0"/>
        <pt x="207" y="229" on="0"/>
        <pt x="298" y="78" on="0"/>
        <pt x="393" y="78" on="1"/>
        <pt x="438" y="78" on="0"/>
        <pt x="491" y="86" on="1"/>
        <pt x="498" y="117" on="0"/>
        <pt x="498" y="128" on="1"/>
        <pt x="498" y="196" on="1"/>
        <pt x="488" y="257" on="1"/>
        <pt x="382" y="265" on="1"/>
        <pt x="387" y="363" on="1"/>
        <pt x="498" y="363" on="1"/>
        <pt x="613" y="366" on="1"/>
        <pt x="641" y="341" on="1"/>
        <pt x="632" y="246" on="0"/>
        <pt x="632" y="196" on="1"/>
        <pt x="632" y="19" on="1"/>
        <pt x="485" y="-15" on="0"/>
        <pt x="394" y="-15" on="1"/>
        <pt x="216" y="-15" on="0"/>
        <pt x="27" y="184" on="0"/>
        <pt x="27" y="520" on="0"/>
        <pt x="216" y="720" on="0"/>
      </contour>
      <contour>
        <pt x="354" y="-180" on="1"/>
        <pt x="313" y="-166" on="0"/>
        <pt x="313" y="-94" on="0"/>
        <pt x="351" y="-58" on="0"/>
        <pt x="408" y="-58" on="0"/>
        <pt x="443" y="-98" on="0"/>
        <pt x="443" y="-159" on="0"/>
        <pt x="412" y="-229" on="0"/>
        <pt x="397" y="-252" on="1"/>
        <pt x="382" y="-274" on="1"/>
        <pt x="336" y="-262" on="1"/>
        <pt x="354" y="-207" on="0"/>
      </contour>
    </TTGlyph>
    <TTGlyph name="Gdieresis" xMin="27" yMin="-15" xMax="641" yMax="896">
      <contour>
        <pt x="394" y="720" on="1"/>
        <pt x="476" y="720" on="0"/>
        <pt x="623" y="686" on="1"/>
        <pt x="610" y="521" on="1"/>
        <pt x="531" y="525" on="1"/>
        <pt x="528" y="572" on="1"/>
        <pt x="528" y="582" on="0"/>
        <pt x="516" y="613" on="1"/>
        <pt x="448" y="627" on="0"/>
        <pt x="394" y="627" on="1"/>
        <pt x="299" y="627" on="0"/>
        <pt x="207" y="476" on="0"/>
        <pt x="207" y="229" on="0"/>
        <pt x="298" y="78" on="0"/>
        <pt x="393" y="78" on="1"/>
        <pt x="438" y="78" on="0"/>
        <pt x="491" y="86" on="1"/>
        <pt x="498" y="117" on="0"/>
        <pt x="498" y="128" on="1"/>
        <pt x="498" y="196" on="1"/>
        <pt x="488" y="257" on="1"/>
        <pt x="382" y="265" on="1"/>
        <pt x="387" y="363" on="1"/>
        <pt x="498" y="363" on="1"/>
        <pt x="613" y="366" on="1"/>
        <pt x="641" y="341" on="1"/>
        <pt x="632" y="246" on="0"/>
        <pt x="632" y="196" on="1"/>
        <pt x="632" y="19" on="1"/>
        <pt x="485" y="-15" on="0"/>
        <pt x="394" y="-15" on="1"/>
        <pt x="216" y="-15" on="0"/>
        <pt x="27" y="184" on="0"/>
        <pt x="27" y="520" on="0"/>
        <pt x="216" y="720" on="0"/>
      </contour>
      <contour>
        <pt x="243" y="896" on="0"/>
        <pt x="307" y="896" on="0"/>
        <pt x="342" y="859" on="0"/>
        <pt x="342" y="794" on="0"/>
        <pt x="307" y="757" on="0"/>
        <pt x="243" y="757" on="0"/>
        <pt x="207" y="795" on="0"/>
        <pt x="207" y="858" on="0"/>
      </contour>
      <contour>
        <pt x="480" y="896" on="0"/>
        <pt x="544" y="896" on="0"/>
        <pt x="579" y="859" on="0"/>
        <pt x="579" y="794" on="0"/>
        <pt x="544" y="757" on="0"/>
        <pt x="480" y="757" on="0"/>
        <pt x="445" y="794" on="0"/>
        <pt x="445" y="858" on="0"/>
      </contour>
    </TTGlyph>
    <TTGlyph name="Gdotaccent" xMin="27" yMin="-15" xMax="641" yMax="905">
      <contour>
        <pt x="394" y="720" on="1"/>
        <pt x="476" y="720" on="0"/>
        <pt x="623" y="686" on="1"/>
        <pt x="610" y="521" on="1"/>
        <pt x="531" y="525" on="1"/>
        <pt x="528" y="572" on="1"/>
        <pt x="528" y="582" on="0"/>
        <pt x="516" y="613" on="1"/>
        <pt x="448" y="627" on="0"/>
        <pt x="394" y="627" on="1"/>
        <pt x="299" y="627" on="0"/>
        <pt x="207" y="476" on="0"/>
        <pt x="207" y="229" on="0"/>
        <pt x="298" y="78" on="0"/>
        <pt x="393" y="78" on="1"/>
        <pt x="438" y="78" on="0"/>
        <pt x="491" y="86" on="1"/>
        <pt x="498" y="117" on="0"/>
        <pt x="498" y="128" on="1"/>
        <pt x="498" y="196" on="1"/>
        <pt x="488" y="257" on="1"/>
        <pt x="382" y="265" on="1"/>
        <pt x="387" y="363" on="1"/>
        <pt x="498" y="363" on="1"/>
        <pt x="613" y="366" on="1"/>
        <pt x="641" y="341" on="1"/>
        <pt x="632" y="246" on="0"/>
        <pt x="632" y="196" on="1"/>
        <pt x="632" y="19" on="1"/>
        <pt x="485" y="-15" on="0"/>
        <pt x="394" y="-15" on="1"/>
        <pt x="216" y="-15" on="0"/>
        <pt x="27" y="184" on="0"/>
        <pt x="27" y="520" on="0"/>
        <pt x="216" y="720" on="0"/>
      </contour>
      <contour>
        <pt x="356" y="905" on="0"/>
        <pt x="430" y="905" on="0"/>
        <pt x="472" y="862" on="0"/>
        <pt x="472" y="789" on="0"/>
        <pt x="431" y="746" on="0"/>
        <pt x="355" y="746" on="0"/>
        <pt x="314" y="789" on="0"/>
        <pt x="314" y="861" on="0"/>
      </contour>
    </TTGlyph>
    <TTGlyph name="Gtilde" xMin="27" yMin="-15" xMax="641" yMax="883">
      <contour>
        <pt x="394" y="720" on="1"/>
        <pt x="476" y="720" on="0"/>
        <pt x="623" y="686" on="1"/>
        <pt x="610" y="521" on="1"/>
        <pt x="531" y="525" on="1"/>
        <pt x="528" y="572" on="1"/>
        <pt x="528" y="582" on="0"/>
        <pt x="516" y="613" on="1"/>
        <pt x="448" y="627" on="0"/>
        <pt x="394" y="627" on="1"/>
        <pt x="299" y="627" on="0"/>
        <pt x="207" y="476" on="0"/>
        <pt x="207" y="229" on="0"/>
        <pt x="298" y="78" on="0"/>
        <pt x="393" y="78" on="1"/>
        <pt x="438" y="78" on="0"/>
        <pt x="491" y="86" on="1"/>
        <pt x="498" y="117" on="0"/>
        <pt x="498" y="128" on="1"/>
        <pt x="498" y="196" on="1"/>
        <pt x="488" y="257" on="1"/>
        <pt x="382" y="265" on="1"/>
        <pt x="387" y="363" on="1"/>
        <pt x="498" y="363" on="1"/>
        <pt x="613" y="366" on="1"/>
        <pt x="641" y="341" on="1"/>
        <pt x="632" y="246" on="0"/>
        <pt x="632" y="196" on="1"/>
        <pt x="632" y="19" on="1"/>
        <pt x="485" y="-15" on="0"/>
        <pt x="394" y="-15" on="1"/>
        <pt x="216" y="-15" on="0"/>
        <pt x="27" y="184" on="0"/>
        <pt x="27" y="520" on="0"/>
        <pt x="216" y="720" on="0"/>
      </contour>
      <contour>
        <pt x="565" y="810" on="0"/>
        <pt x="518" y="754" on="0"/>
        <pt x="478" y="754" on="0"/>
        <pt x="336" y="792" on="0"/>
        <pt x="320" y="792" on="1"/>
        <pt x="293" y="792" on="0"/>
        <pt x="272" y="760" on="1"/>
        <pt x="265" y="750" on="1"/>
        <pt x="218" y="778" on="1"/>
        <pt x="234" y="816" on="0"/>
        <pt x="288" y="883" on="0"/>
        <pt x="328" y="883" on="0"/>
        <pt x="471" y="845" on="0"/>
        <pt x="487" y="845" on="1"/>
        <pt x="514" y="845" on="0"/>
        <pt x="532" y="874" on="1"/>
        <pt x="538" y="883" on="1"/>
        <pt x="587" y="855" on="1"/>
        <pt x="582" y="844" on="0"/>
      </contour>
    </TTGlyph>
    <TTGlyph name="H" xMin="45" yMin="-5" xMax="782" yMax="710">
      <contour>
        <pt x="111" y="77" on="1"/>
        <pt x="120" y="163" on="1"/>
        <pt x="120" y="512" on="1"/>
        <pt x="120" y="551" on="0"/>
        <pt x="111" y="623" on="1"/>
        <pt x="46" y="635" on="1"/>
        <pt x="51" y="710" on="1"/>
        <pt x="104" y="705" on="0"/>
        <pt x="151" y="705" on="1"/>
        <pt x="345" y="710" on="1"/>
        <pt x="350" y="629" on="1"/>
        <pt x="284" y="623" on="1"/>
        <pt x="275" y="578" on="0"/>
        <pt x="275" y="542" on="1"/>
        <pt x="275" y="389" on="1"/>
        <pt x="552" y="393" on="1"/>
        <pt x="552" y="512" on="1"/>
        <pt x="552" y="551" on="0"/>
        <pt x="543" y="623" on="1"/>
        <pt x="478" y="635" on="1"/>
        <pt x="483" y="710" on="1"/>
        <pt x="536" y="705" on="0"/>
        <pt x="583" y="705" on="1"/>
        <pt x="777" y="710" on="1"/>
        <pt x="782" y="629" on="1"/>
        <pt x="716" y="623" on="1"/>
        <pt x="707" y="578" on="0"/>
        <pt x="707" y="542" on="1"/>
        <pt x="707" y="193" on="1"/>
        <pt x="707" y="140" on="0"/>
        <pt x="716" y="77" on="1"/>
        <pt x="781" y="71" on="1"/>
        <pt x="776" y="-5" on="1"/>
        <pt x="695" y="0" on="0"/>
        <pt x="582" y="0" on="1"/>
        <pt x="482" y="-5" on="1"/>
        <pt x="477" y="65" on="1"/>
        <pt x="543" y="77" on="1"/>
        <pt x="552" y="163" on="1"/>
        <pt x="552" y="302" on="1"/>
        <pt x="275" y="302" on="1"/>
        <pt x="275" y="193" on="1"/>
        <pt x="275" y="140" on="0"/>
        <pt x="284" y="77" on="1"/>
        <pt x="349" y="71" on="1"/>
        <pt x="344" y="-5" on="1"/>
        <pt x="263" y="0" on="0"/>
        <pt x="150" y="0" on="1"/>
        <pt x="50" y="-5" on="1"/>
        <pt x="45" y="65" on="1"/>
      </contour>
    </TTGlyph>
    <TTGlyph name="Hbar" xMin="30" yMin="-5" xMax="797" yMax="710">
      <contour>
        <pt x="551" y="551" on="1"/>
        <pt x="543" y="623" on="1"/>
        <pt x="478" y="635" on="1"/>
        <pt x="483" y="710" on="1"/>
        <pt x="536" y="705" on="0"/>
        <pt x="583" y="705" on="1"/>
        <pt x="777" y="710" on="1"/>
        <pt x="782" y="629" on="1"/>
        <pt x="716" y="623" on="1"/>
        <pt x="709" y="592" on="0"/>
        <pt x="707" y="551" on="1"/>
        <pt x="797" y="551" on="1"/>
        <pt x="797" y="487" on="1"/>
        <pt x="707" y="487" on="1"/>
        <pt x="707" y="193" on="1"/>
        <pt x="707" y="140" on="0"/>
        <pt x="716" y="77" on="1"/>
        <pt x="781" y="71" on="1"/>
        <pt x="776" y="-5" on="1"/>
        <pt x="695" y="0" on="0"/>
        <pt x="582" y="0" on="1"/>
        <pt x="482" y="-5" on="1"/>
        <pt x="477" y="65" on="1"/>
        <pt x="543" y="77" on="1"/>
        <pt x="552" y="163" on="1"/>
        <pt x="552" y="302" on="1"/>
        <pt x="275" y="302" on="1"/>
        <pt x="275" y="193" on="1"/>
        <pt x="275" y="140" on="0"/>
        <pt x="284" y="77" on="1"/>
        <pt x="349" y="71" on="1"/>
        <pt x="344" y="-5" on="1"/>
        <pt x="263" y="0" on="0"/>
        <pt x="150" y="0" on="1"/>
        <pt x="50" y="-5" on="1"/>
        <pt x="45" y="65" on="1"/>
        <pt x="111" y="77" on="1"/>
        <pt x="120" y="163" on="1"/>
        <pt x="120" y="487" on="1"/>
        <pt x="30" y="487" on="1"/>
        <pt x="30" y="551" on="1"/>
        <pt x="119" y="551" on="1"/>
        <pt x="119" y="551" on="0"/>
        <pt x="111" y="623" on="1"/>
        <pt x="46" y="635" on="1"/>
        <pt x="51" y="710" on="1"/>
        <pt x="104" y="705" on="0"/>
        <pt x="151" y="705" on="1"/>
        <pt x="345" y="710" on="1"/>
        <pt x="350" y="629" on="1"/>
        <pt x="284" y="623" on="1"/>
        <pt x="277" y="592" on="0"/>
        <pt x="275" y="551" on="1"/>
      </contour>
      <contour>
        <pt x="552" y="487" on="1"/>
        <pt x="275" y="487" on="1"/>
        <pt x="275" y="389" on="1"/>
        <pt x="552" y="393" on="1"/>
      </contour>
    </TTGlyph>
    <TTGlyph name="Hcircumflex" xMin="45" yMin="-5" xMax="782" yMax="938">
      <contour>
        <pt x="111" y="77" on="1"/>
        <pt x="120" y="163" on="1"/>
        <pt x="120" y="512" on="1"/>
        <pt x="120" y="551" on="0"/>
        <pt x="111" y="623" on="1"/>
        <pt x="46" y="635" on="1"/>
        <pt x="51" y="710" on="1"/>
        <pt x="104" y="705" on="0"/>
        <pt x="151" y="705" on="1"/>
        <pt x="345" y="710" on="1"/>
        <pt x="350" y="629" on="1"/>
        <pt x="284" y="623" on="1"/>
        <pt x="275" y="578" on="0"/>
        <pt x="275" y="542" on="1"/>
        <pt x="275" y="389" on="1"/>
        <pt x="552" y="393" on="1"/>
        <pt x="552" y="512" on="1"/>
        <pt x="552" y="551" on="0"/>
        <pt x="543" y="623" on="1"/>
        <pt x="478" y="635" on="1"/>
        <pt x="483" y="710" on="1"/>
        <pt x="536" y="705" on="0"/>
        <pt x="583" y="705" on="1"/>
        <pt x="777" y="710" on="1"/>
        <pt x="782" y="629" on="1"/>
        <pt x="716" y="623" on="1"/>
        <pt x="707" y="578" on="0"/>
        <pt x="707" y="542" on="1"/>
        <pt x="707" y="193" on="1"/>
        <pt x="707" y="140" on="0"/>
        <pt x="716" y="77" on="1"/>
        <pt x="781" y="71" on="1"/>
        <pt x="776" y="-5" on="1"/>
        <pt x="695" y="0" on="0"/>
        <pt x="582" y="0" on="1"/>
        <pt x="482" y="-5" on="1"/>
        <pt x="477" y="65" on="1"/>
        <pt x="543" y="77" on="1"/>
        <pt x="552" y="163" on="1"/>
        <pt x="552" y="302" on="1"/>
        <pt x="275" y="302" on="1"/>
        <pt x="275" y="193" on="1"/>
        <pt x="275" y="140" on="0"/>
        <pt x="284" y="77" on="1"/>
        <pt x="349" y="71" on="1"/>
        <pt x="344" y="-5" on="1"/>
        <pt x="263" y="0" on="0"/>
        <pt x="150" y="0" on="1"/>
        <pt x="50" y="-5" on="1"/>
        <pt x="45" y="65" on="1"/>
      </contour>
      <contour>
        <pt x="414" y="938" on="1"/>
        <pt x="612" y="805" on="1"/>
        <pt x="565" y="747" on="1"/>
        <pt x="498" y="796" on="1"/>
        <pt x="414" y="837" on="1"/>
        <pt x="330" y="796" on="1"/>
        <pt x="263" y="747" on="1"/>
        <pt x="216" y="805" on="1"/>
      </contour>
    </TTGlyph>
    <TTGlyph name="I" xMin="50" yMin="-5" xMax="355" yMax="710">
      <contour>
        <pt x="116" y="77" on="1"/>
        <pt x="125" y="163" on="1"/>
        <pt x="125" y="512" on="1"/>
        <pt x="125" y="551" on="0"/>
        <pt x="116" y="623" on="1"/>
        <pt x="51" y="635" on="1"/>
        <pt x="56" y="710" on="1"/>
        <pt x="109" y="705" on="0"/>
        <pt x="156" y="705" on="1"/>
        <pt x="350" y="710" on="1"/>
        <pt x="355" y="629" on="1"/>
        <pt x="289" y="623" on="1"/>
        <pt x="280" y="578" on="0"/>
        <pt x="280" y="542" on="1"/>
        <pt x="280" y="193" on="1"/>
        <pt x="280" y="140" on="0"/>
        <pt x="289" y="77" on="1"/>
        <pt x="354" y="71" on="1"/>
        <pt x="349" y="-5" on="1"/>
        <pt x="268" y="0" on="0"/>
        <pt x="155" y="0" on="1"/>
        <pt x="55" y="-5" on="1"/>
        <pt x="50" y="65" on="1"/>
      </contour>
    </TTGlyph>
    <TTGlyph name="IJ" xMin="50" yMin="-200" xMax="693" yMax="710">
      <contour>
        <pt x="116" y="77" on="1"/>
        <pt x="125" y="163" on="1"/>
        <pt x="125" y="512" on="1"/>
        <pt x="125" y="580" on="0"/>
        <pt x="116" y="623" on="1"/>
        <pt x="51" y="635" on="1"/>
        <pt x="56" y="710" on="1"/>
        <pt x="109" y="705" on="0"/>
        <pt x="156" y="705" on="1"/>
        <pt x="494" y="705" on="1"/>
        <pt x="688" y="710" on="1"/>
        <pt x="693" y="629" on="1"/>
        <pt x="627" y="623" on="1"/>
        <pt x="618" y="583" on="0"/>
        <pt x="618" y="542" on="1"/>
        <pt x="618" y="0" on="1"/>
        <pt x="618" y="-22" on="0"/>
        <pt x="528" y="-119" on="0"/>
        <pt x="441" y="-200" on="1"/>
        <pt x="387" y="-169" on="1"/>
        <pt x="463" y="-9" on="0"/>
        <pt x="463" y="11" on="1"/>
        <pt x="463" y="512" on="1"/>
        <pt x="463" y="578" on="0"/>
        <pt x="454" y="623" on="1"/>
        <pt x="372" y="632" on="1"/>
        <pt x="289" y="623" on="1"/>
        <pt x="280" y="592" on="0"/>
        <pt x="280" y="542" on="1"/>
        <pt x="280" y="193" on="1"/>
        <pt x="280" y="158" on="0"/>
        <pt x="289" y="77" on="1"/>
        <pt x="354" y="71" on="1"/>
        <pt x="349" y="-5" on="1"/>
        <pt x="268" y="0" on="0"/>
        <pt x="155" y="0" on="1"/>
        <pt x="55" y="-5" on="1"/>
        <pt x="50" y="65" on="1"/>
      </contour>
    </TTGlyph>
    <TTGlyph name="Iacute" xMin="50" yMin="-5" xMax="359" yMax="898">
      <contour>
        <pt x="116" y="77" on="1"/>
        <pt x="125" y="163" on="1"/>
        <pt x="125" y="512" on="1"/>
        <pt x="125" y="551" on="0"/>
        <pt x="116" y="623" on="1"/>
        <pt x="51" y="635" on="1"/>
        <pt x="56" y="710" on="1"/>
        <pt x="109" y="705" on="0"/>
        <pt x="156" y="705" on="1"/>
        <pt x="350" y="710" on="1"/>
        <pt x="355" y="629" on="1"/>
        <pt x="289" y="623" on="1"/>
        <pt x="280" y="578" on="0"/>
        <pt x="280" y="542" on="1"/>
        <pt x="280" y="193" on="1"/>
        <pt x="280" y="140" on="0"/>
        <pt x="289" y="77" on="1"/>
        <pt x="354" y="71" on="1"/>
        <pt x="349" y="-5" on="1"/>
        <pt x="268" y="0" on="0"/>
        <pt x="155" y="0" on="1"/>
        <pt x="55" y="-5" on="1"/>
        <pt x="50" y="65" on="1"/>
      </contour>
      <contour>
        <pt x="323" y="898" on="1"/>
        <pt x="359" y="814" on="1"/>
        <pt x="216" y="774" on="0"/>
        <pt x="197" y="768" on="1"/>
        <pt x="123" y="730" on="1"/>
        <pt x="86" y="794" on="1"/>
      </contour>
    </TTGlyph>
    <TTGlyph name="Ibreve" xMin="49" yMin="-5" xMax="357" yMax="898">
      <contour>
        <pt x="116" y="77" on="1"/>
        <pt x="125" y="163" on="1"/>
        <pt x="125" y="512" on="1"/>
        <pt x="125" y="551" on="0"/>
        <pt x="116" y="623" on="1"/>
        <pt x="51" y="635" on="1"/>
        <pt x="56" y="710" on="1"/>
        <pt x="109" y="705" on="0"/>
        <pt x="156" y="705" on="1"/>
        <pt x="350" y="710" on="1"/>
        <pt x="355" y="629" on="1"/>
        <pt x="289" y="623" on="1"/>
        <pt x="280" y="578" on="0"/>
        <pt x="280" y="542" on="1"/>
        <pt x="280" y="193" on="1"/>
        <pt x="280" y="140" on="0"/>
        <pt x="289" y="77" on="1"/>
        <pt x="354" y="71" on="1"/>
        <pt x="349" y="-5" on="1"/>
        <pt x="268" y="0" on="0"/>
        <pt x="155" y="0" on="1"/>
        <pt x="55" y="-5" on="1"/>
        <pt x="50" y="65" on="1"/>
      </contour>
      <contour>
        <pt x="291" y="898" on="1"/>
        <pt x="357" y="898" on="1"/>
        <pt x="357" y="824" on="0"/>
        <pt x="274" y="743" on="0"/>
        <pt x="132" y="743" on="0"/>
        <pt x="49" y="824" on="0"/>
        <pt x="49" y="898" on="1"/>
        <pt x="115" y="898" on="1"/>
        <pt x="115" y="861" on="0"/>
        <pt x="164" y="819" on="0"/>
        <pt x="242" y="819" on="0"/>
        <pt x="291" y="861" on="0"/>
      </contour>
    </TTGlyph>
    <TTGlyph name="Icircumflex" xMin="5" yMin="-5" xMax="401" yMax="938">
      <contour>
        <pt x="116" y="77" on="1"/>
        <pt x="125" y="163" on="1"/>
        <pt x="125" y="512" on="1"/>
        <pt x="125" y="551" on="0"/>
        <pt x="116" y="623" on="1"/>
        <pt x="51" y="635" on="1"/>
        <pt x="56" y="710" on="1"/>
        <pt x="109" y="705" on="0"/>
        <pt x="156" y="705" on="1"/>
        <pt x="350" y="710" on="1"/>
        <pt x="355" y="629" on="1"/>
        <pt x="289" y="623" on="1"/>
        <pt x="280" y="578" on="0"/>
        <pt x="280" y="542" on="1"/>
        <pt x="280" y="193" on="1"/>
        <pt x="280" y="140" on="0"/>
        <pt x="289" y="77" on="1"/>
        <pt x="354" y="71" on="1"/>
        <pt x="349" y="-5" on="1"/>
        <pt x="268" y="0" on="0"/>
        <pt x="155" y="0" on="1"/>
        <pt x="55" y="-5" on="1"/>
        <pt x="50" y="65" on="1"/>
      </contour>
      <contour>
        <pt x="203" y="938" on="1"/>
        <pt x="401" y="805" on="1"/>
        <pt x="354" y="747" on="1"/>
        <pt x="287" y="796" on="1"/>
        <pt x="203" y="837" on="1"/>
        <pt x="119" y="796" on="1"/>
        <pt x="52" y="747" on="1"/>
        <pt x="5" y="805" on="1"/>
      </contour>
    </TTGlyph>
    <TTGlyph name="Idieresis" xMin="50" yMin="-5" xMax="355" yMax="896">
      <contour>
        <pt x="84" y="896" on="0"/>
        <pt x="146" y="896" on="0"/>
        <pt x="180" y="859" on="0"/>
        <pt x="180" y="794" on="0"/>
        <pt x="146" y="757" on="0"/>
        <pt x="84" y="757" on="0"/>
        <pt x="50" y="795" on="0"/>
        <pt x="50" y="858" on="0"/>
      </contour>
      <contour>
        <pt x="258" y="896" on="0"/>
        <pt x="320" y="896" on="0"/>
        <pt x="354" y="859" on="0"/>
        <pt x="354" y="794" on="0"/>
        <pt x="320" y="757" on="0"/>
        <pt x="258" y="757" on="0"/>
        <pt x="225" y="794" on="0"/>
        <pt x="225" y="858" on="0"/>
      </contour>
      <contour>
        <pt x="116" y="77" on="1"/>
        <pt x="125" y="163" on="1"/>
        <pt x="125" y="512" on="1"/>
        <pt x="125" y="551" on="0"/>
        <pt x="116" y="623" on="1"/>
        <pt x="51" y="635" on="1"/>
        <pt x="56" y="710" on="1"/>
        <pt x="109" y="705" on="0"/>
        <pt x="156" y="705" on="1"/>
        <pt x="350" y="710" on="1"/>
        <pt x="355" y="629" on="1"/>
        <pt x="289" y="623" on="1"/>
        <pt x="280" y="578" on="0"/>
        <pt x="280" y="542" on="1"/>
        <pt x="280" y="193" on="1"/>
        <pt x="280" y="140" on="0"/>
        <pt x="289" y="77" on="1"/>
        <pt x="354" y="71" on="1"/>
        <pt x="349" y="-5" on="1"/>
        <pt x="268" y="0" on="0"/>
        <pt x="155" y="0" on="1"/>
        <pt x="55" y="-5" on="1"/>
        <pt x="50" y="65" on="1"/>
      </contour>
    </TTGlyph>
    <TTGlyph name="Idotaccent" xMin="50" yMin="-5" xMax="355" yMax="905">
      <contour>
        <pt x="116" y="77" on="1"/>
        <pt x="125" y="163" on="1"/>
        <pt x="125" y="512" on="1"/>
        <pt x="125" y="551" on="0"/>
        <pt x="116" y="623" on="1"/>
        <pt x="51" y="635" on="1"/>
        <pt x="56" y="710" on="1"/>
        <pt x="109" y="705" on="0"/>
        <pt x="156" y="705" on="1"/>
        <pt x="350" y="710" on="1"/>
        <pt x="355" y="629" on="1"/>
        <pt x="289" y="623" on="1"/>
        <pt x="280" y="578" on="0"/>
        <pt x="280" y="542" on="1"/>
        <pt x="280" y="193" on="1"/>
        <pt x="280" y="140" on="0"/>
        <pt x="289" y="77" on="1"/>
        <pt x="354" y="71" on="1"/>
        <pt x="349" y="-5" on="1"/>
        <pt x="268" y="0" on="0"/>
        <pt x="155" y="0" on="1"/>
        <pt x="55" y="-5" on="1"/>
        <pt x="50" y="65" on="1"/>
      </contour>
      <contour>
        <pt x="166" y="905" on="0"/>
        <pt x="240" y="905" on="0"/>
        <pt x="282" y="862" on="0"/>
        <pt x="282" y="789" on="0"/>
        <pt x="241" y="746" on="0"/>
        <pt x="165" y="746" on="0"/>
        <pt x="124" y="789" on="0"/>
        <pt x="124" y="861" on="0"/>
      </contour>
    </TTGlyph>
    <TTGlyph name="Igrave" xMin="46" yMin="-5" xMax="355" yMax="908">
      <contour>
        <pt x="116" y="77" on="1"/>
        <pt x="125" y="163" on="1"/>
        <pt x="125" y="512" on="1"/>
        <pt x="125" y="551" on="0"/>
        <pt x="116" y="623" on="1"/>
        <pt x="51" y="635" on="1"/>
        <pt x="56" y="710" on="1"/>
        <pt x="109" y="705" on="0"/>
        <pt x="156" y="705" on="1"/>
        <pt x="350" y="710" on="1"/>
        <pt x="355" y="629" on="1"/>
        <pt x="289" y="623" on="1"/>
        <pt x="280" y="578" on="0"/>
        <pt x="280" y="542" on="1"/>
        <pt x="280" y="193" on="1"/>
        <pt x="280" y="140" on="0"/>
        <pt x="289" y="77" on="1"/>
        <pt x="354" y="71" on="1"/>
        <pt x="349" y="-5" on="1"/>
        <pt x="268" y="0" on="0"/>
        <pt x="155" y="0" on="1"/>
        <pt x="55" y="-5" on="1"/>
        <pt x="50" y="65" on="1"/>
      </contour>
      <contour>
        <pt x="319" y="804" on="1"/>
        <pt x="282" y="740" on="1"/>
        <pt x="208" y="778" on="1"/>
        <pt x="46" y="824" on="1"/>
        <pt x="82" y="908" on="1"/>
      </contour>
    </TTGlyph>
    <TTGlyph name="Imacron" xMin="42" yMin="-5" xMax="347" yMax="844">
      <contour>
        <pt x="66" y="771" on="1"/>
        <pt x="66" y="844" on="1"/>
        <pt x="344" y="844" on="1"/>
        <pt x="339" y="771" on="1"/>
      </contour>
      <contour>
        <pt x="108" y="77" on="1"/>
        <pt x="117" y="163" on="1"/>
        <pt x="117" y="512" on="1"/>
        <pt x="117" y="551" on="0"/>
        <pt x="108" y="623" on="1"/>
        <pt x="43" y="635" on="1"/>
        <pt x="48" y="710" on="1"/>
        <pt x="101" y="705" on="0"/>
        <pt x="148" y="705" on="1"/>
        <pt x="342" y="710" on="1"/>
        <pt x="347" y="629" on="1"/>
        <pt x="281" y="623" on="1"/>
        <pt x="272" y="578" on="0"/>
        <pt x="272" y="542" on="1"/>
        <pt x="272" y="193" on="1"/>
        <pt x="272" y="140" on="0"/>
        <pt x="281" y="77" on="1"/>
        <pt x="346" y="71" on="1"/>
        <pt x="341" y="-5" on="1"/>
        <pt x="260" y="0" on="0"/>
        <pt x="147" y="0" on="1"/>
        <pt x="47" y="-5" on="1"/>
        <pt x="42" y="65" on="1"/>
      </contour>
    </TTGlyph>
    <TTGlyph name="Iogonek" xMin="20" yMin="-197" xMax="355" yMax="710">
      <contour>
        <pt x="125" y="163" on="1"/>
        <pt x="125" y="512" on="1"/>
        <pt x="125" y="551" on="0"/>
        <pt x="116" y="623" on="1"/>
        <pt x="51" y="635" on="1"/>
        <pt x="56" y="710" on="1"/>
        <pt x="109" y="705" on="0"/>
        <pt x="156" y="705" on="1"/>
        <pt x="350" y="710" on="1"/>
        <pt x="355" y="629" on="1"/>
        <pt x="289" y="623" on="1"/>
        <pt x="280" y="578" on="0"/>
        <pt x="280" y="542" on="1"/>
        <pt x="280" y="193" on="1"/>
        <pt x="280" y="140" on="0"/>
        <pt x="289" y="77" on="1"/>
        <pt x="354" y="71" on="1"/>
        <pt x="349" y="-5" on="1"/>
        <pt x="289" y="-1" on="0"/>
        <pt x="202" y="0" on="1"/>
        <pt x="167" y="-6" on="0"/>
        <pt x="127" y="-56" on="0"/>
        <pt x="127" y="-81" on="1"/>
        <pt x="127" y="-133" on="0"/>
        <pt x="172" y="-133" on="1"/>
        <pt x="188" y="-133" on="0"/>
        <pt x="206" y="-126" on="1"/>
        <pt x="224" y="-174" on="1"/>
        <pt x="178" y="-197" on="0"/>
        <pt x="79" y="-197" on="0"/>
        <pt x="20" y="-152" on="0"/>
        <pt x="20" y="-79" on="0"/>
        <pt x="53" y="-27" on="0"/>
        <pt x="92" y="12" on="0"/>
        <pt x="125" y="101" on="0"/>
      </contour>
    </TTGlyph>
    <TTGlyph name="Itilde" xMin="41" yMin="-5" xMax="410" yMax="883">
      <contour>
        <pt x="126" y="77" on="1"/>
        <pt x="135" y="163" on="1"/>
        <pt x="135" y="512" on="1"/>
        <pt x="135" y="551" on="0"/>
        <pt x="126" y="623" on="1"/>
        <pt x="61" y="635" on="1"/>
        <pt x="66" y="710" on="1"/>
        <pt x="119" y="705" on="0"/>
        <pt x="166" y="705" on="1"/>
        <pt x="360" y="710" on="1"/>
        <pt x="365" y="629" on="1"/>
        <pt x="299" y="623" on="1"/>
        <pt x="290" y="578" on="0"/>
        <pt x="290" y="542" on="1"/>
        <pt x="290" y="193" on="1"/>
        <pt x="290" y="140" on="0"/>
        <pt x="299" y="77" on="1"/>
        <pt x="364" y="71" on="1"/>
        <pt x="359" y="-5" on="1"/>
        <pt x="278" y="0" on="0"/>
        <pt x="165" y="0" on="1"/>
        <pt x="65" y="-5" on="1"/>
        <pt x="60" y="65" on="1"/>
      </contour>
      <contour>
        <pt x="388" y="810" on="0"/>
        <pt x="341" y="754" on="0"/>
        <pt x="300" y="754" on="0"/>
        <pt x="158" y="792" on="0"/>
        <pt x="142" y="792" on="1"/>
        <pt x="116" y="792" on="0"/>
        <pt x="95" y="760" on="1"/>
        <pt x="88" y="750" on="1"/>
        <pt x="41" y="778" on="1"/>
        <pt x="57" y="816" on="0"/>
        <pt x="111" y="883" on="0"/>
        <pt x="151" y="883" on="0"/>
        <pt x="294" y="845" on="0"/>
        <pt x="310" y="845" on="1"/>
        <pt x="337" y="845" on="0"/>
        <pt x="355" y="874" on="1"/>
        <pt x="361" y="883" on="1"/>
        <pt x="410" y="855" on="1"/>
        <pt x="405" y="844" on="0"/>
      </contour>
    </TTGlyph>
    <TTGlyph name="J" xMin="32" yMin="-200" xMax="338" yMax="710">
      <contour>
        <pt x="263" y="542" on="1"/>
        <pt x="263" y="10" on="1"/>
        <pt x="263" y="-36" on="0"/>
        <pt x="86" y="-200" on="1"/>
        <pt x="32" y="-169" on="1"/>
        <pt x="108" y="-9" on="0"/>
        <pt x="108" y="11" on="1"/>
        <pt x="108" y="512" on="1"/>
        <pt x="108" y="578" on="0"/>
        <pt x="99" y="623" on="1"/>
        <pt x="34" y="635" on="1"/>
        <pt x="39" y="710" on="1"/>
        <pt x="92" y="705" on="0"/>
        <pt x="139" y="705" on="1"/>
        <pt x="333" y="710" on="1"/>
        <pt x="338" y="629" on="1"/>
        <pt x="272" y="623" on="1"/>
        <pt x="263" y="582" on="0"/>
      </contour>
    </TTGlyph>
    <TTGlyph name="Jcircumflex" xMin="-12" yMin="-200" xMax="384" yMax="938">
      <contour>
        <pt x="263" y="542" on="1"/>
        <pt x="263" y="10" on="1"/>
        <pt x="263" y="-36" on="0"/>
        <pt x="86" y="-200" on="1"/>
        <pt x="32" y="-169" on="1"/>
        <pt x="108" y="-9" on="0"/>
        <pt x="108" y="11" on="1"/>
        <pt x="108" y="512" on="1"/>
        <pt x="108" y="578" on="0"/>
        <pt x="99" y="623" on="1"/>
        <pt x="34" y="635" on="1"/>
        <pt x="39" y="710" on="1"/>
        <pt x="92" y="705" on="0"/>
        <pt x="139" y="705" on="1"/>
        <pt x="333" y="710" on="1"/>
        <pt x="338" y="629" on="1"/>
        <pt x="272" y="623" on="1"/>
        <pt x="263" y="582" on="0"/>
      </contour>
      <contour>
        <pt x="186" y="938" on="1"/>
        <pt x="384" y="805" on="1"/>
        <pt x="337" y="747" on="1"/>
        <pt x="270" y="796" on="1"/>
        <pt x="186" y="837" on="1"/>
        <pt x="102" y="796" on="1"/>
        <pt x="35" y="747" on="1"/>
        <pt x="-12" y="805" on="1"/>
      </contour>
    </TTGlyph>
    <TTGlyph name="K" xMin="48" yMin="-5" xMax="756" yMax="710">
      <contour>
        <pt x="756" y="71" on="1"/>
        <pt x="751" y="-5" on="1"/>
        <pt x="661" y="0" on="0"/>
        <pt x="549" y="0" on="1"/>
        <pt x="454" y="-5" on="1"/>
        <pt x="449" y="65" on="1"/>
        <pt x="488" y="73" on="1"/>
        <pt x="445" y="142" on="0"/>
        <pt x="429" y="164" on="1"/>
        <pt x="279" y="353" on="1"/>
        <pt x="441" y="577" on="1"/>
        <pt x="469" y="629" on="1"/>
        <pt x="438" y="635" on="1"/>
        <pt x="443" y="710" on="1"/>
        <pt x="492" y="705" on="0"/>
        <pt x="540" y="705" on="1"/>
        <pt x="706" y="710" on="1"/>
        <pt x="711" y="629" on="1"/>
        <pt x="653" y="623" on="1"/>
        <pt x="607" y="579" on="0"/>
        <pt x="577" y="546" on="1"/>
        <pt x="448" y="370" on="1"/>
        <pt x="515" y="295" on="0"/>
        <pt x="653" y="129" on="1"/>
        <pt x="661" y="119" on="0"/>
        <pt x="708" y="77" on="1"/>
      </contour>
      <contour>
        <pt x="111" y="77" on="1"/>
        <pt x="120" y="163" on="1"/>
        <pt x="120" y="512" on="1"/>
        <pt x="120" y="551" on="0"/>
        <pt x="111" y="623" on="1"/>
        <pt x="49" y="635" on="1"/>
        <pt x="54" y="710" on="1"/>
        <pt x="102" y="705" on="0"/>
        <pt x="150" y="705" on="1"/>
        <pt x="342" y="710" on="1"/>
        <pt x="347" y="629" on="1"/>
        <pt x="284" y="623" on="1"/>
        <pt x="275" y="578" on="0"/>
        <pt x="275" y="542" on="1"/>
        <pt x="275" y="193" on="1"/>
        <pt x="275" y="140" on="0"/>
        <pt x="284" y="77" on="1"/>
        <pt x="345" y="71" on="1"/>
        <pt x="340" y="-5" on="1"/>
        <pt x="261" y="0" on="0"/>
        <pt x="149" y="0" on="1"/>
        <pt x="53" y="-5" on="1"/>
        <pt x="48" y="65" on="1"/>
      </contour>
    </TTGlyph>
    <TTGlyph name="Kcommaaccent" xMin="48" yMin="-274" xMax="756" yMax="710">
      <contour>
        <pt x="756" y="71" on="1"/>
        <pt x="751" y="-5" on="1"/>
        <pt x="661" y="0" on="0"/>
        <pt x="549" y="0" on="1"/>
        <pt x="454" y="-5" on="1"/>
        <pt x="449" y="65" on="1"/>
        <pt x="488" y="73" on="1"/>
        <pt x="445" y="142" on="0"/>
        <pt x="429" y="164" on="1"/>
        <pt x="279" y="353" on="1"/>
        <pt x="441" y="577" on="1"/>
        <pt x="469" y="629" on="1"/>
        <pt x="438" y="635" on="1"/>
        <pt x="443" y="710" on="1"/>
        <pt x="492" y="705" on="0"/>
        <pt x="540" y="705" on="1"/>
        <pt x="706" y="710" on="1"/>
        <pt x="711" y="629" on="1"/>
        <pt x="653" y="623" on="1"/>
        <pt x="607" y="579" on="0"/>
        <pt x="577" y="546" on="1"/>
        <pt x="448" y="370" on="1"/>
        <pt x="515" y="295" on="0"/>
        <pt x="653" y="129" on="1"/>
        <pt x="661" y="119" on="0"/>
        <pt x="708" y="77" on="1"/>
      </contour>
      <contour>
        <pt x="111" y="77" on="1"/>
        <pt x="120" y="163" on="1"/>
        <pt x="120" y="512" on="1"/>
        <pt x="120" y="551" on="0"/>
        <pt x="111" y="623" on="1"/>
        <pt x="49" y="635" on="1"/>
        <pt x="54" y="710" on="1"/>
        <pt x="102" y="705" on="0"/>
        <pt x="150" y="705" on="1"/>
        <pt x="342" y="710" on="1"/>
        <pt x="347" y="629" on="1"/>
        <pt x="284" y="623" on="1"/>
        <pt x="275" y="578" on="0"/>
        <pt x="275" y="542" on="1"/>
        <pt x="275" y="193" on="1"/>
        <pt x="275" y="140" on="0"/>
        <pt x="284" y="77" on="1"/>
        <pt x="345" y="71" on="1"/>
        <pt x="340" y="-5" on="1"/>
        <pt x="261" y="0" on="0"/>
        <pt x="149" y="0" on="1"/>
        <pt x="53" y="-5" on="1"/>
        <pt x="48" y="65" on="1"/>
      </contour>
      <contour>
        <pt x="354" y="-180" on="1"/>
        <pt x="313" y="-166" on="0"/>
        <pt x="313" y="-94" on="0"/>
        <pt x="351" y="-58" on="0"/>
        <pt x="408" y="-58" on="0"/>
        <pt x="443" y="-98" on="0"/>
        <pt x="443" y="-159" on="0"/>
        <pt x="412" y="-229" on="0"/>
        <pt x="397" y="-252" on="1"/>
        <pt x="382" y="-274" on="1"/>
        <pt x="336" y="-262" on="1"/>
        <pt x="354" y="-207" on="0"/>
      </contour>
    </TTGlyph>
    <TTGlyph name="L" xMin="45" yMin="-5" xMax="555" yMax="710">
      <contour>
        <pt x="111" y="77" on="1"/>
        <pt x="120" y="163" on="1"/>
        <pt x="120" y="512" on="1"/>
        <pt x="120" y="551" on="0"/>
        <pt x="111" y="623" on="1"/>
        <pt x="46" y="635" on="1"/>
        <pt x="51" y="710" on="1"/>
        <pt x="104" y="705" on="0"/>
        <pt x="151" y="705" on="1"/>
        <pt x="345" y="710" on="1"/>
        <pt x="350" y="629" on="1"/>
        <pt x="284" y="623" on="1"/>
        <pt x="275" y="578" on="0"/>
        <pt x="275" y="542" on="1"/>
        <pt x="275" y="193" on="1"/>
        <pt x="275" y="143" on="0"/>
        <pt x="283" y="87" on="1"/>
        <pt x="377" y="87" on="1"/>
        <pt x="416" y="87" on="0"/>
        <pt x="454" y="95" on="1"/>
        <pt x="472" y="134" on="0"/>
        <pt x="482" y="172" on="0"/>
        <pt x="485" y="195" on="1"/>
        <pt x="555" y="190" on="1"/>
        <pt x="540" y="14" on="1"/>
        <pt x="521" y="-4" on="1"/>
        <pt x="427" y="0" on="0"/>
        <pt x="407" y="0" on="1"/>
        <pt x="150" y="0" on="1"/>
        <pt x="50" y="-5" on="1"/>
        <pt x="45" y="65" on="1"/>
      </contour>
    </TTGlyph>
    <TTGlyph name="Lacute" xMin="45" yMin="-5" xMax="555" yMax="898">
      <contour>
        <pt x="111" y="77" on="1"/>
        <pt x="120" y="163" on="1"/>
        <pt x="120" y="512" on="1"/>
        <pt x="120" y="551" on="0"/>
        <pt x="111" y="623" on="1"/>
        <pt x="46" y="635" on="1"/>
        <pt x="51" y="710" on="1"/>
        <pt x="104" y="705" on="0"/>
        <pt x="151" y="705" on="1"/>
        <pt x="345" y="710" on="1"/>
        <pt x="350" y="629" on="1"/>
        <pt x="284" y="623" on="1"/>
        <pt x="275" y="578" on="0"/>
        <pt x="275" y="542" on="1"/>
        <pt x="275" y="193" on="1"/>
        <pt x="275" y="143" on="0"/>
        <pt x="283" y="87" on="1"/>
        <pt x="377" y="87" on="1"/>
        <pt x="416" y="87" on="0"/>
        <pt x="454" y="95" on="1"/>
        <pt x="472" y="134" on="0"/>
        <pt x="482" y="172" on="0"/>
        <pt x="485" y="195" on="1"/>
        <pt x="555" y="190" on="1"/>
        <pt x="540" y="14" on="1"/>
        <pt x="521" y="-4" on="1"/>
        <pt x="427" y="0" on="0"/>
        <pt x="407" y="0" on="1"/>
        <pt x="150" y="0" on="1"/>
        <pt x="50" y="-5" on="1"/>
        <pt x="45" y="65" on="1"/>
      </contour>
      <contour>
        <pt x="293" y="898" on="1"/>
        <pt x="329" y="814" on="1"/>
        <pt x="186" y="774" on="0"/>
        <pt x="167" y="768" on="1"/>
        <pt x="93" y="730" on="1"/>
        <pt x="56" y="794" on="1"/>
      </contour>
    </TTGlyph>
    <TTGlyph name="Lcaron" xMin="45" yMin="-5" xMax="555" yMax="710">
      <contour>
        <pt x="373" y="577" on="1"/>
        <pt x="492" y="577" on="1"/>
        <pt x="479" y="333" on="1"/>
        <pt x="391" y="338" on="1"/>
        <pt x="392" y="431" on="1"/>
      </contour>
      <contour>
        <pt x="111" y="77" on="1"/>
        <pt x="120" y="163" on="1"/>
        <pt x="120" y="512" on="1"/>
        <pt x="120" y="551" on="0"/>
        <pt x="111" y="623" on="1"/>
        <pt x="46" y="635" on="1"/>
        <pt x="51" y="710" on="1"/>
        <pt x="104" y="705" on="0"/>
        <pt x="151" y="705" on="1"/>
        <pt x="345" y="710" on="1"/>
        <pt x="350" y="629" on="1"/>
        <pt x="284" y="623" on="1"/>
        <pt x="275" y="578" on="0"/>
        <pt x="275" y="542" on="1"/>
        <pt x="275" y="193" on="1"/>
        <pt x="275" y="143" on="0"/>
        <pt x="283" y="87" on="1"/>
        <pt x="377" y="87" on="1"/>
        <pt x="416" y="87" on="0"/>
        <pt x="454" y="95" on="1"/>
        <pt x="472" y="134" on="0"/>
        <pt x="482" y="172" on="0"/>
        <pt x="485" y="195" on="1"/>
        <pt x="555" y="190" on="1"/>
        <pt x="540" y="14" on="1"/>
        <pt x="521" y="-4" on="1"/>
        <pt x="427" y="0" on="0"/>
        <pt x="407" y="0" on="1"/>
        <pt x="150" y="0" on="1"/>
        <pt x="50" y="-5" on="1"/>
        <pt x="45" y="65" on="1"/>
      </contour>
    </TTGlyph>
    <TTGlyph name="Lcommaaccent" xMin="45" yMin="-274" xMax="555" yMax="710">
      <contour>
        <pt x="111" y="77" on="1"/>
        <pt x="120" y="163" on="1"/>
        <pt x="120" y="512" on="1"/>
        <pt x="120" y="551" on="0"/>
        <pt x="111" y="623" on="1"/>
        <pt x="46" y="635" on="1"/>
        <pt x="51" y="710" on="1"/>
        <pt x="104" y="705" on="0"/>
        <pt x="151" y="705" on="1"/>
        <pt x="345" y="710" on="1"/>
        <pt x="350" y="629" on="1"/>
        <pt x="284" y="623" on="1"/>
        <pt x="275" y="578" on="0"/>
        <pt x="275" y="542" on="1"/>
        <pt x="275" y="193" on="1"/>
        <pt x="275" y="143" on="0"/>
        <pt x="283" y="87" on="1"/>
        <pt x="377" y="87" on="1"/>
        <pt x="416" y="87" on="0"/>
        <pt x="454" y="95" on="1"/>
        <pt x="472" y="134" on="0"/>
        <pt x="482" y="172" on="0"/>
        <pt x="485" y="195" on="1"/>
        <pt x="555" y="190" on="1"/>
        <pt x="540" y="14" on="1"/>
        <pt x="521" y="-4" on="1"/>
        <pt x="427" y="0" on="0"/>
        <pt x="407" y="0" on="1"/>
        <pt x="150" y="0" on="1"/>
        <pt x="50" y="-5" on="1"/>
        <pt x="45" y="65" on="1"/>
      </contour>
      <contour>
        <pt x="280" y="-180" on="1"/>
        <pt x="239" y="-166" on="0"/>
        <pt x="239" y="-94" on="0"/>
        <pt x="277" y="-58" on="0"/>
        <pt x="334" y="-58" on="0"/>
        <pt x="369" y="-98" on="0"/>
        <pt x="369" y="-159" on="0"/>
        <pt x="338" y="-229" on="0"/>
        <pt x="323" y="-252" on="1"/>
        <pt x="308" y="-274" on="1"/>
        <pt x="262" y="-262" on="1"/>
        <pt x="280" y="-207" on="0"/>
      </contour>
    </TTGlyph>
    <TTGlyph name="Ldot" xMin="45" yMin="-5" xMax="555" yMax="710">
      <contour>
        <pt x="395" y="470" on="0"/>
        <pt x="469" y="470" on="0"/>
        <pt x="511" y="425" on="0"/>
        <pt x="511" y="347" on="0"/>
        <pt x="469" y="301" on="0"/>
        <pt x="395" y="301" on="0"/>
        <pt x="353" y="347" on="0"/>
        <pt x="353" y="423" on="0"/>
      </contour>
      <contour>
        <pt x="111" y="77" on="1"/>
        <pt x="120" y="163" on="1"/>
        <pt x="120" y="512" on="1"/>
        <pt x="120" y="551" on="0"/>
        <pt x="111" y="623" on="1"/>
        <pt x="46" y="635" on="1"/>
        <pt x="51" y="710" on="1"/>
        <pt x="104" y="705" on="0"/>
        <pt x="151" y="705" on="1"/>
        <pt x="345" y="710" on="1"/>
        <pt x="350" y="629" on="1"/>
        <pt x="284" y="623" on="1"/>
        <pt x="275" y="578" on="0"/>
        <pt x="275" y="542" on="1"/>
        <pt x="275" y="193" on="1"/>
        <pt x="275" y="143" on="0"/>
        <pt x="283" y="87" on="1"/>
        <pt x="377" y="87" on="1"/>
        <pt x="416" y="87" on="0"/>
        <pt x="454" y="95" on="1"/>
        <pt x="472" y="134" on="0"/>
        <pt x="482" y="172" on="0"/>
        <pt x="485" y="195" on="1"/>
        <pt x="555" y="190" on="1"/>
        <pt x="540" y="14" on="1"/>
        <pt x="521" y="-4" on="1"/>
        <pt x="427" y="0" on="0"/>
        <pt x="407" y="0" on="1"/>
        <pt x="150" y="0" on="1"/>
        <pt x="50" y="-5" on="1"/>
        <pt x="45" y="65" on="1"/>
      </contour>
    </TTGlyph>
    <TTGlyph name="Lslash" xMin="26" yMin="-5" xMax="555" yMax="710">
      <contour>
        <pt x="111" y="77" on="1"/>
        <pt x="120" y="163" on="1"/>
        <pt x="120" y="310" on="1"/>
        <pt x="48" y="284" on="1"/>
        <pt x="26" y="344" on="1"/>
        <pt x="120" y="378" on="1"/>
        <pt x="120" y="512" on="1"/>
        <pt x="120" y="551" on="0"/>
        <pt x="111" y="623" on="1"/>
        <pt x="46" y="635" on="1"/>
        <pt x="51" y="710" on="1"/>
        <pt x="104" y="705" on="0"/>
        <pt x="151" y="705" on="1"/>
        <pt x="345" y="710" on="1"/>
        <pt x="350" y="629" on="1"/>
        <pt x="284" y="623" on="1"/>
        <pt x="275" y="578" on="0"/>
        <pt x="275" y="542" on="1"/>
        <pt x="275" y="434" on="1"/>
        <pt x="438" y="494" on="1"/>
        <pt x="460" y="434" on="1"/>
        <pt x="275" y="366" on="1"/>
        <pt x="275" y="193" on="1"/>
        <pt x="275" y="143" on="0"/>
        <pt x="283" y="87" on="1"/>
        <pt x="377" y="87" on="1"/>
        <pt x="416" y="87" on="0"/>
        <pt x="454" y="95" on="1"/>
        <pt x="472" y="134" on="0"/>
        <pt x="482" y="172" on="0"/>
        <pt x="485" y="195" on="1"/>
        <pt x="555" y="190" on="1"/>
        <pt x="540" y="14" on="1"/>
        <pt x="521" y="-4" on="1"/>
        <pt x="427" y="0" on="0"/>
        <pt x="407" y="0" on="1"/>
        <pt x="150" y="0" on="1"/>
        <pt x="50" y="-5" on="1"/>
        <pt x="45" y="65" on="1"/>
      </contour>
    </TTGlyph>
    <TTGlyph name="M" xMin="37" yMin="-5" xMax="943" yMax="710">
      <contour>
        <pt x="185" y="705" on="1"/>
        <pt x="326" y="705" on="1"/>
        <pt x="346" y="685" on="1"/>
        <pt x="377" y="571" on="0"/>
        <pt x="389" y="534" on="1"/>
        <pt x="492" y="221" on="1"/>
        <pt x="604" y="549" on="1"/>
        <pt x="645" y="685" on="1"/>
        <pt x="665" y="705" on="1"/>
        <pt x="762" y="705" on="1"/>
        <pt x="894" y="710" on="1"/>
        <pt x="898" y="638" on="1"/>
        <pt x="834" y="627" on="1"/>
        <pt x="831" y="600" on="0"/>
        <pt x="831" y="569" on="1"/>
        <pt x="863" y="132" on="1"/>
        <pt x="866" y="112" on="0"/>
        <pt x="875" y="80" on="0"/>
        <pt x="876" y="74" on="1"/>
        <pt x="943" y="68" on="1"/>
        <pt x="938" y="-5" on="1"/>
        <pt x="866" y="0" on="0"/>
        <pt x="758" y="0" on="1"/>
        <pt x="655" y="-5" on="1"/>
        <pt x="650" y="62" on="1"/>
        <pt x="717" y="74" on="1"/>
        <pt x="721" y="120" on="0"/>
        <pt x="721" y="162" on="1"/>
        <pt x="705" y="518" on="1"/>
        <pt x="521" y="0" on="1"/>
        <pt x="429" y="0" on="1"/>
        <pt x="250" y="518" on="1"/>
        <pt x="231" y="162" on="1"/>
        <pt x="231" y="120" on="0"/>
        <pt x="235" y="74" on="1"/>
        <pt x="303" y="68" on="1"/>
        <pt x="297" y="-5" on="1"/>
        <pt x="251" y="0" on="0"/>
        <pt x="143" y="0" on="1"/>
        <pt x="42" y="-5" on="1"/>
        <pt x="37" y="62" on="1"/>
        <pt x="105" y="74" on="1"/>
        <pt x="109" y="87" on="0"/>
        <pt x="119" y="132" on="1"/>
        <pt x="147" y="569" on="1"/>
        <pt x="147" y="590" on="0"/>
        <pt x="141" y="626" on="1"/>
        <pt x="74" y="638" on="1"/>
        <pt x="79" y="710" on="1"/>
        <pt x="142" y="705" on="0"/>
      </contour>
    </TTGlyph>
    <TTGlyph name="N" xMin="45" yMin="-5" xMax="782" yMax="710">
      <contour>
        <pt x="707" y="542" on="1"/>
        <pt x="707" y="0" on="1"/>
        <pt x="572" y="0" on="1"/>
        <pt x="247" y="450" on="1"/>
        <pt x="247" y="193" on="1"/>
        <pt x="247" y="167" on="0"/>
        <pt x="256" y="77" on="1"/>
        <pt x="321" y="71" on="1"/>
        <pt x="316" y="-5" on="1"/>
        <pt x="263" y="0" on="0"/>
        <pt x="150" y="0" on="1"/>
        <pt x="50" y="-5" on="1"/>
        <pt x="45" y="65" on="1"/>
        <pt x="111" y="77" on="1"/>
        <pt x="120" y="126" on="0"/>
        <pt x="120" y="163" on="1"/>
        <pt x="120" y="512" on="1"/>
        <pt x="120" y="574" on="0"/>
        <pt x="111" y="623" on="1"/>
        <pt x="46" y="635" on="1"/>
        <pt x="51" y="710" on="1"/>
        <pt x="104" y="705" on="0"/>
        <pt x="151" y="705" on="1"/>
        <pt x="253" y="705" on="1"/>
        <pt x="272" y="685" on="1"/>
        <pt x="345" y="559" on="0"/>
        <pt x="360" y="537" on="1"/>
        <pt x="580" y="230" on="1"/>
        <pt x="580" y="512" on="1"/>
        <pt x="580" y="551" on="0"/>
        <pt x="571" y="623" on="1"/>
        <pt x="506" y="635" on="1"/>
        <pt x="511" y="710" on="1"/>
        <pt x="611" y="705" on="1"/>
        <pt x="777" y="710" on="1"/>
        <pt x="782" y="629" on="1"/>
        <pt x="716" y="623" on="1"/>
        <pt x="707" y="569" on="0"/>
      </contour>
    </TTGlyph>
    <TTGlyph name="Nacute" xMin="45" yMin="-5" xMax="782" yMax="898">
      <contour>
        <pt x="707" y="542" on="1"/>
        <pt x="707" y="0" on="1"/>
        <pt x="572" y="0" on="1"/>
        <pt x="247" y="450" on="1"/>
        <pt x="247" y="193" on="1"/>
        <pt x="247" y="167" on="0"/>
        <pt x="256" y="77" on="1"/>
        <pt x="321" y="71" on="1"/>
        <pt x="316" y="-5" on="1"/>
        <pt x="263" y="0" on="0"/>
        <pt x="150" y="0" on="1"/>
        <pt x="50" y="-5" on="1"/>
        <pt x="45" y="65" on="1"/>
        <pt x="111" y="77" on="1"/>
        <pt x="120" y="126" on="0"/>
        <pt x="120" y="163" on="1"/>
        <pt x="120" y="512" on="1"/>
        <pt x="120" y="574" on="0"/>
        <pt x="111" y="623" on="1"/>
        <pt x="46" y="635" on="1"/>
        <pt x="51" y="710" on="1"/>
        <pt x="104" y="705" on="0"/>
        <pt x="151" y="705" on="1"/>
        <pt x="253" y="705" on="1"/>
        <pt x="272" y="685" on="1"/>
        <pt x="345" y="559" on="0"/>
        <pt x="360" y="537" on="1"/>
        <pt x="580" y="230" on="1"/>
        <pt x="580" y="512" on="1"/>
        <pt x="580" y="551" on="0"/>
        <pt x="571" y="623" on="1"/>
        <pt x="506" y="635" on="1"/>
        <pt x="511" y="710" on="1"/>
        <pt x="611" y="705" on="1"/>
        <pt x="777" y="710" on="1"/>
        <pt x="782" y="629" on="1"/>
        <pt x="716" y="623" on="1"/>
        <pt x="707" y="569" on="0"/>
      </contour>
      <contour>
        <pt x="521" y="898" on="1"/>
        <pt x="557" y="814" on="1"/>
        <pt x="414" y="774" on="0"/>
        <pt x="395" y="768" on="1"/>
        <pt x="321" y="730" on="1"/>
        <pt x="284" y="794" on="1"/>
      </contour>
    </TTGlyph>
    <TTGlyph name="Ncaron" xMin="45" yMin="-5" xMax="782" yMax="899">
      <contour>
        <pt x="707" y="542" on="1"/>
        <pt x="707" y="0" on="1"/>
        <pt x="572" y="0" on="1"/>
        <pt x="247" y="450" on="1"/>
        <pt x="247" y="193" on="1"/>
        <pt x="247" y="167" on="0"/>
        <pt x="256" y="77" on="1"/>
        <pt x="321" y="71" on="1"/>
        <pt x="316" y="-5" on="1"/>
        <pt x="263" y="0" on="0"/>
        <pt x="150" y="0" on="1"/>
        <pt x="50" y="-5" on="1"/>
        <pt x="45" y="65" on="1"/>
        <pt x="111" y="77" on="1"/>
        <pt x="120" y="126" on="0"/>
        <pt x="120" y="163" on="1"/>
        <pt x="120" y="512" on="1"/>
        <pt x="120" y="574" on="0"/>
        <pt x="111" y="623" on="1"/>
        <pt x="46" y="635" on="1"/>
        <pt x="51" y="710" on="1"/>
        <pt x="104" y="705" on="0"/>
        <pt x="151" y="705" on="1"/>
        <pt x="253" y="705" on="1"/>
        <pt x="272" y="685" on="1"/>
        <pt x="345" y="559" on="0"/>
        <pt x="360" y="537" on="1"/>
        <pt x="580" y="230" on="1"/>
        <pt x="580" y="512" on="1"/>
        <pt x="580" y="551" on="0"/>
        <pt x="571" y="623" on="1"/>
        <pt x="506" y="635" on="1"/>
        <pt x="511" y="710" on="1"/>
        <pt x="611" y="705" on="1"/>
        <pt x="777" y="710" on="1"/>
        <pt x="782" y="629" on="1"/>
        <pt x="716" y="623" on="1"/>
        <pt x="707" y="569" on="0"/>
      </contour>
      <contour>
        <pt x="552" y="899" on="1"/>
        <pt x="599" y="841" on="1"/>
        <pt x="401" y="708" on="1"/>
        <pt x="203" y="841" on="1"/>
        <pt x="250" y="899" on="1"/>
        <pt x="317" y="850" on="1"/>
        <pt x="401" y="809" on="1"/>
        <pt x="485" y="850" on="1"/>
      </contour>
    </TTGlyph>
    <TTGlyph name="Ncommaaccent" xMin="45" yMin="-274" xMax="782" yMax="710">
      <contour>
        <pt x="707" y="542" on="1"/>
        <pt x="707" y="0" on="1"/>
        <pt x="572" y="0" on="1"/>
        <pt x="247" y="450" on="1"/>
        <pt x="247" y="193" on="1"/>
        <pt x="247" y="167" on="0"/>
        <pt x="256" y="77" on="1"/>
        <pt x="321" y="71" on="1"/>
        <pt x="316" y="-5" on="1"/>
        <pt x="263" y="0" on="0"/>
        <pt x="150" y="0" on="1"/>
        <pt x="50" y="-5" on="1"/>
        <pt x="45" y="65" on="1"/>
        <pt x="111" y="77" on="1"/>
        <pt x="120" y="126" on="0"/>
        <pt x="120" y="163" on="1"/>
        <pt x="120" y="512" on="1"/>
        <pt x="120" y="574" on="0"/>
        <pt x="111" y="623" on="1"/>
        <pt x="46" y="635" on="1"/>
        <pt x="51" y="710" on="1"/>
        <pt x="104" y="705" on="0"/>
        <pt x="151" y="705" on="1"/>
        <pt x="253" y="705" on="1"/>
        <pt x="272" y="685" on="1"/>
        <pt x="345" y="559" on="0"/>
        <pt x="360" y="537" on="1"/>
        <pt x="580" y="230" on="1"/>
        <pt x="580" y="512" on="1"/>
        <pt x="580" y="551" on="0"/>
        <pt x="571" y="623" on="1"/>
        <pt x="506" y="635" on="1"/>
        <pt x="511" y="710" on="1"/>
        <pt x="611" y="705" on="1"/>
        <pt x="777" y="710" on="1"/>
        <pt x="782" y="629" on="1"/>
        <pt x="716" y="623" on="1"/>
        <pt x="707" y="569" on="0"/>
      </contour>
      <contour>
        <pt x="374" y="-180" on="1"/>
        <pt x="333" y="-166" on="0"/>
        <pt x="333" y="-94" on="0"/>
        <pt x="371" y="-58" on="0"/>
        <pt x="428" y="-58" on="0"/>
        <pt x="463" y="-98" on="0"/>
        <pt x="463" y="-159" on="0"/>
        <pt x="432" y="-229" on="0"/>
        <pt x="417" y="-252" on="1"/>
        <pt x="402" y="-274" on="1"/>
        <pt x="356" y="-262" on="1"/>
        <pt x="374" y="-207" on="0"/>
      </contour>
    </TTGlyph>
    <TTGlyph name="Ntilde" xMin="45" yMin="-5" xMax="782" yMax="883">
      <contour>
        <pt x="707" y="542" on="1"/>
        <pt x="707" y="0" on="1"/>
        <pt x="572" y="0" on="1"/>
        <pt x="247" y="450" on="1"/>
        <pt x="247" y="193" on="1"/>
        <pt x="247" y="167" on="0"/>
        <pt x="256" y="77" on="1"/>
        <pt x="321" y="71" on="1"/>
        <pt x="316" y="-5" on="1"/>
        <pt x="263" y="0" on="0"/>
        <pt x="150" y="0" on="1"/>
        <pt x="50" y="-5" on="1"/>
        <pt x="45" y="65" on="1"/>
        <pt x="111" y="77" on="1"/>
        <pt x="120" y="126" on="0"/>
        <pt x="120" y="163" on="1"/>
        <pt x="120" y="512" on="1"/>
        <pt x="120" y="574" on="0"/>
        <pt x="111" y="623" on="1"/>
        <pt x="46" y="635" on="1"/>
        <pt x="51" y="710" on="1"/>
        <pt x="104" y="705" on="0"/>
        <pt x="151" y="705" on="1"/>
        <pt x="253" y="705" on="1"/>
        <pt x="272" y="685" on="1"/>
        <pt x="345" y="559" on="0"/>
        <pt x="360" y="537" on="1"/>
        <pt x="580" y="230" on="1"/>
        <pt x="580" y="512" on="1"/>
        <pt x="580" y="551" on="0"/>
        <pt x="571" y="623" on="1"/>
        <pt x="506" y="635" on="1"/>
        <pt x="511" y="710" on="1"/>
        <pt x="611" y="705" on="1"/>
        <pt x="777" y="710" on="1"/>
        <pt x="782" y="629" on="1"/>
        <pt x="716" y="623" on="1"/>
        <pt x="707" y="569" on="0"/>
      </contour>
      <contour>
        <pt x="581" y="810" on="0"/>
        <pt x="534" y="754" on="0"/>
        <pt x="493" y="754" on="0"/>
        <pt x="352" y="792" on="0"/>
        <pt x="336" y="792" on="1"/>
        <pt x="309" y="792" on="0"/>
        <pt x="288" y="760" on="1"/>
        <pt x="281" y="750" on="1"/>
        <pt x="234" y="778" on="1"/>
        <pt x="250" y="816" on="0"/>
        <pt x="304" y="883" on="0"/>
        <pt x="344" y="883" on="0"/>
        <pt x="487" y="845" on="0"/>
        <pt x="503" y="845" on="1"/>
        <pt x="530" y="845" on="0"/>
        <pt x="548" y="874" on="1"/>
        <pt x="554" y="883" on="1"/>
        <pt x="603" y="855" on="1"/>
        <pt x="598" y="844" on="0"/>
      </contour>
    </TTGlyph>
    <TTGlyph name="O" xMin="27" yMin="-19" xMax="741" yMax="724">
      <contour>
        <pt x="547" y="724" on="0"/>
        <pt x="741" y="522" on="0"/>
        <pt x="741" y="183" on="0"/>
        <pt x="547" y="-19" on="0"/>
        <pt x="221" y="-19" on="0"/>
        <pt x="27" y="183" on="0"/>
        <pt x="27" y="522" on="0"/>
        <pt x="221" y="724" on="0"/>
      </contour>
      <contour>
        <pt x="294" y="627" on="0"/>
        <pt x="207" y="492" on="0"/>
        <pt x="207" y="213" on="0"/>
        <pt x="294" y="78" on="0"/>
        <pt x="474" y="78" on="0"/>
        <pt x="561" y="213" on="0"/>
        <pt x="561" y="492" on="0"/>
        <pt x="474" y="627" on="0"/>
      </contour>
    </TTGlyph>
    <TTGlyph name="OE" xMin="27" yMin="-19" xMax="1003" yMax="724">
      <contour>
        <pt x="855" y="0" on="1"/>
        <pt x="573" y="0" on="1"/>
        <pt x="501" y="-3" on="1"/>
        <pt x="449" y="-19" on="0"/>
        <pt x="384" y="-19" on="1"/>
        <pt x="221" y="-19" on="0"/>
        <pt x="27" y="183" on="0"/>
        <pt x="27" y="522" on="0"/>
        <pt x="221" y="724" on="0"/>
        <pt x="384" y="724" on="1"/>
        <pt x="449" y="724" on="0"/>
        <pt x="500" y="708" on="1"/>
        <pt x="566" y="705" on="0"/>
        <pt x="573" y="705" on="1"/>
        <pt x="841" y="705" on="1"/>
        <pt x="955" y="715" on="1"/>
        <pt x="974" y="697" on="1"/>
        <pt x="981" y="541" on="1"/>
        <pt x="909" y="536" on="1"/>
        <pt x="903" y="584" on="0"/>
        <pt x="897" y="608" on="0"/>
        <pt x="890" y="619" on="1"/>
        <pt x="850" y="623" on="0"/>
        <pt x="811" y="623" on="1"/>
        <pt x="701" y="623" on="1"/>
        <pt x="697" y="551" on="0"/>
        <pt x="697" y="542" on="1"/>
        <pt x="697" y="399" on="1"/>
        <pt x="707" y="398" on="0"/>
        <pt x="723" y="398" on="1"/>
        <pt x="779" y="398" on="1"/>
        <pt x="800" y="398" on="0"/>
        <pt x="823" y="407" on="1"/>
        <pt x="832" y="471" on="1"/>
        <pt x="894" y="466" on="1"/>
        <pt x="893" y="406" on="0"/>
        <pt x="893" y="386" on="1"/>
        <pt x="896" y="259" on="1"/>
        <pt x="832" y="253" on="1"/>
        <pt x="823" y="313" on="1"/>
        <pt x="779" y="319" on="0"/>
        <pt x="759" y="319" on="1"/>
        <pt x="728" y="319" on="1"/>
        <pt x="704" y="319" on="0"/>
        <pt x="697" y="318" on="1"/>
        <pt x="697" y="193" on="1"/>
        <pt x="697" y="147" on="0"/>
        <pt x="700" y="87" on="1"/>
        <pt x="825" y="87" on="1"/>
        <pt x="862" y="87" on="0"/>
        <pt x="902" y="95" on="1"/>
        <pt x="926" y="139" on="0"/>
        <pt x="933" y="195" on="1"/>
        <pt x="1003" y="190" on="1"/>
        <pt x="988" y="14" on="1"/>
        <pt x="969" y="-4" on="1"/>
        <pt x="875" y="0" on="0"/>
      </contour>
      <contour>
        <pt x="384" y="627" on="1"/>
        <pt x="294" y="627" on="0"/>
        <pt x="207" y="492" on="0"/>
        <pt x="207" y="213" on="0"/>
        <pt x="294" y="78" on="0"/>
        <pt x="384" y="78" on="1"/>
        <pt x="453" y="78" on="0"/>
        <pt x="524" y="135" on="0"/>
        <pt x="552" y="196" on="1"/>
        <pt x="552" y="536" on="1"/>
        <pt x="524" y="572" on="0"/>
        <pt x="495" y="602" on="0"/>
        <pt x="431" y="627" on="0"/>
      </contour>
    </TTGlyph>
    <TTGlyph name="Oacute" xMin="27" yMin="-19" xMax="741" yMax="908">
      <contour>
        <pt x="547" y="724" on="0"/>
        <pt x="741" y="522" on="0"/>
        <pt x="741" y="183" on="0"/>
        <pt x="547" y="-19" on="0"/>
        <pt x="221" y="-19" on="0"/>
        <pt x="27" y="183" on="0"/>
        <pt x="27" y="522" on="0"/>
        <pt x="221" y="724" on="0"/>
      </contour>
      <contour>
        <pt x="294" y="627" on="0"/>
        <pt x="207" y="492" on="0"/>
        <pt x="207" y="213" on="0"/>
        <pt x="294" y="78" on="0"/>
        <pt x="474" y="78" on="0"/>
        <pt x="561" y="213" on="0"/>
        <pt x="561" y="492" on="0"/>
        <pt x="474" y="627" on="0"/>
      </contour>
      <contour>
        <pt x="503" y="908" on="1"/>
        <pt x="539" y="824" on="1"/>
        <pt x="396" y="784" on="0"/>
        <pt x="377" y="778" on="1"/>
        <pt x="303" y="740" on="1"/>
        <pt x="266" y="804" on="1"/>
      </contour>
    </TTGlyph>
    <TTGlyph name="Obreve" xMin="27" yMin="-19" xMax="741" yMax="898">
      <contour>
        <pt x="547" y="724" on="0"/>
        <pt x="741" y="522" on="0"/>
        <pt x="741" y="183" on="0"/>
        <pt x="547" y="-19" on="0"/>
        <pt x="221" y="-19" on="0"/>
        <pt x="27" y="183" on="0"/>
        <pt x="27" y="522" on="0"/>
        <pt x="221" y="724" on="0"/>
      </contour>
      <contour>
        <pt x="294" y="627" on="0"/>
        <pt x="207" y="492" on="0"/>
        <pt x="207" y="213" on="0"/>
        <pt x="294" y="78" on="0"/>
        <pt x="474" y="78" on="0"/>
        <pt x="561" y="213" on="0"/>
        <pt x="561" y="492" on="0"/>
        <pt x="474" y="627" on="0"/>
      </contour>
      <contour>
        <pt x="471" y="898" on="1"/>
        <pt x="537" y="898" on="1"/>
        <pt x="537" y="824" on="0"/>
        <pt x="454" y="743" on="0"/>
        <pt x="312" y="743" on="0"/>
        <pt x="229" y="824" on="0"/>
        <pt x="229" y="898" on="1"/>
        <pt x="295" y="898" on="1"/>
        <pt x="295" y="861" on="0"/>
        <pt x="344" y="819" on="0"/>
        <pt x="422" y="819" on="0"/>
        <pt x="471" y="861" on="0"/>
      </contour>
    </TTGlyph>
    <TTGlyph name="Ocircumflex" xMin="27" yMin="-19" xMax="741" yMax="938">
      <contour>
        <pt x="547" y="724" on="0"/>
        <pt x="741" y="522" on="0"/>
        <pt x="741" y="183" on="0"/>
        <pt x="547" y="-19" on="0"/>
        <pt x="221" y="-19" on="0"/>
        <pt x="27" y="183" on="0"/>
        <pt x="27" y="522" on="0"/>
        <pt x="221" y="724" on="0"/>
      </contour>
      <contour>
        <pt x="294" y="627" on="0"/>
        <pt x="207" y="492" on="0"/>
        <pt x="207" y="213" on="0"/>
        <pt x="294" y="78" on="0"/>
        <pt x="474" y="78" on="0"/>
        <pt x="561" y="213" on="0"/>
        <pt x="561" y="492" on="0"/>
        <pt x="474" y="627" on="0"/>
      </contour>
      <contour>
        <pt x="383" y="938" on="1"/>
        <pt x="581" y="805" on="1"/>
        <pt x="534" y="747" on="1"/>
        <pt x="467" y="796" on="1"/>
        <pt x="383" y="837" on="1"/>
        <pt x="299" y="796" on="1"/>
        <pt x="232" y="747" on="1"/>
        <pt x="185" y="805" on="1"/>
      </contour>
    </TTGlyph>
    <TTGlyph name="Odieresis" xMin="27" yMin="-19" xMax="741" yMax="896">
      <contour>
        <pt x="547" y="724" on="0"/>
        <pt x="741" y="522" on="0"/>
        <pt x="741" y="183" on="0"/>
        <pt x="547" y="-19" on="0"/>
        <pt x="221" y="-19" on="0"/>
        <pt x="27" y="183" on="0"/>
        <pt x="27" y="522" on="0"/>
        <pt x="221" y="724" on="0"/>
      </contour>
      <contour>
        <pt x="294" y="627" on="0"/>
        <pt x="207" y="492" on="0"/>
        <pt x="207" y="213" on="0"/>
        <pt x="294" y="78" on="0"/>
        <pt x="474" y="78" on="0"/>
        <pt x="561" y="213" on="0"/>
        <pt x="561" y="492" on="0"/>
        <pt x="474" y="627" on="0"/>
      </contour>
      <contour>
        <pt x="233" y="896" on="0"/>
        <pt x="297" y="896" on="0"/>
        <pt x="332" y="859" on="0"/>
        <pt x="332" y="794" on="0"/>
        <pt x="297" y="757" on="0"/>
        <pt x="233" y="757" on="0"/>
        <pt x="197" y="795" on="0"/>
        <pt x="197" y="858" on="0"/>
      </contour>
      <contour>
        <pt x="470" y="896" on="0"/>
        <pt x="534" y="896" on="0"/>
        <pt x="569" y="859" on="0"/>
        <pt x="569" y="794" on="0"/>
        <pt x="534" y="757" on="0"/>
        <pt x="470" y="757" on="0"/>
        <pt x="435" y="794" on="0"/>
        <pt x="435" y="858" on="0"/>
      </contour>
    </TTGlyph>
    <TTGlyph name="Ograve" xMin="27" yMin="-19" xMax="741" yMax="908">
      <contour>
        <pt x="547" y="724" on="0"/>
        <pt x="741" y="522" on="0"/>
        <pt x="741" y="183" on="0"/>
        <pt x="547" y="-19" on="0"/>
        <pt x="221" y="-19" on="0"/>
        <pt x="27" y="183" on="0"/>
        <pt x="27" y="522" on="0"/>
        <pt x="221" y="724" on="0"/>
      </contour>
      <contour>
        <pt x="294" y="627" on="0"/>
        <pt x="207" y="492" on="0"/>
        <pt x="207" y="213" on="0"/>
        <pt x="294" y="78" on="0"/>
        <pt x="474" y="78" on="0"/>
        <pt x="561" y="213" on="0"/>
        <pt x="561" y="492" on="0"/>
        <pt x="474" y="627" on="0"/>
      </contour>
      <contour>
        <pt x="499" y="804" on="1"/>
        <pt x="462" y="740" on="1"/>
        <pt x="388" y="778" on="1"/>
        <pt x="226" y="824" on="1"/>
        <pt x="262" y="908" on="1"/>
      </contour>
    </TTGlyph>
    <TTGlyph name="Ohungarumlaut" xMin="27" yMin="-19" xMax="741" yMax="918">
      <contour>
        <pt x="547" y="724" on="0"/>
        <pt x="741" y="522" on="0"/>
        <pt x="741" y="183" on="0"/>
        <pt x="547" y="-19" on="0"/>
        <pt x="221" y="-19" on="0"/>
        <pt x="27" y="183" on="0"/>
        <pt x="27" y="522" on="0"/>
        <pt x="221" y="724" on="0"/>
      </contour>
      <contour>
        <pt x="294" y="627" on="0"/>
        <pt x="207" y="492" on="0"/>
        <pt x="207" y="213" on="0"/>
        <pt x="294" y="78" on="0"/>
        <pt x="474" y="78" on="0"/>
        <pt x="561" y="213" on="0"/>
        <pt x="561" y="492" on="0"/>
        <pt x="474" y="627" on="0"/>
      </contour>
      <contour>
        <pt x="414" y="918" on="1"/>
        <pt x="450" y="839" on="1"/>
        <pt x="311" y="780" on="0"/>
        <pt x="292" y="774" on="1"/>
        <pt x="218" y="734" on="1"/>
        <pt x="179" y="797" on="1"/>
      </contour>
      <contour>
        <pt x="639" y="913" on="1"/>
        <pt x="675" y="829" on="1"/>
        <pt x="532" y="778" on="0"/>
        <pt x="513" y="772" on="1"/>
        <pt x="439" y="734" on="1"/>
        <pt x="403" y="796" on="1"/>
      </contour>
    </TTGlyph>
    <TTGlyph name="Omacron" xMin="27" yMin="-19" xMax="741" yMax="844">
      <contour>
        <pt x="547" y="724" on="0"/>
        <pt x="741" y="522" on="0"/>
        <pt x="741" y="183" on="0"/>
        <pt x="547" y="-19" on="0"/>
        <pt x="221" y="-19" on="0"/>
        <pt x="27" y="183" on="0"/>
        <pt x="27" y="522" on="0"/>
        <pt x="221" y="724" on="0"/>
      </contour>
      <contour>
        <pt x="294" y="627" on="0"/>
        <pt x="207" y="492" on="0"/>
        <pt x="207" y="213" on="0"/>
        <pt x="294" y="78" on="0"/>
        <pt x="474" y="78" on="0"/>
        <pt x="561" y="213" on="0"/>
        <pt x="561" y="492" on="0"/>
        <pt x="474" y="627" on="0"/>
      </contour>
      <contour>
        <pt x="222" y="771" on="1"/>
        <pt x="222" y="844" on="1"/>
        <pt x="544" y="844" on="1"/>
        <pt x="537" y="771" on="1"/>
      </contour>
    </TTGlyph>
    <TTGlyph name="Omega" xMin="20" yMin="-4" xMax="846" yMax="720">
      <contour>
        <pt x="91" y="381" on="1"/>
        <pt x="91" y="534" on="0"/>
        <pt x="272" y="720" on="0"/>
        <pt x="594" y="720" on="0"/>
        <pt x="775" y="534" on="0"/>
        <pt x="775" y="381" on="1"/>
        <pt x="775" y="277" on="0"/>
        <pt x="675" y="117" on="0"/>
        <pt x="582" y="82" on="1"/>
        <pt x="668" y="85" on="1"/>
        <pt x="709" y="88" on="0"/>
        <pt x="749" y="96" on="1"/>
        <pt x="771" y="154" on="0"/>
        <pt x="776" y="195" on="1"/>
        <pt x="846" y="190" on="1"/>
        <pt x="831" y="14" on="1"/>
        <pt x="812" y="-4" on="1"/>
        <pt x="718" y="0" on="0"/>
        <pt x="698" y="0" on="1"/>
        <pt x="500" y="0" on="1"/>
        <pt x="487" y="128" on="1"/>
        <pt x="595" y="170" on="0"/>
        <pt x="595" y="381" on="1"/>
        <pt x="595" y="488" on="0"/>
        <pt x="509" y="623" on="0"/>
        <pt x="357" y="623" on="0"/>
        <pt x="271" y="488" on="0"/>
        <pt x="271" y="381" on="1"/>
        <pt x="271" y="170" on="0"/>
        <pt x="379" y="128" on="1"/>
        <pt x="366" y="0" on="1"/>
        <pt x="168" y="0" on="1"/>
        <pt x="54" y="-4" on="1"/>
        <pt x="35" y="14" on="1"/>
        <pt x="20" y="190" on="1"/>
        <pt x="90" y="195" on="1"/>
        <pt x="93" y="172" on="0"/>
        <pt x="104" y="125" on="0"/>
        <pt x="117" y="96" on="1"/>
        <pt x="157" y="88" on="0"/>
        <pt x="198" y="85" on="1"/>
        <pt x="284" y="82" on="1"/>
        <pt x="191" y="117" on="0"/>
        <pt x="91" y="277" on="0"/>
      </contour>
    </TTGlyph>
    <TTGlyph name="Oslash" xMin="27" yMin="-137" xMax="741" yMax="838">
      <contour>
        <pt x="741" y="352" on="1"/>
        <pt x="741" y="183" on="0"/>
        <pt x="547" y="-19" on="0"/>
        <pt x="384" y="-19" on="1"/>
        <pt x="306" y="-19" on="0"/>
        <pt x="239" y="6" on="1"/>
        <pt x="164" y="-137" on="1"/>
        <pt x="107" y="-108" on="1"/>
        <pt x="182" y="35" on="1"/>
        <pt x="108" y="82" on="0"/>
        <pt x="27" y="245" on="0"/>
        <pt x="27" y="352" on="1"/>
        <pt x="27" y="522" on="0"/>
        <pt x="221" y="724" on="0"/>
        <pt x="384" y="724" on="1"/>
        <pt x="464" y="724" on="0"/>
        <pt x="530" y="698" on="1"/>
        <pt x="604" y="838" on="1"/>
        <pt x="663" y="809" on="1"/>
        <pt x="588" y="668" on="1"/>
        <pt x="661" y="621" on="0"/>
        <pt x="741" y="458" on="0"/>
      </contour>
      <contour>
        <pt x="294" y="627" on="0"/>
        <pt x="207" y="492" on="0"/>
        <pt x="207" y="221" on="0"/>
        <pt x="244" y="154" on="1"/>
        <pt x="479" y="600" on="1"/>
        <pt x="440" y="627" on="0"/>
        <pt x="384" y="627" on="1"/>
      </contour>
      <contour>
        <pt x="384" y="78" on="1"/>
        <pt x="561" y="78" on="0"/>
        <pt x="561" y="346" on="1"/>
        <pt x="561" y="480" on="0"/>
        <pt x="525" y="547" on="1"/>
        <pt x="290" y="103" on="1"/>
        <pt x="328" y="78" on="0"/>
      </contour>
    </TTGlyph>
    <TTGlyph name="Oslashacute" xMin="27" yMin="-137" xMax="741" yMax="898">
      <contour>
        <pt x="741" y="352" on="1"/>
        <pt x="741" y="183" on="0"/>
        <pt x="547" y="-19" on="0"/>
        <pt x="384" y="-19" on="1"/>
        <pt x="306" y="-19" on="0"/>
        <pt x="239" y="6" on="1"/>
        <pt x="164" y="-137" on="1"/>
        <pt x="107" y="-108" on="1"/>
        <pt x="182" y="35" on="1"/>
        <pt x="108" y="82" on="0"/>
        <pt x="27" y="245" on="0"/>
        <pt x="27" y="352" on="1"/>
        <pt x="27" y="522" on="0"/>
        <pt x="221" y="724" on="0"/>
        <pt x="384" y="724" on="1"/>
        <pt x="464" y="724" on="0"/>
        <pt x="530" y="698" on="1"/>
        <pt x="604" y="838" on="1"/>
        <pt x="663" y="809" on="1"/>
        <pt x="588" y="668" on="1"/>
        <pt x="661" y="621" on="0"/>
        <pt x="741" y="458" on="0"/>
      </contour>
      <contour>
        <pt x="294" y="627" on="0"/>
        <pt x="207" y="492" on="0"/>
        <pt x="207" y="221" on="0"/>
        <pt x="244" y="154" on="1"/>
        <pt x="479" y="600" on="1"/>
        <pt x="440" y="627" on="0"/>
        <pt x="384" y="627" on="1"/>
      </contour>
      <contour>
        <pt x="384" y="78" on="1"/>
        <pt x="561" y="78" on="0"/>
        <pt x="561" y="346" on="1"/>
        <pt x="561" y="480" on="0"/>
        <pt x="525" y="547" on="1"/>
        <pt x="290" y="103" on="1"/>
        <pt x="328" y="78" on="0"/>
      </contour>
      <contour>
        <pt x="503" y="898" on="1"/>
        <pt x="539" y="814" on="1"/>
        <pt x="396" y="774" on="0"/>
        <pt x="377" y="768" on="1"/>
        <pt x="303" y="730" on="1"/>
        <pt x="266" y="794" on="1"/>
      </contour>
    </TTGlyph>
    <TTGlyph name="Otilde" xMin="27" yMin="-19" xMax="741" yMax="883">
      <contour>
        <pt x="547" y="724" on="0"/>
        <pt x="741" y="522" on="0"/>
        <pt x="741" y="183" on="0"/>
        <pt x="547" y="-19" on="0"/>
        <pt x="221" y="-19" on="0"/>
        <pt x="27" y="183" on="0"/>
        <pt x="27" y="522" on="0"/>
        <pt x="221" y="724" on="0"/>
      </contour>
      <contour>
        <pt x="294" y="627" on="0"/>
        <pt x="207" y="492" on="0"/>
        <pt x="207" y="213" on="0"/>
        <pt x="294" y="78" on="0"/>
        <pt x="474" y="78" on="0"/>
        <pt x="561" y="213" on="0"/>
        <pt x="561" y="492" on="0"/>
        <pt x="474" y="627" on="0"/>
      </contour>
      <contour>
        <pt x="542" y="810" on="0"/>
        <pt x="495" y="754" on="0"/>
        <pt x="454" y="754" on="0"/>
        <pt x="312" y="792" on="0"/>
        <pt x="296" y="792" on="1"/>
        <pt x="270" y="792" on="0"/>
        <pt x="249" y="760" on="1"/>
        <pt x="242" y="750" on="1"/>
        <pt x="195" y="778" on="1"/>
        <pt x="211" y="816" on="0"/>
        <pt x="265" y="883" on="0"/>
        <pt x="305" y="883" on="0"/>
        <pt x="448" y="845" on="0"/>
        <pt x="464" y="845" on="1"/>
        <pt x="491" y="845" on="0"/>
        <pt x="509" y="874" on="1"/>
        <pt x="515" y="883" on="1"/>
        <pt x="564" y="855" on="1"/>
        <pt x="559" y="844" on="0"/>
      </contour>
    </TTGlyph>
    <TTGlyph name="P" xMin="45" yMin="-5" xMax="601" yMax="715">
      <contour>
        <pt x="150" y="705" on="1"/>
        <pt x="365" y="715" on="1"/>
        <pt x="472" y="715" on="0"/>
        <pt x="601" y="599" on="0"/>
        <pt x="601" y="394" on="0"/>
        <pt x="442" y="271" on="0"/>
        <pt x="330" y="271" on="1"/>
        <pt x="275" y="271" on="1"/>
        <pt x="275" y="193" on="1"/>
        <pt x="275" y="140" on="0"/>
        <pt x="284" y="77" on="1"/>
        <pt x="359" y="71" on="1"/>
        <pt x="354" y="-5" on="1"/>
        <pt x="263" y="0" on="0"/>
        <pt x="150" y="0" on="1"/>
        <pt x="50" y="-5" on="1"/>
        <pt x="45" y="65" on="1"/>
        <pt x="111" y="77" on="1"/>
        <pt x="111" y="77" on="0"/>
        <pt x="120" y="163" on="1"/>
        <pt x="120" y="512" on="1"/>
        <pt x="120" y="551" on="0"/>
        <pt x="111" y="623" on="1"/>
        <pt x="46" y="635" on="1"/>
        <pt x="51" y="710" on="1"/>
        <pt x="103" y="705" on="0"/>
      </contour>
      <contour>
        <pt x="307" y="633" on="1"/>
        <pt x="279" y="632" on="1"/>
        <pt x="275" y="580" on="0"/>
        <pt x="275" y="542" on="1"/>
        <pt x="275" y="353" on="1"/>
        <pt x="292" y="353" on="1"/>
        <pt x="361" y="353" on="0"/>
        <pt x="440" y="429" on="0"/>
        <pt x="440" y="568" on="0"/>
        <pt x="377" y="633" on="0"/>
      </contour>
    </TTGlyph>
    <TTGlyph name="Q" xMin="27" yMin="-224" xMax="773" yMax="724">
      <contour>
        <pt x="384" y="-19" on="1"/>
        <pt x="221" y="-19" on="0"/>
        <pt x="27" y="183" on="0"/>
        <pt x="27" y="522" on="0"/>
        <pt x="221" y="724" on="0"/>
        <pt x="547" y="724" on="0"/>
        <pt x="741" y="522" on="0"/>
        <pt x="741" y="352" on="1"/>
        <pt x="741" y="232" on="0"/>
        <pt x="638" y="56" on="0"/>
        <pt x="546" y="14" on="1"/>
        <pt x="615" y="-32" on="1"/>
        <pt x="773" y="-100" on="1"/>
        <pt x="683" y="-224" on="1"/>
        <pt x="405" y="-19" on="1"/>
      </contour>
      <contour>
        <pt x="294" y="627" on="0"/>
        <pt x="207" y="492" on="0"/>
        <pt x="207" y="213" on="0"/>
        <pt x="294" y="78" on="0"/>
        <pt x="474" y="78" on="0"/>
        <pt x="561" y="213" on="0"/>
        <pt x="561" y="492" on="0"/>
        <pt x="474" y="627" on="0"/>
      </contour>
    </TTGlyph>
    <TTGlyph name="R" xMin="45" yMin="-5" xMax="662" yMax="715">
      <contour>
        <pt x="154" y="705" on="1"/>
        <pt x="360" y="715" on="1"/>
        <pt x="466" y="715" on="0"/>
        <pt x="594" y="602" on="0"/>
        <pt x="594" y="504" on="1"/>
        <pt x="594" y="442" on="0"/>
        <pt x="528" y="344" on="0"/>
        <pt x="472" y="314" on="1"/>
        <pt x="503" y="252" on="0"/>
        <pt x="579" y="131" on="1"/>
        <pt x="614" y="75" on="1"/>
        <pt x="662" y="71" on="1"/>
        <pt x="657" y="-5" on="1"/>
        <pt x="579" y="0" on="0"/>
        <pt x="466" y="0" on="1"/>
        <pt x="430" y="92" on="0"/>
        <pt x="417" y="116" on="1"/>
        <pt x="334" y="277" on="1"/>
        <pt x="319" y="277" on="1"/>
        <pt x="300" y="277" on="0"/>
        <pt x="275" y="280" on="1"/>
        <pt x="275" y="193" on="1"/>
        <pt x="275" y="140" on="0"/>
        <pt x="284" y="77" on="1"/>
        <pt x="349" y="71" on="1"/>
        <pt x="344" y="-5" on="1"/>
        <pt x="263" y="0" on="0"/>
        <pt x="150" y="0" on="1"/>
        <pt x="50" y="-5" on="1"/>
        <pt x="45" y="65" on="1"/>
        <pt x="111" y="77" on="1"/>
        <pt x="120" y="163" on="1"/>
        <pt x="120" y="512" on="1"/>
        <pt x="120" y="538" on="0"/>
        <pt x="111" y="623" on="1"/>
        <pt x="46" y="635" on="1"/>
        <pt x="51" y="710" on="1"/>
        <pt x="104" y="705" on="0"/>
      </contour>
      <contour>
        <pt x="302" y="633" on="1"/>
        <pt x="290" y="633" on="0"/>
        <pt x="281" y="632" on="1"/>
        <pt x="275" y="572" on="0"/>
        <pt x="275" y="542" on="1"/>
        <pt x="275" y="361" on="1"/>
        <pt x="299" y="361" on="1"/>
        <pt x="369" y="361" on="0"/>
        <pt x="433" y="431" on="0"/>
        <pt x="433" y="502" on="1"/>
        <pt x="433" y="633" on="0"/>
      </contour>
    </TTGlyph>
    <TTGlyph name="Racute" xMin="45" yMin="-5" xMax="662" yMax="898">
      <contour>
        <pt x="154" y="705" on="1"/>
        <pt x="360" y="715" on="1"/>
        <pt x="466" y="715" on="0"/>
        <pt x="594" y="602" on="0"/>
        <pt x="594" y="504" on="1"/>
        <pt x="594" y="442" on="0"/>
        <pt x="528" y="344" on="0"/>
        <pt x="472" y="314" on="1"/>
        <pt x="503" y="252" on="0"/>
        <pt x="579" y="131" on="1"/>
        <pt x="614" y="75" on="1"/>
        <pt x="662" y="71" on="1"/>
        <pt x="657" y="-5" on="1"/>
        <pt x="579" y="0" on="0"/>
        <pt x="466" y="0" on="1"/>
        <pt x="430" y="92" on="0"/>
        <pt x="417" y="116" on="1"/>
        <pt x="334" y="277" on="1"/>
        <pt x="319" y="277" on="1"/>
        <pt x="300" y="277" on="0"/>
        <pt x="275" y="280" on="1"/>
        <pt x="275" y="193" on="1"/>
        <pt x="275" y="140" on="0"/>
        <pt x="284" y="77" on="1"/>
        <pt x="349" y="71" on="1"/>
        <pt x="344" y="-5" on="1"/>
        <pt x="263" y="0" on="0"/>
        <pt x="150" y="0" on="1"/>
        <pt x="50" y="-5" on="1"/>
        <pt x="45" y="65" on="1"/>
        <pt x="111" y="77" on="1"/>
        <pt x="120" y="163" on="1"/>
        <pt x="120" y="512" on="1"/>
        <pt x="120" y="538" on="0"/>
        <pt x="111" y="623" on="1"/>
        <pt x="46" y="635" on="1"/>
        <pt x="51" y="710" on="1"/>
        <pt x="104" y="705" on="0"/>
      </contour>
      <contour>
        <pt x="302" y="633" on="1"/>
        <pt x="290" y="633" on="0"/>
        <pt x="281" y="632" on="1"/>
        <pt x="275" y="572" on="0"/>
        <pt x="275" y="542" on="1"/>
        <pt x="275" y="361" on="1"/>
        <pt x="299" y="361" on="1"/>
        <pt x="369" y="361" on="0"/>
        <pt x="433" y="431" on="0"/>
        <pt x="433" y="502" on="1"/>
        <pt x="433" y="633" on="0"/>
      </contour>
      <contour>
        <pt x="451" y="898" on="1"/>
        <pt x="487" y="814" on="1"/>
        <pt x="344" y="774" on="0"/>
        <pt x="325" y="768" on="1"/>
        <pt x="251" y="730" on="1"/>
        <pt x="214" y="794" on="1"/>
      </contour>
    </TTGlyph>
    <TTGlyph name="Rcaron" xMin="45" yMin="-5" xMax="662" yMax="929">
      <contour>
        <pt x="154" y="705" on="1"/>
        <pt x="360" y="715" on="1"/>
        <pt x="466" y="715" on="0"/>
        <pt x="594" y="602" on="0"/>
        <pt x="594" y="504" on="1"/>
        <pt x="594" y="442" on="0"/>
        <pt x="528" y="344" on="0"/>
        <pt x="472" y="314" on="1"/>
        <pt x="503" y="252" on="0"/>
        <pt x="579" y="131" on="1"/>
        <pt x="614" y="75" on="1"/>
        <pt x="662" y="71" on="1"/>
        <pt x="657" y="-5" on="1"/>
        <pt x="579" y="0" on="0"/>
        <pt x="466" y="0" on="1"/>
        <pt x="430" y="92" on="0"/>
        <pt x="417" y="116" on="1"/>
        <pt x="334" y="277" on="1"/>
        <pt x="319" y="277" on="1"/>
        <pt x="300" y="277" on="0"/>
        <pt x="275" y="280" on="1"/>
        <pt x="275" y="193" on="1"/>
        <pt x="275" y="140" on="0"/>
        <pt x="284" y="77" on="1"/>
        <pt x="349" y="71" on="1"/>
        <pt x="344" y="-5" on="1"/>
        <pt x="263" y="0" on="0"/>
        <pt x="150" y="0" on="1"/>
        <pt x="50" y="-5" on="1"/>
        <pt x="45" y="65" on="1"/>
        <pt x="111" y="77" on="1"/>
        <pt x="120" y="163" on="1"/>
        <pt x="120" y="512" on="1"/>
        <pt x="120" y="538" on="0"/>
        <pt x="111" y="623" on="1"/>
        <pt x="46" y="635" on="1"/>
        <pt x="51" y="710" on="1"/>
        <pt x="104" y="705" on="0"/>
      </contour>
      <contour>
        <pt x="302" y="633" on="1"/>
        <pt x="290" y="633" on="0"/>
        <pt x="281" y="632" on="1"/>
        <pt x="275" y="572" on="0"/>
        <pt x="275" y="542" on="1"/>
        <pt x="275" y="361" on="1"/>
        <pt x="299" y="361" on="1"/>
        <pt x="369" y="361" on="0"/>
        <pt x="433" y="431" on="0"/>
        <pt x="433" y="502" on="1"/>
        <pt x="433" y="633" on="0"/>
      </contour>
      <contour>
        <pt x="482" y="929" on="1"/>
        <pt x="529" y="871" on="1"/>
        <pt x="331" y="738" on="1"/>
        <pt x="133" y="871" on="1"/>
        <pt x="180" y="929" on="1"/>
        <pt x="247" y="880" on="1"/>
        <pt x="331" y="839" on="1"/>
        <pt x="415" y="880" on="1"/>
      </contour>
    </TTGlyph>
    <TTGlyph name="Rcommaaccent" xMin="45" yMin="-274" xMax="662" yMax="715">
      <contour>
        <pt x="154" y="705" on="1"/>
        <pt x="360" y="715" on="1"/>
        <pt x="466" y="715" on="0"/>
        <pt x="594" y="602" on="0"/>
        <pt x="594" y="504" on="1"/>
        <pt x="594" y="442" on="0"/>
        <pt x="528" y="344" on="0"/>
        <pt x="472" y="314" on="1"/>
        <pt x="503" y="252" on="0"/>
        <pt x="579" y="131" on="1"/>
        <pt x="614" y="75" on="1"/>
        <pt x="662" y="71" on="1"/>
        <pt x="657" y="-5" on="1"/>
        <pt x="579" y="0" on="0"/>
        <pt x="466" y="0" on="1"/>
        <pt x="430" y="92" on="0"/>
        <pt x="417" y="116" on="1"/>
        <pt x="334" y="277" on="1"/>
        <pt x="319" y="277" on="1"/>
        <pt x="300" y="277" on="0"/>
        <pt x="275" y="280" on="1"/>
        <pt x="275" y="193" on="1"/>
        <pt x="275" y="140" on="0"/>
        <pt x="284" y="77" on="1"/>
        <pt x="349" y="71" on="1"/>
        <pt x="344" y="-5" on="1"/>
        <pt x="263" y="0" on="0"/>
        <pt x="150" y="0" on="1"/>
        <pt x="50" y="-5" on="1"/>
        <pt x="45" y="65" on="1"/>
        <pt x="111" y="77" on="1"/>
        <pt x="120" y="163" on="1"/>
        <pt x="120" y="512" on="1"/>
        <pt x="120" y="538" on="0"/>
        <pt x="111" y="623" on="1"/>
        <pt x="46" y="635" on="1"/>
        <pt x="51" y="710" on="1"/>
        <pt x="104" y="705" on="0"/>
      </contour>
      <contour>
        <pt x="302" y="633" on="1"/>
        <pt x="290" y="633" on="0"/>
        <pt x="281" y="632" on="1"/>
        <pt x="275" y="572" on="0"/>
        <pt x="275" y="542" on="1"/>
        <pt x="275" y="361" on="1"/>
        <pt x="299" y="361" on="1"/>
        <pt x="369" y="361" on="0"/>
        <pt x="433" y="431" on="0"/>
        <pt x="433" y="502" on="1"/>
        <pt x="433" y="633" on="0"/>
      </contour>
      <contour>
        <pt x="354" y="-180" on="1"/>
        <pt x="313" y="-166" on="0"/>
        <pt x="313" y="-94" on="0"/>
        <pt x="351" y="-58" on="0"/>
        <pt x="408" y="-58" on="0"/>
        <pt x="443" y="-98" on="0"/>
        <pt x="443" y="-159" on="0"/>
        <pt x="412" y="-229" on="0"/>
        <pt x="397" y="-252" on="1"/>
        <pt x="382" y="-274" on="1"/>
        <pt x="336" y="-262" on="1"/>
        <pt x="354" y="-207" on="0"/>
      </contour>
    </TTGlyph>
    <TTGlyph name="S" xMin="44" yMin="-15" xMax="534" yMax="720">
      <contour>
        <pt x="142" y="221" on="1"/>
        <pt x="143" y="163" on="0"/>
        <pt x="143" y="144" on="0"/>
        <pt x="157" y="110" on="1"/>
        <pt x="210" y="82" on="0"/>
        <pt x="310" y="82" on="0"/>
        <pt x="369" y="125" on="0"/>
        <pt x="369" y="200" on="0"/>
        <pt x="322" y="254" on="0"/>
        <pt x="251" y="287" on="0"/>
        <pt x="169" y="332" on="0"/>
        <pt x="98" y="380" on="0"/>
        <pt x="51" y="465" on="0"/>
        <pt x="51" y="521" on="1"/>
        <pt x="51" y="612" on="0"/>
        <pt x="182" y="720" on="0"/>
        <pt x="386" y="720" on="0"/>
        <pt x="506" y="684" on="1"/>
        <pt x="492" y="491" on="1"/>
        <pt x="409" y="496" on="1"/>
        <pt x="409" y="570" on="1"/>
        <pt x="409" y="575" on="0"/>
        <pt x="397" y="604" on="1"/>
        <pt x="355" y="627" on="0"/>
        <pt x="270" y="627" on="0"/>
        <pt x="216" y="584" on="0"/>
        <pt x="216" y="510" on="0"/>
        <pt x="282" y="454" on="0"/>
        <pt x="375" y="412" on="0"/>
        <pt x="468" y="360" on="0"/>
        <pt x="534" y="268" on="0"/>
        <pt x="534" y="204" on="1"/>
        <pt x="534" y="104" on="0"/>
        <pt x="388" y="-15" on="0"/>
        <pt x="277" y="-15" on="1"/>
        <pt x="217" y="-15" on="0"/>
        <pt x="100" y="9" on="0"/>
        <pt x="72" y="21" on="1"/>
        <pt x="44" y="33" on="1"/>
        <pt x="59" y="226" on="1"/>
      </contour>
    </TTGlyph>
    <TTGlyph name="Sacute" xMin="44" yMin="-15" xMax="534" yMax="898">
      <contour>
        <pt x="142" y="221" on="1"/>
        <pt x="143" y="163" on="0"/>
        <pt x="143" y="144" on="0"/>
        <pt x="157" y="110" on="1"/>
        <pt x="210" y="82" on="0"/>
        <pt x="310" y="82" on="0"/>
        <pt x="369" y="125" on="0"/>
        <pt x="369" y="200" on="0"/>
        <pt x="322" y="254" on="0"/>
        <pt x="251" y="287" on="0"/>
        <pt x="169" y="332" on="0"/>
        <pt x="98" y="380" on="0"/>
        <pt x="51" y="465" on="0"/>
        <pt x="51" y="521" on="1"/>
        <pt x="51" y="612" on="0"/>
        <pt x="182" y="720" on="0"/>
        <pt x="386" y="720" on="0"/>
        <pt x="506" y="684" on="1"/>
        <pt x="492" y="491" on="1"/>
        <pt x="409" y="496" on="1"/>
        <pt x="409" y="570" on="1"/>
        <pt x="409" y="575" on="0"/>
        <pt x="397" y="604" on="1"/>
        <pt x="355" y="627" on="0"/>
        <pt x="270" y="627" on="0"/>
        <pt x="216" y="584" on="0"/>
        <pt x="216" y="510" on="0"/>
        <pt x="282" y="454" on="0"/>
        <pt x="375" y="412" on="0"/>
        <pt x="468" y="360" on="0"/>
        <pt x="534" y="268" on="0"/>
        <pt x="534" y="204" on="1"/>
        <pt x="534" y="104" on="0"/>
        <pt x="388" y="-15" on="0"/>
        <pt x="277" y="-15" on="1"/>
        <pt x="217" y="-15" on="0"/>
        <pt x="100" y="9" on="0"/>
        <pt x="72" y="21" on="1"/>
        <pt x="44" y="33" on="1"/>
        <pt x="59" y="226" on="1"/>
      </contour>
      <contour>
        <pt x="410" y="898" on="1"/>
        <pt x="446" y="814" on="1"/>
        <pt x="303" y="774" on="0"/>
        <pt x="284" y="768" on="1"/>
        <pt x="210" y="730" on="1"/>
        <pt x="173" y="794" on="1"/>
      </contour>
    </TTGlyph>
    <TTGlyph name="Scaron" xMin="44" yMin="-15" xMax="534" yMax="929">
      <contour>
        <pt x="142" y="221" on="1"/>
        <pt x="143" y="163" on="0"/>
        <pt x="143" y="144" on="0"/>
        <pt x="157" y="110" on="1"/>
        <pt x="210" y="82" on="0"/>
        <pt x="310" y="82" on="0"/>
        <pt x="369" y="125" on="0"/>
        <pt x="369" y="200" on="0"/>
        <pt x="322" y="254" on="0"/>
        <pt x="251" y="287" on="0"/>
        <pt x="169" y="332" on="0"/>
        <pt x="98" y="380" on="0"/>
        <pt x="51" y="465" on="0"/>
        <pt x="51" y="521" on="1"/>
        <pt x="51" y="612" on="0"/>
        <pt x="182" y="720" on="0"/>
        <pt x="386" y="720" on="0"/>
        <pt x="506" y="684" on="1"/>
        <pt x="492" y="491" on="1"/>
        <pt x="409" y="496" on="1"/>
        <pt x="409" y="570" on="1"/>
        <pt x="409" y="575" on="0"/>
        <pt x="397" y="604" on="1"/>
        <pt x="355" y="627" on="0"/>
        <pt x="270" y="627" on="0"/>
        <pt x="216" y="584" on="0"/>
        <pt x="216" y="510" on="0"/>
        <pt x="282" y="454" on="0"/>
        <pt x="375" y="412" on="0"/>
        <pt x="468" y="360" on="0"/>
        <pt x="534" y="268" on="0"/>
        <pt x="534" y="204" on="1"/>
        <pt x="534" y="104" on="0"/>
        <pt x="388" y="-15" on="0"/>
        <pt x="277" y="-15" on="1"/>
        <pt x="217" y="-15" on="0"/>
        <pt x="100" y="9" on="0"/>
        <pt x="72" y="21" on="1"/>
        <pt x="44" y="33" on="1"/>
        <pt x="59" y="226" on="1"/>
      </contour>
      <contour>
        <pt x="441" y="929" on="1"/>
        <pt x="488" y="871" on="1"/>
        <pt x="290" y="738" on="1"/>
        <pt x="92" y="871" on="1"/>
        <pt x="139" y="929" on="1"/>
        <pt x="206" y="880" on="1"/>
        <pt x="290" y="839" on="1"/>
        <pt x="374" y="880" on="1"/>
      </contour>
    </TTGlyph>
    <TTGlyph name="Scedilla" xMin="44" yMin="-235" xMax="534" yMax="720">
      <contour>
        <pt x="142" y="221" on="1"/>
        <pt x="143" y="163" on="0"/>
        <pt x="143" y="144" on="0"/>
        <pt x="157" y="110" on="1"/>
        <pt x="210" y="82" on="0"/>
        <pt x="310" y="82" on="0"/>
        <pt x="369" y="125" on="0"/>
        <pt x="369" y="200" on="0"/>
        <pt x="322" y="254" on="0"/>
        <pt x="251" y="287" on="0"/>
        <pt x="169" y="332" on="0"/>
        <pt x="98" y="380" on="0"/>
        <pt x="51" y="465" on="0"/>
        <pt x="51" y="521" on="1"/>
        <pt x="51" y="612" on="0"/>
        <pt x="182" y="720" on="0"/>
        <pt x="386" y="720" on="0"/>
        <pt x="506" y="684" on="1"/>
        <pt x="492" y="491" on="1"/>
        <pt x="409" y="496" on="1"/>
        <pt x="409" y="570" on="1"/>
        <pt x="409" y="575" on="0"/>
        <pt x="397" y="604" on="1"/>
        <pt x="355" y="627" on="0"/>
        <pt x="270" y="627" on="0"/>
        <pt x="216" y="584" on="0"/>
        <pt x="216" y="510" on="0"/>
        <pt x="282" y="454" on="0"/>
        <pt x="375" y="412" on="0"/>
        <pt x="468" y="360" on="0"/>
        <pt x="534" y="268" on="0"/>
        <pt x="534" y="204" on="1"/>
        <pt x="534" y="111" on="0"/>
        <pt x="408" y="-4" on="0"/>
        <pt x="308" y="-13" on="1"/>
        <pt x="299" y="-59" on="1"/>
        <pt x="344" y="-60" on="0"/>
        <pt x="400" y="-106" on="0"/>
        <pt x="400" y="-191" on="0"/>
        <pt x="337" y="-235" on="0"/>
        <pt x="228" y="-235" on="0"/>
        <pt x="190" y="-217" on="1"/>
        <pt x="208" y="-168" on="1"/>
        <pt x="243" y="-179" on="0"/>
        <pt x="263" y="-179" on="1"/>
        <pt x="310" y="-179" on="0"/>
        <pt x="310" y="-146" on="1"/>
        <pt x="310" y="-115" on="0"/>
        <pt x="268" y="-115" on="1"/>
        <pt x="247" y="-116" on="1"/>
        <pt x="236" y="-102" on="1"/>
        <pt x="244" y="-14" on="1"/>
        <pt x="192" y="-11" on="0"/>
        <pt x="92" y="13" on="0"/>
        <pt x="68" y="23" on="1"/>
        <pt x="44" y="33" on="1"/>
        <pt x="59" y="226" on="1"/>
      </contour>
    </TTGlyph>
    <TTGlyph name="Scircumflex" xMin="44" yMin="-15" xMax="534" yMax="938">
      <contour>
        <pt x="142" y="221" on="1"/>
        <pt x="143" y="163" on="0"/>
        <pt x="143" y="144" on="0"/>
        <pt x="157" y="110" on="1"/>
        <pt x="210" y="82" on="0"/>
        <pt x="310" y="82" on="0"/>
        <pt x="369" y="125" on="0"/>
        <pt x="369" y="200" on="0"/>
        <pt x="322" y="254" on="0"/>
        <pt x="251" y="287" on="0"/>
        <pt x="169" y="332" on="0"/>
        <pt x="98" y="380" on="0"/>
        <pt x="51" y="465" on="0"/>
        <pt x="51" y="521" on="1"/>
        <pt x="51" y="612" on="0"/>
        <pt x="182" y="720" on="0"/>
        <pt x="386" y="720" on="0"/>
        <pt x="506" y="684" on="1"/>
        <pt x="492" y="491" on="1"/>
        <pt x="409" y="496" on="1"/>
        <pt x="409" y="570" on="1"/>
        <pt x="409" y="575" on="0"/>
        <pt x="397" y="604" on="1"/>
        <pt x="355" y="627" on="0"/>
        <pt x="270" y="627" on="0"/>
        <pt x="216" y="584" on="0"/>
        <pt x="216" y="510" on="0"/>
        <pt x="282" y="454" on="0"/>
        <pt x="375" y="412" on="0"/>
        <pt x="468" y="360" on="0"/>
        <pt x="534" y="268" on="0"/>
        <pt x="534" y="204" on="1"/>
        <pt x="534" y="104" on="0"/>
        <pt x="388" y="-15" on="0"/>
        <pt x="277" y="-15" on="1"/>
        <pt x="217" y="-15" on="0"/>
        <pt x="100" y="9" on="0"/>
        <pt x="72" y="21" on="1"/>
        <pt x="44" y="33" on="1"/>
        <pt x="59" y="226" on="1"/>
      </contour>
      <contour>
        <pt x="290" y="938" on="1"/>
        <pt x="488" y="805" on="1"/>
        <pt x="441" y="747" on="1"/>
        <pt x="374" y="796" on="1"/>
        <pt x="290" y="837" on="1"/>
        <pt x="206" y="796" on="1"/>
        <pt x="139" y="747" on="1"/>
        <pt x="92" y="805" on="1"/>
      </contour>
    </TTGlyph>
    <TTGlyph name="Scommaaccent" xMin="44" yMin="-274" xMax="534" yMax="720">
      <contour>
        <pt x="142" y="221" on="1"/>
        <pt x="143" y="163" on="0"/>
        <pt x="143" y="144" on="0"/>
        <pt x="157" y="110" on="1"/>
        <pt x="210" y="82" on="0"/>
        <pt x="310" y="82" on="0"/>
        <pt x="369" y="125" on="0"/>
        <pt x="369" y="200" on="0"/>
        <pt x="322" y="254" on="0"/>
        <pt x="251" y="287" on="0"/>
        <pt x="169" y="332" on="0"/>
        <pt x="98" y="380" on="0"/>
        <pt x="51" y="465" on="0"/>
        <pt x="51" y="521" on="1"/>
        <pt x="51" y="612" on="0"/>
        <pt x="182" y="720" on="0"/>
        <pt x="386" y="720" on="0"/>
        <pt x="506" y="684" on="1"/>
        <pt x="492" y="491" on="1"/>
        <pt x="409" y="496" on="1"/>
        <pt x="409" y="570" on="1"/>
        <pt x="409" y="575" on="0"/>
        <pt x="397" y="604" on="1"/>
        <pt x="355" y="627" on="0"/>
        <pt x="270" y="627" on="0"/>
        <pt x="216" y="584" on="0"/>
        <pt x="216" y="510" on="0"/>
        <pt x="282" y="454" on="0"/>
        <pt x="375" y="412" on="0"/>
        <pt x="468" y="360" on="0"/>
        <pt x="534" y="268" on="0"/>
        <pt x="534" y="204" on="1"/>
        <pt x="534" y="104" on="0"/>
        <pt x="388" y="-15" on="0"/>
        <pt x="277" y="-15" on="1"/>
        <pt x="217" y="-15" on="0"/>
        <pt x="100" y="9" on="0"/>
        <pt x="72" y="21" on="1"/>
        <pt x="44" y="33" on="1"/>
        <pt x="59" y="226" on="1"/>
      </contour>
      <contour>
        <pt x="254" y="-180" on="1"/>
        <pt x="213" y="-166" on="0"/>
        <pt x="213" y="-94" on="0"/>
        <pt x="251" y="-58" on="0"/>
        <pt x="308" y="-58" on="0"/>
        <pt x="343" y="-98" on="0"/>
        <pt x="343" y="-159" on="0"/>
        <pt x="312" y="-229" on="0"/>
        <pt x="297" y="-252" on="1"/>
        <pt x="282" y="-274" on="1"/>
        <pt x="236" y="-262" on="1"/>
        <pt x="254" y="-207" on="0"/>
      </contour>
    </TTGlyph>
    <TTGlyph name="T" xMin="10" yMin="-5" xMax="617" yMax="715">
      <contour>
        <pt x="227" y="77" on="1"/>
        <pt x="236" y="163" on="1"/>
        <pt x="236" y="512" on="1"/>
        <pt x="236" y="546" on="0"/>
        <pt x="227" y="623" on="1"/>
        <pt x="180" y="623" on="1"/>
        <pt x="150" y="623" on="0"/>
        <pt x="100" y="618" on="1"/>
        <pt x="91" y="596" on="0"/>
        <pt x="85" y="573" on="0"/>
        <pt x="82" y="526" on="1"/>
        <pt x="10" y="531" on="1"/>
        <pt x="17" y="697" on="1"/>
        <pt x="36" y="715" on="1"/>
        <pt x="130" y="705" on="0"/>
        <pt x="150" y="705" on="1"/>
        <pt x="476" y="705" on="1"/>
        <pt x="590" y="715" on="1"/>
        <pt x="609" y="697" on="1"/>
        <pt x="617" y="531" on="1"/>
        <pt x="545" y="526" on="1"/>
        <pt x="542" y="573" on="0"/>
        <pt x="536" y="596" on="0"/>
        <pt x="527" y="618" on="1"/>
        <pt x="482" y="623" on="0"/>
        <pt x="451" y="623" on="1"/>
        <pt x="400" y="623" on="1"/>
        <pt x="391" y="575" on="0"/>
        <pt x="391" y="542" on="1"/>
        <pt x="391" y="193" on="1"/>
        <pt x="391" y="140" on="0"/>
        <pt x="400" y="77" on="1"/>
        <pt x="465" y="71" on="1"/>
        <pt x="460" y="-5" on="1"/>
        <pt x="379" y="0" on="0"/>
        <pt x="266" y="0" on="1"/>
        <pt x="166" y="-5" on="1"/>
        <pt x="161" y="65" on="1"/>
      </contour>
    </TTGlyph>
    <TTGlyph name="Tbar" xMin="10" yMin="-5" xMax="617" yMax="715">
      <contour>
        <pt x="227" y="77" on="1"/>
        <pt x="236" y="163" on="1"/>
        <pt x="236" y="357" on="1"/>
        <pt x="95" y="357" on="1"/>
        <pt x="95" y="421" on="1"/>
        <pt x="236" y="421" on="1"/>
        <pt x="236" y="512" on="1"/>
        <pt x="236" y="546" on="0"/>
        <pt x="227" y="623" on="1"/>
        <pt x="180" y="623" on="1"/>
        <pt x="150" y="623" on="0"/>
        <pt x="100" y="618" on="1"/>
        <pt x="91" y="596" on="0"/>
        <pt x="85" y="573" on="0"/>
        <pt x="82" y="526" on="1"/>
        <pt x="10" y="531" on="1"/>
        <pt x="17" y="697" on="1"/>
        <pt x="36" y="715" on="1"/>
        <pt x="130" y="705" on="0"/>
        <pt x="150" y="705" on="1"/>
        <pt x="476" y="705" on="1"/>
        <pt x="590" y="715" on="1"/>
        <pt x="609" y="697" on="1"/>
        <pt x="617" y="531" on="1"/>
        <pt x="545" y="526" on="1"/>
        <pt x="542" y="573" on="0"/>
        <pt x="536" y="596" on="0"/>
        <pt x="527" y="618" on="1"/>
        <pt x="482" y="623" on="0"/>
        <pt x="451" y="623" on="1"/>
        <pt x="400" y="623" on="1"/>
        <pt x="391" y="575" on="0"/>
        <pt x="391" y="542" on="1"/>
        <pt x="391" y="421" on="1"/>
        <pt x="533" y="421" on="1"/>
        <pt x="533" y="357" on="1"/>
        <pt x="391" y="357" on="1"/>
        <pt x="391" y="193" on="1"/>
        <pt x="391" y="140" on="0"/>
        <pt x="400" y="77" on="1"/>
        <pt x="465" y="71" on="1"/>
        <pt x="460" y="-5" on="1"/>
        <pt x="379" y="0" on="0"/>
        <pt x="266" y="0" on="1"/>
        <pt x="166" y="-5" on="1"/>
        <pt x="161" y="65" on="1"/>
      </contour>
    </TTGlyph>
    <TTGlyph name="Tcaron" xMin="10" yMin="-5" xMax="617" yMax="929">
      <contour>
        <pt x="227" y="77" on="1"/>
        <pt x="236" y="163" on="1"/>
        <pt x="236" y="512" on="1"/>
        <pt x="236" y="546" on="0"/>
        <pt x="227" y="623" on="1"/>
        <pt x="180" y="623" on="1"/>
        <pt x="150" y="623" on="0"/>
        <pt x="100" y="618" on="1"/>
        <pt x="91" y="596" on="0"/>
        <pt x="85" y="573" on="0"/>
        <pt x="82" y="526" on="1"/>
        <pt x="10" y="531" on="1"/>
        <pt x="17" y="697" on="1"/>
        <pt x="36" y="715" on="1"/>
        <pt x="130" y="705" on="0"/>
        <pt x="150" y="705" on="1"/>
        <pt x="476" y="705" on="1"/>
        <pt x="590" y="715" on="1"/>
        <pt x="609" y="697" on="1"/>
        <pt x="617" y="531" on="1"/>
        <pt x="545" y="526" on="1"/>
        <pt x="542" y="573" on="0"/>
        <pt x="536" y="596" on="0"/>
        <pt x="527" y="618" on="1"/>
        <pt x="482" y="623" on="0"/>
        <pt x="451" y="623" on="1"/>
        <pt x="400" y="623" on="1"/>
        <pt x="391" y="575" on="0"/>
        <pt x="391" y="542" on="1"/>
        <pt x="391" y="193" on="1"/>
        <pt x="391" y="140" on="0"/>
        <pt x="400" y="77" on="1"/>
        <pt x="465" y="71" on="1"/>
        <pt x="460" y="-5" on="1"/>
        <pt x="379" y="0" on="0"/>
        <pt x="266" y="0" on="1"/>
        <pt x="166" y="-5" on="1"/>
        <pt x="161" y="65" on="1"/>
      </contour>
      <contour>
        <pt x="464" y="929" on="1"/>
        <pt x="511" y="871" on="1"/>
        <pt x="313" y="738" on="1"/>
        <pt x="115" y="871" on="1"/>
        <pt x="162" y="929" on="1"/>
        <pt x="229" y="880" on="1"/>
        <pt x="313" y="839" on="1"/>
        <pt x="397" y="880" on="1"/>
      </contour>
    </TTGlyph>
    <TTGlyph name="Tcedilla" xMin="10" yMin="-235" xMax="617" yMax="715">
      <contour>
        <pt x="227" y="77" on="1"/>
        <pt x="236" y="163" on="1"/>
        <pt x="236" y="512" on="1"/>
        <pt x="236" y="546" on="0"/>
        <pt x="227" y="623" on="1"/>
        <pt x="180" y="623" on="1"/>
        <pt x="150" y="623" on="0"/>
        <pt x="100" y="618" on="1"/>
        <pt x="91" y="596" on="0"/>
        <pt x="85" y="573" on="0"/>
        <pt x="82" y="526" on="1"/>
        <pt x="10" y="531" on="1"/>
        <pt x="17" y="697" on="1"/>
        <pt x="36" y="715" on="1"/>
        <pt x="130" y="705" on="0"/>
        <pt x="150" y="705" on="1"/>
        <pt x="476" y="705" on="1"/>
        <pt x="590" y="715" on="1"/>
        <pt x="609" y="697" on="1"/>
        <pt x="617" y="531" on="1"/>
        <pt x="545" y="526" on="1"/>
        <pt x="542" y="573" on="0"/>
        <pt x="536" y="596" on="0"/>
        <pt x="527" y="618" on="1"/>
        <pt x="482" y="623" on="0"/>
        <pt x="451" y="623" on="1"/>
        <pt x="400" y="623" on="1"/>
        <pt x="391" y="575" on="0"/>
        <pt x="391" y="542" on="1"/>
        <pt x="391" y="193" on="1"/>
        <pt x="391" y="140" on="0"/>
        <pt x="400" y="77" on="1"/>
        <pt x="465" y="71" on="1"/>
        <pt x="460" y="-5" on="1"/>
        <pt x="414" y="-2" on="0"/>
        <pt x="346" y="0" on="1"/>
        <pt x="334" y="-59" on="1"/>
        <pt x="379" y="-60" on="0"/>
        <pt x="435" y="-106" on="0"/>
        <pt x="435" y="-191" on="0"/>
        <pt x="372" y="-235" on="0"/>
        <pt x="263" y="-235" on="0"/>
        <pt x="225" y="-217" on="1"/>
        <pt x="243" y="-168" on="1"/>
        <pt x="278" y="-179" on="0"/>
        <pt x="298" y="-179" on="1"/>
        <pt x="345" y="-179" on="0"/>
        <pt x="345" y="-146" on="1"/>
        <pt x="345" y="-115" on="0"/>
        <pt x="303" y="-115" on="1"/>
        <pt x="282" y="-116" on="1"/>
        <pt x="271" y="-102" on="1"/>
        <pt x="281" y="0" on="1"/>
        <pt x="266" y="0" on="1"/>
        <pt x="166" y="-5" on="1"/>
        <pt x="161" y="65" on="1"/>
      </contour>
    </TTGlyph>
    <TTGlyph name="Thorn" xMin="40" yMin="-5" xMax="596" yMax="710">
      <contour>
        <pt x="106" y="77" on="1"/>
        <pt x="115" y="163" on="1"/>
        <pt x="115" y="512" on="1"/>
        <pt x="115" y="551" on="0"/>
        <pt x="106" y="623" on="1"/>
        <pt x="41" y="635" on="1"/>
        <pt x="46" y="710" on="1"/>
        <pt x="99" y="705" on="0"/>
        <pt x="146" y="705" on="1"/>
        <pt x="340" y="710" on="1"/>
        <pt x="345" y="629" on="1"/>
        <pt x="279" y="623" on="1"/>
        <pt x="274" y="598" on="0"/>
        <pt x="271" y="566" on="1"/>
        <pt x="339" y="570" on="0"/>
        <pt x="360" y="570" on="1"/>
        <pt x="467" y="570" on="0"/>
        <pt x="596" y="457" on="0"/>
        <pt x="596" y="260" on="0"/>
        <pt x="452" y="146" on="0"/>
        <pt x="346" y="146" on="1"/>
        <pt x="272" y="146" on="1"/>
        <pt x="279" y="77" on="1"/>
        <pt x="344" y="71" on="1"/>
        <pt x="339" y="-5" on="1"/>
        <pt x="258" y="0" on="0"/>
        <pt x="145" y="0" on="1"/>
        <pt x="45" y="-5" on="1"/>
        <pt x="40" y="65" on="1"/>
      </contour>
      <contour>
        <pt x="270" y="228" on="1"/>
        <pt x="287" y="228" on="1"/>
        <pt x="356" y="228" on="0"/>
        <pt x="435" y="295" on="0"/>
        <pt x="435" y="425" on="0"/>
        <pt x="371" y="488" on="0"/>
        <pt x="302" y="488" on="1"/>
        <pt x="284" y="488" on="0"/>
        <pt x="270" y="487" on="1"/>
      </contour>
    </TTGlyph>
    <TTGlyph name="U" xMin="26" yMin="-15" xMax="754" yMax="710">
      <contour>
        <pt x="679" y="542" on="1"/>
        <pt x="679" y="268" on="1"/>
        <pt x="679" y="137" on="0"/>
        <pt x="529" y="-15" on="0"/>
        <pt x="249" y="-15" on="0"/>
        <pt x="100" y="137" on="0"/>
        <pt x="100" y="268" on="1"/>
        <pt x="100" y="512" on="1"/>
        <pt x="100" y="581" on="0"/>
        <pt x="91" y="623" on="1"/>
        <pt x="26" y="635" on="1"/>
        <pt x="31" y="710" on="1"/>
        <pt x="84" y="705" on="0"/>
        <pt x="131" y="705" on="1"/>
        <pt x="330" y="710" on="1"/>
        <pt x="335" y="629" on="1"/>
        <pt x="269" y="623" on="1"/>
        <pt x="260" y="590" on="0"/>
        <pt x="260" y="542" on="1"/>
        <pt x="260" y="260" on="1"/>
        <pt x="260" y="190" on="0"/>
        <pt x="337" y="99" on="0"/>
        <pt x="482" y="99" on="0"/>
        <pt x="547" y="181" on="0"/>
        <pt x="547" y="260" on="1"/>
        <pt x="547" y="512" on="1"/>
        <pt x="547" y="556" on="0"/>
        <pt x="538" y="623" on="1"/>
        <pt x="473" y="635" on="1"/>
        <pt x="478" y="710" on="1"/>
        <pt x="531" y="705" on="0"/>
        <pt x="578" y="705" on="1"/>
        <pt x="749" y="710" on="1"/>
        <pt x="754" y="629" on="1"/>
        <pt x="688" y="623" on="1"/>
        <pt x="679" y="581" on="0"/>
      </contour>
    </TTGlyph>
    <TTGlyph name="Uacute" xMin="26" yMin="-15" xMax="754" yMax="898">
      <contour>
        <pt x="679" y="542" on="1"/>
        <pt x="679" y="268" on="1"/>
        <pt x="679" y="137" on="0"/>
        <pt x="529" y="-15" on="0"/>
        <pt x="249" y="-15" on="0"/>
        <pt x="100" y="137" on="0"/>
        <pt x="100" y="268" on="1"/>
        <pt x="100" y="512" on="1"/>
        <pt x="100" y="581" on="0"/>
        <pt x="91" y="623" on="1"/>
        <pt x="26" y="635" on="1"/>
        <pt x="31" y="710" on="1"/>
        <pt x="84" y="705" on="0"/>
        <pt x="131" y="705" on="1"/>
        <pt x="330" y="710" on="1"/>
        <pt x="335" y="629" on="1"/>
        <pt x="269" y="623" on="1"/>
        <pt x="260" y="590" on="0"/>
        <pt x="260" y="542" on="1"/>
        <pt x="260" y="260" on="1"/>
        <pt x="260" y="190" on="0"/>
        <pt x="337" y="99" on="0"/>
        <pt x="482" y="99" on="0"/>
        <pt x="547" y="181" on="0"/>
        <pt x="547" y="260" on="1"/>
        <pt x="547" y="512" on="1"/>
        <pt x="547" y="556" on="0"/>
        <pt x="538" y="623" on="1"/>
        <pt x="473" y="635" on="1"/>
        <pt x="478" y="710" on="1"/>
        <pt x="531" y="705" on="0"/>
        <pt x="578" y="705" on="1"/>
        <pt x="749" y="710" on="1"/>
        <pt x="754" y="629" on="1"/>
        <pt x="688" y="623" on="1"/>
        <pt x="679" y="581" on="0"/>
      </contour>
      <contour>
        <pt x="510" y="898" on="1"/>
        <pt x="546" y="814" on="1"/>
        <pt x="403" y="774" on="0"/>
        <pt x="384" y="768" on="1"/>
        <pt x="310" y="730" on="1"/>
        <pt x="273" y="794" on="1"/>
      </contour>
    </TTGlyph>
    <TTGlyph name="Ubreve" xMin="26" yMin="-15" xMax="754" yMax="898">
      <contour>
        <pt x="679" y="542" on="1"/>
        <pt x="679" y="268" on="1"/>
        <pt x="679" y="137" on="0"/>
        <pt x="529" y="-15" on="0"/>
        <pt x="249" y="-15" on="0"/>
        <pt x="100" y="137" on="0"/>
        <pt x="100" y="268" on="1"/>
        <pt x="100" y="512" on="1"/>
        <pt x="100" y="581" on="0"/>
        <pt x="91" y="623" on="1"/>
        <pt x="26" y="635" on="1"/>
        <pt x="31" y="710" on="1"/>
        <pt x="84" y="705" on="0"/>
        <pt x="131" y="705" on="1"/>
        <pt x="330" y="710" on="1"/>
        <pt x="335" y="629" on="1"/>
        <pt x="269" y="623" on="1"/>
        <pt x="260" y="590" on="0"/>
        <pt x="260" y="542" on="1"/>
        <pt x="260" y="260" on="1"/>
        <pt x="260" y="190" on="0"/>
        <pt x="337" y="99" on="0"/>
        <pt x="482" y="99" on="0"/>
        <pt x="547" y="181" on="0"/>
        <pt x="547" y="260" on="1"/>
        <pt x="547" y="512" on="1"/>
        <pt x="547" y="556" on="0"/>
        <pt x="538" y="623" on="1"/>
        <pt x="473" y="635" on="1"/>
        <pt x="478" y="710" on="1"/>
        <pt x="531" y="705" on="0"/>
        <pt x="578" y="705" on="1"/>
        <pt x="749" y="710" on="1"/>
        <pt x="754" y="629" on="1"/>
        <pt x="688" y="623" on="1"/>
        <pt x="679" y="581" on="0"/>
      </contour>
      <contour>
        <pt x="478" y="898" on="1"/>
        <pt x="544" y="898" on="1"/>
        <pt x="544" y="824" on="0"/>
        <pt x="461" y="743" on="0"/>
        <pt x="319" y="743" on="0"/>
        <pt x="236" y="824" on="0"/>
        <pt x="236" y="898" on="1"/>
        <pt x="302" y="898" on="1"/>
        <pt x="302" y="861" on="0"/>
        <pt x="351" y="819" on="0"/>
        <pt x="429" y="819" on="0"/>
        <pt x="478" y="861" on="0"/>
      </contour>
    </TTGlyph>
    <TTGlyph name="Ucircumflex" xMin="26" yMin="-15" xMax="754" yMax="938">
      <contour>
        <pt x="679" y="542" on="1"/>
        <pt x="679" y="268" on="1"/>
        <pt x="679" y="137" on="0"/>
        <pt x="529" y="-15" on="0"/>
        <pt x="249" y="-15" on="0"/>
        <pt x="100" y="137" on="0"/>
        <pt x="100" y="268" on="1"/>
        <pt x="100" y="512" on="1"/>
        <pt x="100" y="581" on="0"/>
        <pt x="91" y="623" on="1"/>
        <pt x="26" y="635" on="1"/>
        <pt x="31" y="710" on="1"/>
        <pt x="84" y="705" on="0"/>
        <pt x="131" y="705" on="1"/>
        <pt x="330" y="710" on="1"/>
        <pt x="335" y="629" on="1"/>
        <pt x="269" y="623" on="1"/>
        <pt x="260" y="590" on="0"/>
        <pt x="260" y="542" on="1"/>
        <pt x="260" y="260" on="1"/>
        <pt x="260" y="190" on="0"/>
        <pt x="337" y="99" on="0"/>
        <pt x="482" y="99" on="0"/>
        <pt x="547" y="181" on="0"/>
        <pt x="547" y="260" on="1"/>
        <pt x="547" y="512" on="1"/>
        <pt x="547" y="556" on="0"/>
        <pt x="538" y="623" on="1"/>
        <pt x="473" y="635" on="1"/>
        <pt x="478" y="710" on="1"/>
        <pt x="531" y="705" on="0"/>
        <pt x="578" y="705" on="1"/>
        <pt x="749" y="710" on="1"/>
        <pt x="754" y="629" on="1"/>
        <pt x="688" y="623" on="1"/>
        <pt x="679" y="581" on="0"/>
      </contour>
      <contour>
        <pt x="390" y="938" on="1"/>
        <pt x="588" y="805" on="1"/>
        <pt x="541" y="747" on="1"/>
        <pt x="474" y="796" on="1"/>
        <pt x="390" y="837" on="1"/>
        <pt x="306" y="796" on="1"/>
        <pt x="239" y="747" on="1"/>
        <pt x="192" y="805" on="1"/>
      </contour>
    </TTGlyph>
    <TTGlyph name="Udieresis" xMin="26" yMin="-15" xMax="754" yMax="896">
      <contour>
        <pt x="679" y="542" on="1"/>
        <pt x="679" y="268" on="1"/>
        <pt x="679" y="137" on="0"/>
        <pt x="529" y="-15" on="0"/>
        <pt x="249" y="-15" on="0"/>
        <pt x="100" y="137" on="0"/>
        <pt x="100" y="268" on="1"/>
        <pt x="100" y="512" on="1"/>
        <pt x="100" y="581" on="0"/>
        <pt x="91" y="623" on="1"/>
        <pt x="26" y="635" on="1"/>
        <pt x="31" y="710" on="1"/>
        <pt x="84" y="705" on="0"/>
        <pt x="131" y="705" on="1"/>
        <pt x="330" y="710" on="1"/>
        <pt x="335" y="629" on="1"/>
        <pt x="269" y="623" on="1"/>
        <pt x="260" y="590" on="0"/>
        <pt x="260" y="542" on="1"/>
        <pt x="260" y="260" on="1"/>
        <pt x="260" y="190" on="0"/>
        <pt x="337" y="99" on="0"/>
        <pt x="482" y="99" on="0"/>
        <pt x="547" y="181" on="0"/>
        <pt x="547" y="260" on="1"/>
        <pt x="547" y="512" on="1"/>
        <pt x="547" y="556" on="0"/>
        <pt x="538" y="623" on="1"/>
        <pt x="473" y="635" on="1"/>
        <pt x="478" y="710" on="1"/>
        <pt x="531" y="705" on="0"/>
        <pt x="578" y="705" on="1"/>
        <pt x="749" y="710" on="1"/>
        <pt x="754" y="629" on="1"/>
        <pt x="688" y="623" on="1"/>
        <pt x="679" y="581" on="0"/>
      </contour>
      <contour>
        <pt x="240" y="896" on="0"/>
        <pt x="304" y="896" on="0"/>
        <pt x="339" y="859" on="0"/>
        <pt x="339" y="794" on="0"/>
        <pt x="304" y="757" on="0"/>
        <pt x="240" y="757" on="0"/>
        <pt x="204" y="795" on="0"/>
        <pt x="204" y="858" on="0"/>
      </contour>
      <contour>
        <pt x="477" y="896" on="0"/>
        <pt x="541" y="896" on="0"/>
        <pt x="576" y="859" on="0"/>
        <pt x="576" y="794" on="0"/>
        <pt x="541" y="757" on="0"/>
        <pt x="477" y="757" on="0"/>
        <pt x="442" y="794" on="0"/>
        <pt x="442" y="858" on="0"/>
      </contour>
    </TTGlyph>
    <TTGlyph name="Ugrave" xMin="26" yMin="-15" xMax="754" yMax="908">
      <contour>
        <pt x="679" y="542" on="1"/>
        <pt x="679" y="268" on="1"/>
        <pt x="679" y="137" on="0"/>
        <pt x="529" y="-15" on="0"/>
        <pt x="249" y="-15" on="0"/>
        <pt x="100" y="137" on="0"/>
        <pt x="100" y="268" on="1"/>
        <pt x="100" y="512" on="1"/>
        <pt x="100" y="581" on="0"/>
        <pt x="91" y="623" on="1"/>
        <pt x="26" y="635" on="1"/>
        <pt x="31" y="710" on="1"/>
        <pt x="84" y="705" on="0"/>
        <pt x="131" y="705" on="1"/>
        <pt x="330" y="710" on="1"/>
        <pt x="335" y="629" on="1"/>
        <pt x="269" y="623" on="1"/>
        <pt x="260" y="590" on="0"/>
        <pt x="260" y="542" on="1"/>
        <pt x="260" y="260" on="1"/>
        <pt x="260" y="190" on="0"/>
        <pt x="337" y="99" on="0"/>
        <pt x="482" y="99" on="0"/>
        <pt x="547" y="181" on="0"/>
        <pt x="547" y="260" on="1"/>
        <pt x="547" y="512" on="1"/>
        <pt x="547" y="556" on="0"/>
        <pt x="538" y="623" on="1"/>
        <pt x="473" y="635" on="1"/>
        <pt x="478" y="710" on="1"/>
        <pt x="531" y="705" on="0"/>
        <pt x="578" y="705" on="1"/>
        <pt x="749" y="710" on="1"/>
        <pt x="754" y="629" on="1"/>
        <pt x="688" y="623" on="1"/>
        <pt x="679" y="581" on="0"/>
      </contour>
      <contour>
        <pt x="506" y="804" on="1"/>
        <pt x="469" y="740" on="1"/>
        <pt x="395" y="778" on="1"/>
        <pt x="233" y="824" on="1"/>
        <pt x="269" y="908" on="1"/>
      </contour>
    </TTGlyph>
    <TTGlyph name="Uhungarumlaut" xMin="26" yMin="-15" xMax="754" yMax="918">
      <contour>
        <pt x="679" y="542" on="1"/>
        <pt x="679" y="268" on="1"/>
        <pt x="679" y="137" on="0"/>
        <pt x="529" y="-15" on="0"/>
        <pt x="249" y="-15" on="0"/>
        <pt x="100" y="137" on="0"/>
        <pt x="100" y="268" on="1"/>
        <pt x="100" y="512" on="1"/>
        <pt x="100" y="581" on="0"/>
        <pt x="91" y="623" on="1"/>
        <pt x="26" y="635" on="1"/>
        <pt x="31" y="710" on="1"/>
        <pt x="84" y="705" on="0"/>
        <pt x="131" y="705" on="1"/>
        <pt x="330" y="710" on="1"/>
        <pt x="335" y="629" on="1"/>
        <pt x="269" y="623" on="1"/>
        <pt x="260" y="590" on="0"/>
        <pt x="260" y="542" on="1"/>
        <pt x="260" y="260" on="1"/>
        <pt x="260" y="190" on="0"/>
        <pt x="337" y="99" on="0"/>
        <pt x="482" y="99" on="0"/>
        <pt x="547" y="181" on="0"/>
        <pt x="547" y="260" on="1"/>
        <pt x="547" y="512" on="1"/>
        <pt x="547" y="556" on="0"/>
        <pt x="538" y="623" on="1"/>
        <pt x="473" y="635" on="1"/>
        <pt x="478" y="710" on="1"/>
        <pt x="531" y="705" on="0"/>
        <pt x="578" y="705" on="1"/>
        <pt x="749" y="710" on="1"/>
        <pt x="754" y="629" on="1"/>
        <pt x="688" y="623" on="1"/>
        <pt x="679" y="581" on="0"/>
      </contour>
      <contour>
        <pt x="421" y="918" on="1"/>
        <pt x="457" y="839" on="1"/>
        <pt x="318" y="780" on="0"/>
        <pt x="299" y="774" on="1"/>
        <pt x="225" y="734" on="1"/>
        <pt x="186" y="797" on="1"/>
      </contour>
      <contour>
        <pt x="646" y="913" on="1"/>
        <pt x="682" y="829" on="1"/>
        <pt x="539" y="778" on="0"/>
        <pt x="520" y="772" on="1"/>
        <pt x="446" y="734" on="1"/>
        <pt x="410" y="796" on="1"/>
      </contour>
    </TTGlyph>
</ttFont>
